<svg width="40" height="40" viewBox="0 0 40 40" fill="none" xmlns="http://www.w3.org/2000/svg">
<g id="General / Plus_Circle / 24px / Contour">
<g id="Union">
<path d="M12.5007 20.0002C12.5007 19.0797 13.2468 18.3335 14.1673 18.3335H18.334V14.1668C18.334 13.2464 19.0802 12.5002 20.0007 12.5002C20.9211 12.5002 21.6673 13.2464 21.6673 14.1668V18.3335H25.834C26.7545 18.3335 27.5007 19.0797 27.5007 20.0002C27.5007 20.9206 26.7545 21.6668 25.834 21.6668H21.6673V25.8335C21.6673 26.754 20.9211 27.5002 20.0007 27.5002C19.0802 27.5002 18.334 26.754 18.334 25.8335V21.6668H14.1673C13.2468 21.6668 12.5007 20.9206 12.5007 20.0002Z" fill="#006171"/>
<path fill-rule="evenodd" clip-rule="evenodd" d="M20.0007 36.6668C29.2054 36.6668 36.6673 29.2049 36.6673 20.0002C36.6673 10.7954 29.2054 3.3335 20.0007 3.3335C10.7959 3.3335 3.33398 10.7954 3.33398 20.0002C3.33398 29.2049 10.7959 36.6668 20.0007 36.6668ZM20.0007 33.3335C27.3644 33.3335 33.334 27.364 33.334 20.0002C33.334 12.6364 27.3644 6.66683 20.0007 6.66683C12.6369 6.66683 6.66732 12.6364 6.66732 20.0002C6.66732 27.364 12.6369 33.3335 20.0007 33.3335Z" fill="#464A54"/>
</g>
</g>
</svg>
