<svg width="67" height="69" viewBox="0 0 67 69" fill="none" xmlns="http://www.w3.org/2000/svg">
<g clip-path="url(#clip0_663_4596)">
<path d="M13.7192 39.3118C13.7192 30.3163 15.1644 25.2582 18.0651 20.5563C20.9554 15.8648 25.3118 13.1106 31.1029 12.3148V0.62793C20.9135 2.41865 13.2689 7.47667 8.16903 15.7601C3.06913 24.0644 0.524414 34.3061 0.524414 46.4956V68.3823H29.6054V39.3013H13.7192V39.3118Z" stroke="#D2E390" stroke-width="1.04721"/>
<path d="M49.0327 39.3118C49.0327 30.3163 50.4779 25.2582 53.3786 20.5563C56.2689 15.8648 60.6253 13.1106 66.4163 12.3148V0.62793C56.227 2.42913 48.5824 7.47667 43.4825 15.7705C38.3826 24.0644 35.8379 34.3166 35.8379 46.5061V68.3927H64.9188V39.3118H49.0327Z" stroke="#D2E390" stroke-width="1.04721"/>
</g>
<defs>
<clipPath id="clip0_663_4596">
<rect width="66.9375" height="68.9063" fill="white"/>
</clipPath>
</defs>
</svg>
