<svg width="20" height="20" viewBox="0 0 20 20" fill="none" xmlns="http://www.w3.org/2000/svg">
<path d="M6.8178 6.81807C7.20832 6.42754 7.84149 6.42754 8.23201 6.81807L9.99982 8.58588L11.7677 6.818C12.1582 6.42747 12.7914 6.42747 13.1819 6.818C13.5724 7.20852 13.5724 7.84169 13.1819 8.23221L11.414 10.0001L13.1818 11.7678C13.5723 12.1583 13.5723 12.7915 13.1818 13.182C12.7912 13.5726 12.1581 13.5726 11.7675 13.182L9.99982 11.4143L8.23216 13.182C7.84164 13.5725 7.20847 13.5725 6.81795 13.182C6.42742 12.7914 6.42742 12.1583 6.81795 11.7677L8.5856 10.0001L6.8178 8.23228C6.42727 7.84176 6.42727 7.20859 6.8178 6.81807Z" fill="#006171"/>
<path fill-rule="evenodd" clip-rule="evenodd" d="M10 20C15.5228 20 20 15.5228 20 10C20 4.47715 15.5228 0 10 0C4.47715 0 0 4.47715 0 10C0 15.5228 4.47715 20 10 20ZM10 18C14.4183 18 18 14.4183 18 10C18 5.58172 14.4183 2 10 2C5.58172 2 2 5.58172 2 10C2 14.4183 5.58172 18 10 18Z" fill="#006171"/>
</svg>
