<svg width="50" height="65" viewBox="0 0 50 65" fill="none" xmlns="http://www.w3.org/2000/svg">
<g clip-path="url(#clip0_111_2206)">
<path d="M2.82168 8.62858C2.2944 8.62858 1.84825 8.22298 1.80769 7.68556C1.76713 7.15829 2.1423 6.68171 2.66958 6.61073L40.745 1.02363C40.745 1.02363 40.8464 1.01349 40.8971 1.01349C41.1405 1.01349 41.3737 1.10475 41.5562 1.25685C41.7793 1.44951 41.9111 1.73342 41.9111 2.02748V7.61458C41.9111 8.17228 41.4548 8.62858 40.8971 8.62858H2.82168Z" fill="#D2E390"/>
<path d="M40.8962 2.02799V7.61509H2.82072L40.8962 2.02799ZM40.8962 0C40.7948 0 40.7035 0 40.6021 0.0202799L2.52666 5.60738C1.47211 5.75948 0.721754 6.70249 0.802873 7.75705C0.883993 8.82174 1.76617 9.63293 2.82072 9.63293H40.8962C42.0116 9.63293 42.9242 8.72034 42.9242 7.60495V2.02799C42.9242 1.43987 42.6707 0.882174 42.2245 0.496857C41.8493 0.172379 41.3829 0 40.8962 0Z" fill="#006171"/>
<path d="M47.9736 7.29163H2.02962C1.46961 7.29163 1.01562 7.74561 1.01562 8.30562V62.2095C1.01562 62.7695 1.46961 63.2235 2.02962 63.2235H47.9736C48.5337 63.2235 48.9876 62.7695 48.9876 62.2095V8.30562C48.9876 7.74561 48.5337 7.29163 47.9736 7.29163Z" fill="#D2E390"/>
<path d="M47.972 8.30612V62.21H2.02799V8.30612H47.972ZM47.972 6.27814H2.02799C0.912594 6.27814 0 7.19073 0 8.30612V62.21C0 63.3254 0.912594 64.238 2.02799 64.238H47.972C49.0874 64.238 50 63.3254 50 62.21V8.30612C50 7.19073 49.0874 6.27814 47.972 6.27814Z" fill="#006171"/>
<path d="M12.5117 43.3182H37.4559" stroke="#006171" stroke-width="2.02799" stroke-linecap="round" stroke-linejoin="round"/>
<path d="M12.5117 48.9656H37.4559" stroke="#006171" stroke-width="2.02799" stroke-linecap="round" stroke-linejoin="round"/>
<path d="M12.5117 54.6143H37.4559" stroke="#006171" stroke-width="2.02799" stroke-linecap="round" stroke-linejoin="round"/>
<path d="M41.575 15.0776V36.1991H9.13736V15.0776H41.5649M41.575 13.0496H9.13736C8.02197 13.0496 7.10938 13.9622 7.10938 15.0776V36.1991C7.10938 37.3145 8.02197 38.2271 9.13736 38.2271H41.5649C42.6803 38.2271 43.5929 37.3145 43.5929 36.1991V15.0776C43.5929 13.9622 42.6803 13.0496 41.5649 13.0496H41.575Z" fill="#006171"/>
<path d="M20.7266 32.1229V37.1725" stroke="#006171" stroke-width="2.02799" stroke-linecap="round" stroke-linejoin="round"/>
<path d="M29.9844 32.1229V37.1725" stroke="#006171" stroke-width="2.02799" stroke-linecap="round" stroke-linejoin="round"/>
<path d="M29.7395 27.4184C31.95 27.4184 33.7346 29.2031 33.7346 31.4136V36.1996H16.9733V31.4136C16.9733 29.2031 18.7579 27.4184 20.9684 27.4184H29.7395ZM29.7395 25.3904H20.9684C17.6425 25.3904 14.9453 28.0877 14.9453 31.4136V36.1996C14.9453 37.315 15.8579 38.2276 16.9733 38.2276H33.7346C34.85 38.2276 35.7626 37.315 35.7626 36.1996V31.4136C35.7626 28.0877 33.0552 25.3904 29.7395 25.3904Z" fill="#006171"/>
<path d="M25.3792 25.9089C24.2638 25.9089 23.2093 25.4729 22.4183 24.6718C21.6274 23.8809 21.1914 22.8365 21.1914 21.7211C21.1914 20.6057 21.6274 19.5613 22.4183 18.7906C23.2093 18.0099 24.2638 17.5739 25.3792 17.5739C26.4946 17.5739 27.4477 17.9795 28.2285 18.7095C28.2589 18.7298 28.2894 18.7602 28.3198 18.7906C29.1006 19.5714 29.5366 20.6158 29.5366 21.7211C29.5366 22.8263 29.1107 23.8707 28.3198 24.6617C27.5289 25.4627 26.4946 25.8987 25.3893 25.8987L25.3792 25.9089Z" fill="#D2E390"/>
<path d="M25.3674 18.5981C26.2293 18.5981 27.0101 18.953 27.5779 19.5208C28.1458 20.0887 28.5007 20.8695 28.5007 21.7314C28.5007 22.5932 28.1559 23.374 27.5779 23.9621C27 24.5503 26.2293 24.895 25.3674 24.895C24.5055 24.895 23.6943 24.53 23.1164 23.9621C22.5384 23.3842 22.1835 22.5932 22.1835 21.7314C22.1835 20.8695 22.5282 20.0887 23.1062 19.5208C23.6842 18.953 24.4751 18.5981 25.3573 18.5981M25.3674 16.5701C23.9884 16.5701 22.6803 17.1075 21.6968 18.0708C20.7132 19.0443 20.1758 20.3422 20.1758 21.7314C20.1758 23.1205 20.7132 24.4083 21.6968 25.3919C22.6803 26.3754 23.9884 26.923 25.3776 26.923C26.7667 26.923 28.0545 26.3754 29.0381 25.3817C30.0115 24.3982 30.5388 23.1002 30.5388 21.7314C30.5388 20.3625 30.0014 19.0646 29.0279 18.081C28.9772 18.0303 28.9367 17.9897 28.886 17.9492C27.9227 17.0568 26.6856 16.5701 25.3776 16.5701H25.3674Z" fill="#006171"/>
</g>
<defs>
<clipPath id="clip0_111_2206">
<rect width="50" height="64.2365" fill="white"/>
</clipPath>
</defs>
</svg>
