<svg width="140" height="87" viewBox="0 0 140 87" fill="none" xmlns="http://www.w3.org/2000/svg">
<g clip-path="url(#clip0_2832_8797)">
<path d="M126.907 0.688477H13.0698C6.22531 0.688477 0.676758 6.23703 0.676758 13.0815V73.0776C0.676758 79.9221 6.22531 85.4706 13.0698 85.4706H126.907C133.751 85.4706 139.3 79.9221 139.3 73.0776V13.0815C139.3 6.23703 133.751 0.688477 126.907 0.688477Z" stroke="#006171" stroke-width="1.377"/>
<path d="M39.6331 25.8875C39.6331 31.5883 35.984 36.8485 30.6413 38.8176C25.2159 40.8142 18.9505 39.1481 15.2601 34.7004C11.5147 30.1838 11.0603 23.6155 14.1447 18.6307C17.1328 13.7974 22.9989 11.25 28.5758 12.3791C34.9375 13.6597 39.6331 19.3881 39.6331 25.8875Z" stroke="#A7C7D2" stroke-width="2.75401" stroke-linecap="round" stroke-linejoin="round"/>
<path d="M33.653 23.9454H27.8145V18.1069H23.9176V23.9454H18.0791V27.8424H23.9176V33.6808H27.8145V27.8424H33.653V23.9454Z" fill="#006171"/>
<path d="M119.769 69.9662H34.8496M119.769 61.5527H34.8496" stroke="#006171" stroke-width="2.75401" stroke-miterlimit="10"/>
<path d="M39.4092 50.2881H35.1543V54.7909H39.4092V50.2881Z" fill="#A7C7D2"/>
<path d="M45.8672 50.2881H41.6123V54.7909H45.8672V50.2881Z" fill="#A7C7D2"/>
<path d="M52.3253 50.2881H48.0703V54.7909H52.3253V50.2881Z" fill="#A7C7D2"/>
<path d="M58.7969 50.2881H54.542V54.7909H58.7969V50.2881Z" fill="#A7C7D2"/>
<path d="M69.7432 50.2881H65.4883V54.7909H69.7432V50.2881Z" fill="#A7C7D2"/>
<path d="M76.2022 50.2881H71.9473V54.7909H76.2022V50.2881Z" fill="#A7C7D2"/>
<path d="M82.6612 50.2881H78.4062V54.7909H82.6612V50.2881Z" fill="#A7C7D2"/>
<path d="M89.1192 50.2881H84.8643V54.7909H89.1192V50.2881Z" fill="#A7C7D2"/>
<path d="M100.066 50.2881H95.8115V54.7909H100.066V50.2881Z" fill="#A7C7D2"/>
<path d="M106.524 50.2881H102.27V54.7909H106.524V50.2881Z" fill="#A7C7D2"/>
<path d="M112.982 50.2881H108.728V54.7909H112.982V50.2881Z" fill="#A7C7D2"/>
<path d="M119.454 50.2881H115.199V54.7909H119.454V50.2881Z" fill="#A7C7D2"/>
</g>
<defs>
<clipPath id="clip0_2832_8797">
<rect width="140" height="86.1591" fill="white"/>
</clipPath>
</defs>
</svg>
