<svg width="30" height="31" viewBox="0 0 30 31" fill="none" xmlns="http://www.w3.org/2000/svg">
<path id="Union" fill-rule="evenodd" clip-rule="evenodd" d="M12.0588 3.74098C11.2466 3.74098 10.5882 4.39939 10.5882 5.21157V9.91745C10.5882 10.3075 10.4333 10.6815 10.1575 10.9573C9.88172 11.2331 9.50767 11.388 9.11765 11.388L4.41176 11.388C3.59958 11.388 2.94118 12.0464 2.94118 12.8586V18.741C2.94118 19.5532 3.59958 20.2116 4.41176 20.2116H9.11765C9.92983 20.2116 10.5882 20.87 10.5882 21.6822V26.388C10.5882 27.2002 11.2466 27.8586 12.0588 27.8586H17.9412C18.7534 27.8586 19.4118 27.2002 19.4118 26.388V21.6822C19.4118 20.87 20.0702 20.2116 20.8824 20.2116H25.5882C26.4004 20.2116 27.0588 19.5532 27.0588 18.741V12.8586C27.0588 12.0464 26.4004 11.388 25.5882 11.388H20.8824C20.0702 11.388 19.4118 10.7296 19.4118 9.91745V5.21157C19.4118 4.39939 18.7534 3.74098 17.9412 3.74098H12.0588ZM7.64706 5.21157C7.64706 2.77502 9.62227 0.799805 12.0588 0.799805H17.9412C20.3777 0.799805 22.3529 2.77502 22.3529 5.21157V8.44686H25.5882C28.0248 8.44686 30 10.4221 30 12.8586V18.741C30 21.1775 28.0248 23.1527 25.5882 23.1527H22.3529V26.388C22.3529 28.8246 20.3777 30.7998 17.9412 30.7998H12.0588C9.62227 30.7998 7.64706 28.8246 7.64706 26.388V23.1527H4.41176C1.97521 23.1527 0 21.1775 0 18.741V12.8586C0 10.4221 1.97521 8.44686 4.41176 8.44686H7.64706V5.21157Z" fill="#006171"/>
</svg>
