<svg width="460" height="282" viewBox="0 0 460 282" fill="none" xmlns="http://www.w3.org/2000/svg">
<g clip-path="url(#clip0_1083_3135)">
<path d="M105.943 280.887V278.001L106.01 277.688V271.537L106.478 271.626L102.823 277.711L102.388 277.232H108.751V278.491H101.43V277.332L105.999 269.642H107.492V280.876H105.932L105.943 280.887Z" fill="#A2A4A7"/>
<path d="M113.499 281.043C112.753 281.043 112.095 280.82 111.516 280.363C110.947 279.906 110.49 279.249 110.178 278.379C109.855 277.51 109.699 276.463 109.699 275.226C109.699 273.989 109.855 272.963 110.178 272.105C110.49 271.258 110.936 270.601 111.516 270.166C112.084 269.72 112.753 269.509 113.499 269.509C114.246 269.509 114.937 269.731 115.517 270.166C116.085 270.612 116.531 271.258 116.854 272.105C117.166 272.963 117.333 274 117.333 275.237C117.333 276.474 117.166 277.521 116.854 278.39C116.531 279.26 116.085 279.917 115.517 280.363C114.948 280.82 114.291 281.043 113.522 281.043H113.499ZM113.477 279.728C113.934 279.728 114.324 279.561 114.658 279.226C114.993 278.892 115.238 278.391 115.416 277.722C115.595 277.053 115.684 276.206 115.684 275.203C115.684 274.2 115.595 273.376 115.416 272.729C115.238 272.083 114.993 271.593 114.67 271.28C114.346 270.968 113.956 270.801 113.488 270.801C113.02 270.801 112.652 270.957 112.329 271.28C112.006 271.604 111.75 272.083 111.583 272.729C111.415 273.376 111.326 274.2 111.326 275.203C111.326 276.206 111.415 277.053 111.594 277.722C111.772 278.391 112.017 278.892 112.34 279.226C112.664 279.561 113.042 279.728 113.499 279.728H113.477Z" fill="#A2A4A7"/>
<path d="M122.562 281.043C121.815 281.043 121.158 280.82 120.578 280.363C120.01 279.906 119.553 279.249 119.241 278.38C118.918 277.51 118.762 276.463 118.762 275.226C118.762 273.989 118.918 272.964 119.241 272.105C119.553 271.258 119.999 270.601 120.578 270.166C121.147 269.721 121.815 269.509 122.562 269.509C123.309 269.509 124 269.732 124.579 270.166C125.147 270.612 125.593 271.258 125.916 272.105C126.228 272.964 126.396 274 126.396 275.237C126.396 276.474 126.228 277.521 125.916 278.391C125.593 279.26 125.147 279.917 124.579 280.363C124.011 280.82 123.353 281.043 122.584 281.043H122.562ZM122.551 279.728C123.008 279.728 123.398 279.561 123.732 279.227C124.066 278.892 124.312 278.391 124.49 277.722C124.668 277.053 124.757 276.206 124.757 275.203C124.757 274.201 124.668 273.376 124.49 272.729C124.312 272.083 124.066 271.593 123.743 271.281C123.42 270.969 123.03 270.802 122.562 270.802C122.094 270.802 121.726 270.958 121.403 271.281C121.08 271.604 120.823 272.083 120.656 272.729C120.489 273.376 120.4 274.201 120.4 275.203C120.4 276.206 120.489 277.053 120.667 277.722C120.846 278.391 121.091 278.892 121.414 279.227C121.737 279.561 122.116 279.728 122.573 279.728H122.551Z" fill="#A2A4A7"/>
<path d="M215.237 281.043C214.546 281.043 213.933 280.909 213.42 280.642C212.907 280.375 212.506 279.996 212.216 279.505C211.927 279.015 211.793 278.458 211.793 277.834C211.793 277.265 211.904 276.742 212.127 276.285C212.35 275.828 212.662 275.46 213.052 275.204C213.442 274.936 213.877 274.802 214.367 274.802L214.445 275.126C213.977 275.126 213.554 275.014 213.186 274.78C212.818 274.546 212.528 274.234 212.339 273.833C212.15 273.432 212.038 272.964 212.038 272.44C212.038 271.849 212.172 271.325 212.439 270.891C212.707 270.445 213.075 270.1 213.565 269.866C214.044 269.62 214.612 269.498 215.237 269.498C215.861 269.498 216.44 269.62 216.919 269.866C217.399 270.111 217.766 270.456 218.034 270.891C218.301 271.337 218.435 271.849 218.435 272.44C218.435 272.964 218.335 273.421 218.134 273.822C217.933 274.223 217.655 274.535 217.287 274.769C216.919 275.003 216.507 275.126 216.028 275.126L216.106 274.802C216.596 274.802 217.031 274.936 217.421 275.204C217.811 275.471 218.112 275.828 218.346 276.285C218.569 276.742 218.68 277.254 218.68 277.834C218.68 278.469 218.535 279.026 218.257 279.505C217.978 279.985 217.577 280.363 217.053 280.631C216.529 280.898 215.927 281.032 215.225 281.032L215.237 281.043ZM215.237 279.762C215.805 279.762 216.251 279.583 216.574 279.216C216.897 278.848 217.053 278.346 217.053 277.7C217.053 277.054 216.886 276.563 216.574 276.184C216.251 275.805 215.805 275.627 215.237 275.627C214.668 275.627 214.222 275.817 213.899 276.184C213.576 276.563 213.42 277.065 213.42 277.7C213.42 278.335 213.576 278.848 213.899 279.216C214.222 279.583 214.668 279.762 215.237 279.762ZM215.237 274.39C215.727 274.39 216.117 274.223 216.407 273.9C216.696 273.577 216.841 273.142 216.841 272.596C216.841 272.028 216.696 271.582 216.407 271.259C216.117 270.935 215.727 270.779 215.237 270.779C214.746 270.779 214.356 270.935 214.066 271.259C213.777 271.582 213.632 272.028 213.632 272.596C213.632 273.142 213.777 273.577 214.078 273.9C214.378 274.223 214.757 274.39 215.237 274.39Z" fill="#A2A4A7"/>
<path d="M223.796 281.043C223.05 281.043 222.392 280.821 221.813 280.364C221.244 279.907 220.787 279.249 220.475 278.38C220.152 277.511 219.996 276.463 219.996 275.226C219.996 273.989 220.152 272.953 220.475 272.106C220.787 271.248 221.233 270.601 221.813 270.167C222.381 269.721 223.05 269.498 223.796 269.498C224.543 269.498 225.234 269.721 225.813 270.167C226.382 270.612 226.827 271.259 227.151 272.106C227.463 272.953 227.63 274 227.63 275.237C227.63 276.474 227.463 277.522 227.151 278.391C226.827 279.249 226.382 279.918 225.813 280.364C225.245 280.821 224.588 281.043 223.819 281.043H223.796ZM223.785 279.728C224.242 279.728 224.632 279.561 224.966 279.227C225.301 278.893 225.546 278.391 225.724 277.722C225.903 277.054 225.992 276.207 225.992 275.204C225.992 274.201 225.903 273.387 225.724 272.73C225.546 272.083 225.301 271.593 224.978 271.281C224.654 270.969 224.264 270.802 223.796 270.802C223.328 270.802 222.96 270.958 222.637 271.281C222.314 271.604 222.058 272.083 221.891 272.73C221.723 273.376 221.634 274.201 221.634 275.204C221.634 276.207 221.723 277.054 221.902 277.722C222.08 278.391 222.325 278.893 222.648 279.227C222.972 279.561 223.351 279.728 223.807 279.728H223.785Z" fill="#A2A4A7"/>
<path d="M232.867 281.043C232.12 281.043 231.462 280.82 230.883 280.363C230.315 279.907 229.858 279.249 229.546 278.38C229.222 277.51 229.066 276.463 229.066 275.226C229.066 273.989 229.222 272.953 229.546 272.106C229.858 271.247 230.303 270.601 230.883 270.166C231.451 269.721 232.12 269.498 232.867 269.498C233.613 269.498 234.304 269.721 234.884 270.166C235.452 270.612 235.898 271.259 236.221 272.106C236.533 272.953 236.7 274 236.7 275.237C236.7 276.474 236.533 277.522 236.221 278.391C235.898 279.249 235.452 279.918 234.884 280.363C234.315 280.82 233.658 281.043 232.889 281.043H232.867ZM232.844 279.728C233.301 279.728 233.691 279.561 234.026 279.227C234.36 278.892 234.605 278.391 234.783 277.722C234.962 277.054 235.051 276.207 235.051 275.204C235.051 274.201 234.962 273.387 234.783 272.73C234.605 272.083 234.36 271.593 234.037 271.281C233.714 270.969 233.323 270.802 232.855 270.802C232.387 270.802 232.02 270.958 231.696 271.281C231.373 271.604 231.117 272.083 230.95 272.73C230.783 273.376 230.693 274.201 230.693 275.204C230.693 276.207 230.783 277.054 230.961 277.722C231.139 278.391 231.384 278.892 231.708 279.227C232.031 279.561 232.41 279.728 232.867 279.728H232.844Z" fill="#A2A4A7"/>
<path d="M431.735 280.888V270.992L432.047 271.293C431.891 271.572 431.668 271.839 431.378 272.096C431.089 272.352 430.754 272.564 430.375 272.753C429.997 272.931 429.595 273.065 429.172 273.154V271.605C429.618 271.516 430.03 271.382 430.409 271.204C430.788 271.026 431.111 270.792 431.412 270.524C431.702 270.257 431.936 269.967 432.103 269.655H433.273V280.888H431.757H431.735Z" fill="#A2A4A7"/>
<path d="M438.601 281.044C437.419 281.044 436.505 280.576 435.881 279.628C435.257 278.681 434.945 277.288 434.945 275.438C434.945 274.145 435.09 273.064 435.391 272.173C435.692 271.292 436.115 270.624 436.684 270.167C437.252 269.71 437.943 269.487 438.745 269.487C439.648 269.487 440.373 269.755 440.919 270.301C441.465 270.836 441.766 271.593 441.844 272.563H440.317C440.261 271.983 440.094 271.538 439.815 271.226C439.537 270.925 439.169 270.769 438.712 270.769C437.988 270.769 437.442 271.136 437.096 271.872C436.751 272.607 436.572 273.766 436.572 275.349V276.084L436.227 275.995C436.316 275.538 436.494 275.148 436.74 274.836C436.985 274.524 437.308 274.279 437.687 274.101C438.066 273.934 438.489 273.844 438.946 273.844C439.57 273.844 440.105 273.989 440.573 274.29C441.03 274.591 441.387 275.003 441.643 275.527C441.899 276.062 442.022 276.686 442.022 277.411C442.022 278.135 441.877 278.792 441.598 279.327C441.309 279.873 440.919 280.286 440.406 280.587C439.893 280.888 439.303 281.032 438.612 281.032L438.601 281.044ZM438.589 279.762C439.147 279.762 439.581 279.561 439.904 279.16C440.228 278.759 440.395 278.18 440.395 277.422C440.395 276.664 440.239 276.062 439.916 275.661C439.592 275.26 439.136 275.059 438.556 275.059C437.977 275.059 437.542 275.26 437.185 275.65C436.84 276.04 436.661 276.608 436.661 277.344C436.661 277.845 436.74 278.269 436.907 278.636C437.074 279.004 437.297 279.283 437.586 279.472C437.876 279.662 438.211 279.762 438.589 279.762Z" fill="#A2A4A7"/>
<path d="M447.124 281.043C446.378 281.043 445.72 280.82 445.141 280.363C444.572 279.907 444.115 279.249 443.803 278.38C443.48 277.51 443.324 276.463 443.324 275.226C443.324 273.989 443.48 272.953 443.803 272.106C444.127 271.259 444.561 270.601 445.141 270.166C445.72 269.732 446.378 269.498 447.124 269.498C447.871 269.498 448.562 269.721 449.142 270.166C449.721 270.612 450.156 271.259 450.479 272.106C450.791 272.964 450.958 274 450.958 275.237C450.958 276.474 450.802 277.522 450.479 278.391C450.156 279.249 449.71 279.918 449.142 280.363C448.573 280.82 447.916 281.043 447.147 281.043H447.124ZM447.102 279.728C447.559 279.728 447.949 279.561 448.283 279.227C448.618 278.892 448.863 278.391 449.041 277.722C449.22 277.054 449.309 276.207 449.309 275.204C449.309 274.201 449.22 273.376 449.041 272.73C448.863 272.083 448.618 271.593 448.295 271.281C447.971 270.958 447.581 270.802 447.113 270.802C446.645 270.802 446.277 270.958 445.954 271.281C445.631 271.604 445.375 272.083 445.208 272.73C445.04 273.376 444.951 274.201 444.951 275.204C444.951 276.207 445.04 277.054 445.219 277.722C445.397 278.391 445.642 278.892 445.965 279.227C446.289 279.561 446.667 279.728 447.124 279.728H447.102Z" fill="#A2A4A7"/>
<path d="M456.183 281.043C455.436 281.043 454.779 280.82 454.199 280.363C453.631 279.907 453.174 279.249 452.862 278.38C452.55 277.51 452.383 276.463 452.383 275.226C452.383 273.989 452.539 272.953 452.862 272.106C453.174 271.259 453.62 270.601 454.199 270.166C454.768 269.721 455.436 269.498 456.183 269.498C456.93 269.498 457.621 269.721 458.2 270.166C458.768 270.612 459.214 271.259 459.537 272.106C459.861 272.964 460.017 274 460.017 275.237C460.017 276.474 459.849 277.522 459.537 278.391C459.214 279.249 458.768 279.918 458.2 280.363C457.632 280.82 456.974 281.043 456.205 281.043H456.183ZM456.161 279.728C456.618 279.728 457.008 279.561 457.342 279.227C457.676 278.892 457.921 278.391 458.1 277.722C458.278 277.054 458.367 276.207 458.367 275.204C458.367 274.201 458.278 273.376 458.1 272.73C457.921 272.083 457.676 271.593 457.353 271.281C457.03 270.969 456.64 270.802 456.172 270.802C455.704 270.802 455.336 270.958 455.013 271.281C454.69 271.604 454.433 272.083 454.266 272.73C454.099 273.376 454.01 274.201 454.01 275.204C454.01 276.207 454.099 277.054 454.277 277.722C454.456 278.391 454.701 278.892 455.024 279.227C455.347 279.561 455.726 279.728 456.183 279.728H456.161Z" fill="#A2A4A7"/>
<path d="M321.93 280.887V270.991L322.242 271.292C322.086 271.571 321.864 271.838 321.574 272.095C321.284 272.351 320.95 272.563 320.571 272.752C320.192 272.93 319.791 273.064 319.367 273.153V271.604C319.813 271.515 320.225 271.381 320.604 271.203C320.983 271.025 321.306 270.791 321.607 270.523C321.897 270.256 322.131 269.966 322.298 269.654H323.468V280.887H321.953H321.93Z" fill="#A2A4A7"/>
<path d="M325.116 280.887V279.672C325.974 278.792 326.698 277.99 327.289 277.287C327.88 276.585 328.37 275.95 328.749 275.382C329.128 274.813 329.395 274.301 329.562 273.833C329.73 273.365 329.819 272.919 329.819 272.507C329.819 271.949 329.685 271.526 329.417 271.225C329.15 270.924 328.771 270.768 328.27 270.768C327.735 270.768 327.311 270.946 326.999 271.303C326.687 271.66 326.498 272.183 326.464 272.852H324.938C324.993 271.827 325.316 271.002 325.929 270.389C326.542 269.776 327.345 269.475 328.359 269.475C329.317 269.475 330.064 269.743 330.61 270.278C331.156 270.813 331.423 271.559 331.423 272.518C331.423 273.019 331.334 273.532 331.145 274.078C330.955 274.613 330.666 275.192 330.276 275.794C329.886 276.396 329.395 277.053 328.793 277.756C328.192 278.458 327.49 279.227 326.665 280.074L326.319 279.605H331.579V280.865H325.105L325.116 280.887Z" fill="#A2A4A7"/>
<path d="M336.453 281.042C335.706 281.042 335.048 280.819 334.469 280.362C333.901 279.906 333.444 279.248 333.132 278.379C332.808 277.51 332.652 276.462 332.652 275.225C332.652 273.988 332.808 272.952 333.132 272.105C333.444 271.258 333.889 270.6 334.469 270.165C335.037 269.72 335.706 269.497 336.453 269.497C337.199 269.497 337.89 269.72 338.47 270.165C339.038 270.611 339.484 271.258 339.807 272.105C340.119 272.963 340.286 273.999 340.286 275.236C340.286 276.473 340.119 277.521 339.807 278.39C339.484 279.248 339.038 279.917 338.47 280.362C337.901 280.819 337.244 281.042 336.475 281.042H336.453ZM336.441 279.727C336.898 279.727 337.288 279.56 337.623 279.226C337.957 278.891 338.202 278.39 338.38 277.721C338.559 277.053 338.648 276.206 338.648 275.203C338.648 274.2 338.559 273.375 338.38 272.729C338.202 272.082 337.957 271.592 337.634 271.28C337.311 270.957 336.921 270.801 336.453 270.801C335.984 270.801 335.617 270.957 335.294 271.28C334.97 271.603 334.714 272.082 334.547 272.729C334.38 273.375 334.291 274.2 334.291 275.203C334.291 276.206 334.38 277.053 334.558 277.721C334.736 278.39 334.981 278.891 335.305 279.226C335.628 279.56 336.007 279.727 336.464 279.727H336.441Z" fill="#A2A4A7"/>
<path d="M345.523 281.042C344.776 281.042 344.119 280.819 343.539 280.362C342.971 279.906 342.514 279.248 342.202 278.379C341.879 277.51 341.723 276.462 341.723 275.225C341.723 273.988 341.879 272.952 342.202 272.105C342.514 271.258 342.96 270.6 343.539 270.165C344.107 269.72 344.776 269.497 345.523 269.497C346.269 269.497 346.96 269.72 347.54 270.165C348.108 270.611 348.554 271.258 348.877 272.105C349.189 272.963 349.356 273.999 349.356 275.236C349.356 276.473 349.189 277.521 348.877 278.39C348.554 279.248 348.108 279.917 347.54 280.362C346.972 280.819 346.314 281.042 345.545 281.042H345.523ZM345.501 279.727C345.957 279.727 346.347 279.56 346.682 279.226C347.016 278.891 347.261 278.39 347.44 277.721C347.618 277.053 347.707 276.206 347.707 275.203C347.707 274.2 347.618 273.375 347.44 272.729C347.261 272.082 347.016 271.592 346.693 271.28C346.37 270.957 345.98 270.801 345.512 270.801C345.044 270.801 344.676 270.957 344.353 271.28C344.029 271.603 343.773 272.082 343.606 272.729C343.439 273.375 343.35 274.2 343.35 275.203C343.35 276.206 343.439 277.053 343.617 277.721C343.795 278.39 344.041 278.891 344.364 279.226C344.687 279.56 345.066 279.727 345.523 279.727H345.501Z" fill="#A2A4A7"/>
<path d="M3.80995 281.044C3.06328 281.044 2.40577 280.822 1.82627 280.365C1.25792 279.908 0.801005 279.25 0.488967 278.381C0.165785 277.512 0.00976562 276.464 0.00976562 275.227C0.00976562 273.99 0.165785 272.954 0.488967 272.107C0.801005 271.249 1.24677 270.602 1.82627 270.168C2.39463 269.722 3.06328 269.499 3.80995 269.499C4.55661 269.499 5.24755 269.722 5.82705 270.168C6.3954 270.613 6.84117 271.26 7.16435 272.107C7.47639 272.954 7.64356 274.001 7.64356 275.238C7.64356 276.475 7.47639 277.523 7.16435 278.392C6.84117 279.25 6.3954 279.919 5.82705 280.365C5.25869 280.822 4.60118 281.044 3.83223 281.044H3.80995ZM3.78766 279.729C4.24457 279.729 4.63462 279.562 4.96894 279.228C5.30327 278.894 5.54844 278.392 5.72675 277.723C5.90506 277.055 5.99421 276.208 5.99421 275.205C5.99421 274.202 5.90506 273.388 5.72675 272.731C5.54844 272.084 5.30327 271.594 4.98009 271.282C4.65691 270.97 4.26686 270.803 3.7988 270.803C3.33074 270.803 2.96298 270.959 2.6398 271.282C2.31662 271.605 2.0603 272.084 1.89314 272.731C1.72598 273.377 1.63682 274.202 1.63682 275.205C1.63682 276.208 1.72598 277.055 1.90428 277.723C2.08259 278.392 2.32776 278.894 2.65095 279.228C2.97413 279.562 3.35303 279.729 3.80995 279.729H3.78766Z" fill="#A2A4A7"/>
<path d="M444.74 264.216V0.799561" stroke="#D1CECE" stroke-width="1.11442" stroke-miterlimit="10"/>
<path d="M334.518 264.216V0.799805" stroke="#D1CECE" stroke-width="1.11442" stroke-miterlimit="10"/>
<path d="M225.322 264.216V0.799561" stroke="#D1CECE" stroke-width="1.11442" stroke-miterlimit="10"/>
<path d="M116.654 264.216V0.799561" stroke="#D1CECE" stroke-width="1.11442" stroke-miterlimit="10"/>
<path d="M4.36776 92.7288H160.443C165.674 92.7288 169.915 96.9705 169.915 102.201V141.685C169.915 146.916 165.674 151.158 160.443 151.158H4.36776V92.7288Z" fill="#E6EFF1" stroke="#A7C7D2" stroke-width="1.11442"/>
<path d="M3.81055 186.595H10.2519C13.1383 186.595 15.4785 188.936 15.4785 191.822V240.912C15.4785 243.799 13.1383 246.139 10.2519 246.139H3.81055V186.595Z" fill="#2C6B7A"/>
<path d="M4.36776 1.35677H434.713C439.944 1.35677 444.186 5.59842 444.186 10.8294V50.3133C444.186 55.5443 439.944 59.7859 434.713 59.7859H4.36776V1.35677Z" fill="#F6F9E9" stroke="#D1EA8D" stroke-width="1.11442"/>
<path d="M11.4531 19.2317V6.39355H13.1248V19.2317H11.4531ZM12.3892 11.8542H17.2593V13.2473H12.3892V11.8542ZM16.5237 19.2317V6.39355H18.1954V19.2317H16.5237Z" fill="#58595B"/>
<path d="M20.2461 8.28783V6.39331H22.096V8.28783H20.2461ZM20.3575 19.2315V10.1378H21.9957V19.2315H20.3575Z" fill="#58595B"/>
<path d="M26.9521 23.0657C26.0605 23.0657 25.3473 22.8205 24.8235 22.3302C24.2997 21.8399 24.01 21.1823 23.9543 20.3577H25.4699C25.4922 20.7589 25.637 21.0821 25.9045 21.3161C26.172 21.5501 26.5286 21.6615 26.9632 21.6615C27.4647 21.6615 27.8436 21.5055 28.1111 21.2046C28.3785 20.9037 28.5123 20.458 28.5123 19.8562V17.2373H28.6348C28.568 17.8279 28.3228 18.3071 27.9216 18.6526C27.5204 19.0092 27.0189 19.1764 26.4283 19.1764C25.8376 19.1764 25.3362 18.9981 24.9127 18.6303C24.4892 18.2626 24.1549 17.7499 23.932 17.0701C23.7091 16.3903 23.5977 15.5879 23.5977 14.663C23.5977 13.6934 23.7202 12.8465 23.9654 12.1444C24.2106 11.4423 24.5561 10.9074 25.013 10.5173C25.4699 10.1384 26.0048 9.94897 26.64 9.94897C27.2307 9.94897 27.721 10.1273 28.1111 10.4839C28.5011 10.8405 28.724 11.3309 28.802 11.9438H28.6794V10.1273H30.1616V19.5553C30.1616 20.6697 29.883 21.539 29.3369 22.1408C28.7909 22.7425 27.9996 23.0546 26.9744 23.0546L26.9521 23.0657ZM26.9521 17.7945C27.4981 17.7945 27.9105 17.527 28.1891 16.9921C28.4677 16.4572 28.6126 15.6437 28.6126 14.5627C28.6126 13.4817 28.4677 12.6793 28.1891 12.1444C27.9105 11.6206 27.487 11.3531 26.9298 11.3531C26.3726 11.3531 25.9714 11.6206 25.6928 12.1555C25.4142 12.6905 25.2693 13.504 25.2693 14.585C25.2693 15.666 25.4142 16.4683 25.6928 17.0033C25.9825 17.527 26.3949 17.7945 26.9409 17.7945H26.9521Z" fill="#58595B"/>
<path d="M32.1758 19.2315V6.39331H33.814V19.2315H32.1758ZM36.5778 19.2315V12.6564C36.5778 12.1995 36.4886 11.8763 36.3103 11.6645C36.132 11.4528 35.8645 11.3525 35.5079 11.3525C35.1513 11.3525 34.8281 11.4416 34.5718 11.62C34.3155 11.7983 34.126 12.0323 34.0034 12.322C33.8808 12.6118 33.814 12.935 33.814 13.2916L33.6022 11.776C33.8363 11.2188 34.1706 10.773 34.5941 10.4498C35.0176 10.1266 35.519 9.95946 36.1208 9.95946C36.7783 9.95946 37.2798 10.1601 37.6587 10.5724C38.0265 10.9847 38.2159 11.5531 38.2159 12.2775V19.2315H36.5889H36.5778Z" fill="#58595B"/>
<path d="M12.9864 37.2411C12.3958 37.2411 11.9166 37.0405 11.5377 36.6281C11.1699 36.2158 10.9805 35.6586 10.9805 34.9565C10.9805 34.3101 11.1476 33.7641 11.482 33.3183C11.8163 32.8725 12.3401 32.4602 13.0644 32.0924L15.2376 31.0226V32.3376L13.7777 33.0843C13.3765 33.296 13.0756 33.5412 12.875 33.8198C12.6744 34.0984 12.5852 34.4216 12.5852 34.7893C12.5852 35.1571 12.6744 35.4246 12.8527 35.6252C13.031 35.8258 13.2762 35.9261 13.5994 35.9261C13.9671 35.9261 14.268 35.7812 14.5132 35.4803C14.7584 35.1794 14.8809 34.8005 14.8809 34.3436L15.0815 35.614C14.9144 36.1601 14.6469 36.5724 14.268 36.8399C13.8891 37.1073 13.4656 37.2411 12.9753 37.2411H12.9864ZM15.1818 37.0628C15.1261 36.851 15.0815 36.617 15.0593 36.3607C15.037 36.1044 15.0258 35.8369 15.0258 35.5472H14.9032V30.3428C14.9032 29.9305 14.8141 29.6184 14.6246 29.4067C14.4352 29.1949 14.19 29.0946 13.8668 29.0946C13.4656 29.0946 13.1647 29.2395 12.9641 29.5181C12.7635 29.8079 12.6744 30.1756 12.6744 30.6437H11.2145C11.2145 29.7967 11.4597 29.1169 11.95 28.582C12.4404 28.0582 13.1202 27.7908 14.0006 27.7908C14.8029 27.7908 15.427 28.0248 15.8505 28.4817C16.274 28.9386 16.4969 29.585 16.4969 30.4208V35.5583C16.4969 35.8035 16.508 36.0598 16.5414 36.3161C16.5749 36.5724 16.6194 36.8287 16.6752 37.0739H15.193L15.1818 37.0628Z" fill="#58595B"/>
<path d="M18.4609 37.0628V27.9691H20.01V29.6853H20.0991V37.0628H18.4609ZM22.8629 37.0628V30.4877C22.8629 30.0308 22.7738 29.7076 22.5954 29.4958C22.4171 29.2841 22.1497 29.1838 21.7931 29.1838C21.4364 29.1838 21.1133 29.273 20.8569 29.4513C20.6006 29.6296 20.4112 29.8636 20.2886 30.1533C20.166 30.4431 20.0991 30.7663 20.0991 31.1229L19.8874 29.6073C20.1214 29.0501 20.4558 28.6043 20.8792 28.2811C21.3027 27.9579 21.8042 27.7908 22.406 27.7908C23.0635 27.7908 23.565 27.9914 23.9439 28.4037C24.3117 28.816 24.5011 29.3844 24.5011 30.1088V37.0628H22.8741H22.8629Z" fill="#58595B"/>
<path d="M25.625 29.3065V27.9692H30.1941V29.3065H25.625ZM29.18 37.2412C28.4111 37.2412 27.8204 37.0517 27.4192 36.684C27.018 36.3051 26.8174 35.759 26.8174 35.0123V26.331L28.4556 25.5955V34.9789C28.4556 35.3021 28.5448 35.5361 28.7119 35.681C28.8791 35.8259 29.1577 35.9039 29.5255 35.9039C29.6815 35.9039 29.8152 35.9039 29.9267 35.8816C30.0381 35.8593 30.1273 35.837 30.2053 35.8036V37.0852C30.0827 37.1297 29.9378 37.1743 29.7484 37.1966C29.5589 37.23 29.3695 37.2412 29.1689 37.2412H29.18Z" fill="#58595B"/>
<path d="M31.4102 26.1189V24.2244H33.2601V26.1189H31.4102ZM31.5105 37.0625V27.9688H33.1487V37.0625H31.5105Z" fill="#58595B"/>
<path d="M36.7599 37.2411C36.1692 37.2411 35.69 37.0405 35.3111 36.6281C34.9434 36.2158 34.7539 35.6586 34.7539 34.9565C34.7539 34.3101 34.9211 33.7641 35.2554 33.3183C35.5897 32.8725 36.1135 32.4602 36.8379 32.0924L39.011 31.0226V32.3376L37.5511 33.0843C37.1499 33.296 36.849 33.5412 36.6484 33.8198C36.4478 34.0984 36.3587 34.4216 36.3587 34.7893C36.3587 35.1571 36.4478 35.4246 36.6261 35.6252C36.8044 35.8258 37.0496 35.9261 37.3728 35.9261C37.7406 35.9261 38.0415 35.7812 38.2866 35.4803C38.5318 35.1794 38.6544 34.8005 38.6544 34.3436L38.855 35.614C38.6878 36.1601 38.4204 36.5724 38.0415 36.8399C37.6625 37.1073 37.2391 37.2411 36.7487 37.2411H36.7599ZM38.9553 37.0628C38.8996 36.851 38.855 36.617 38.8327 36.3607C38.8104 36.1044 38.7993 35.8369 38.7993 35.5472H38.6767V30.3428C38.6767 29.9305 38.5875 29.6184 38.3981 29.4067C38.2086 29.1949 37.9634 29.0946 37.6403 29.0946C37.2391 29.0946 36.9382 29.2395 36.7376 29.5181C36.537 29.8079 36.4478 30.1756 36.4478 30.6437H34.9879C34.9879 29.7967 35.2331 29.1169 35.7235 28.582C36.2138 28.0582 36.8936 27.7908 37.774 27.7908C38.5764 27.7908 39.2005 28.0248 39.6239 28.4817C40.0474 28.9386 40.2703 29.585 40.2703 30.4208V35.5583C40.2703 35.8035 40.2814 36.0598 40.3149 36.3161C40.3483 36.5724 40.3929 36.8287 40.4486 37.0739H38.9664L38.9553 37.0628Z" fill="#58595B"/>
<path d="M42.2266 37.0628V27.9691H43.7756V29.9862H43.8648V37.0628H42.2266ZM43.8648 31.4126L43.575 30.0419C43.7979 29.273 44.0876 28.7046 44.4331 28.3368C44.7786 27.9691 45.1909 27.7908 45.6813 27.7908C45.815 27.7908 45.9264 27.8131 46.0379 27.8465V29.4513C46.0379 29.4513 45.9487 29.429 45.8819 29.429C45.815 29.429 45.737 29.429 45.659 29.429C45.0795 29.429 44.6337 29.6073 44.3217 29.9639C44.0096 30.3205 43.8536 30.8109 43.8536 31.4238L43.8648 31.4126Z" fill="#58595B"/>
<path d="M47.3711 37.0625V27.9688H48.9201V29.9859H49.0093V37.0625H47.3711ZM49.0093 31.4124L48.7195 30.0417C48.9424 29.2727 49.2322 28.7044 49.5777 28.3366C49.9231 27.9688 50.3355 27.7905 50.8258 27.7905C50.9595 27.7905 51.071 27.8128 51.1824 27.8462V29.451C51.1824 29.451 51.0933 29.4287 51.0264 29.4287C50.9595 29.4287 50.8815 29.4287 50.8035 29.4287C50.224 29.4287 49.7782 29.607 49.4662 29.9637C49.1542 30.3203 48.9982 30.8106 48.9982 31.4235L49.0093 31.4124Z" fill="#58595B"/>
<path d="M52.5078 37.0623V24.2241H54.146V37.0623H52.5078ZM56.9098 37.0623V30.4872C56.9098 30.0303 56.8206 29.7071 56.6423 29.4953C56.464 29.2836 56.1966 29.1833 55.8399 29.1833C55.4833 29.1833 55.1601 29.2725 54.9038 29.4508C54.6475 29.6291 54.4581 29.8631 54.3355 30.1528C54.2129 30.4426 54.146 30.7658 54.146 31.1224L53.9343 29.6068C54.1683 29.0496 54.5026 28.6038 54.9261 28.2806C55.3496 27.9574 55.8511 27.7903 56.4529 27.7903C57.1104 27.7903 57.6119 27.9909 57.9908 28.4032C58.3585 28.8155 58.548 29.3839 58.548 30.1083V37.0623H56.9209H56.9098Z" fill="#58595B"/>
<path d="M62.3564 37.1068L59.5703 27.9797H61.2977L63.3259 35.7695L62.3452 37.1068H62.3564ZM60.9299 40.7175L62.3787 35.7472L62.5904 35.3014L64.4626 27.9685H66.0897L62.5235 40.7175H60.9411H60.9299Z" fill="#58595B"/>
<path d="M66.6016 29.3065V27.9692H71.1707V29.3065H66.6016ZM70.1566 37.2412C69.3876 37.2412 68.797 37.0517 68.3958 36.684C67.9946 36.3051 67.794 35.759 67.794 35.0123V26.331L69.4322 25.5955V34.9789C69.4322 35.3021 69.5213 35.5361 69.6885 35.681C69.8557 35.8259 70.1343 35.9039 70.502 35.9039C70.6581 35.9039 70.7918 35.9039 70.9032 35.8816C71.0147 35.8593 71.1038 35.837 71.1818 35.8036V37.0852C71.0593 37.1297 70.9144 37.1743 70.7249 37.1966C70.5355 37.23 70.346 37.2412 70.1454 37.2412H70.1566Z" fill="#58595B"/>
<path d="M72.4883 37.0625V24.2244H74.1265V37.0625H72.4883ZM76.8902 37.0625V30.4874C76.8902 30.0305 76.8011 29.7073 76.6228 29.4956C76.4445 29.2838 76.177 29.1835 75.8204 29.1835C75.4638 29.1835 75.1406 29.2727 74.8843 29.451C74.628 29.6293 74.4385 29.8633 74.3159 30.1531C74.1933 30.4428 74.1265 30.766 74.1265 31.1226L73.9147 29.607C74.1488 29.0498 74.4831 28.604 74.9066 28.2809C75.3301 27.9577 75.8315 27.7905 76.4333 27.7905C77.0908 27.7905 77.5923 27.9911 77.9712 28.4034C78.339 28.8158 78.5284 29.3841 78.5284 30.1085V37.0625H76.9014H76.8902Z" fill="#58595B"/>
<path d="M80.5 37.0628V27.9691H82.049V29.6853H82.1382V37.0628H80.5ZM84.7348 37.0628V30.3762C84.7348 29.975 84.6568 29.6741 84.4896 29.4735C84.3225 29.273 84.0773 29.1838 83.743 29.1838C83.4086 29.1838 83.1412 29.273 82.896 29.4401C82.6508 29.6073 82.4614 29.8413 82.3388 30.1311C82.2051 30.4208 82.1382 30.7551 82.1382 31.1229L81.9265 29.6073C82.1605 29.0278 82.4948 28.582 82.9072 28.2588C83.3195 27.9468 83.8098 27.7908 84.367 27.7908C84.9688 27.7908 85.4592 27.9914 85.8158 28.4037C86.1836 28.816 86.3619 29.3844 86.3619 30.1088V37.0628H84.7348ZM88.9808 37.0628V30.3762C88.9808 29.975 88.8916 29.6741 88.7356 29.4735C88.5684 29.273 88.3232 29.1838 87.9889 29.1838C87.6546 29.1838 87.376 29.273 87.1308 29.429C86.8968 29.5961 86.7073 29.8302 86.5736 30.1199C86.4399 30.4097 86.373 30.744 86.373 31.1229L86.0498 29.5738C86.3061 28.9832 86.6516 28.5374 87.0751 28.2365C87.4986 27.9356 87.9889 27.7908 88.5461 27.7908C89.1591 27.7908 89.6606 27.9914 90.0395 28.4037C90.4184 28.816 90.6078 29.3844 90.6078 30.1088V37.0628H88.9808Z" fill="#58595B"/>
<path d="M92.4805 26.1189V24.2244H94.3304V26.1189H92.4805ZM92.5808 37.0625V27.9688H94.219V37.0625H92.5808Z" fill="#58595B"/>
<path d="M98.8754 37.2415C98.2625 37.2415 97.7164 37.052 97.2484 36.6843C96.7803 36.3054 96.4126 35.7704 96.1563 35.0572C95.8999 34.344 95.7773 33.497 95.7773 32.494C95.7773 31.4911 95.9111 30.6441 96.1674 29.942C96.4237 29.2399 96.8026 28.705 97.2818 28.3372C97.761 27.9695 98.3294 27.78 98.9646 27.78C99.5329 27.78 100.034 27.9249 100.458 28.2035C100.881 28.4821 101.205 28.8945 101.439 29.4294C101.673 29.9643 101.784 30.6218 101.784 31.3908H100.268C100.268 30.633 100.157 30.0646 99.9341 29.6968C99.7113 29.3291 99.3992 29.1396 98.9757 29.1396C98.6526 29.1396 98.374 29.2511 98.1511 29.474C97.917 29.6968 97.7387 30.0646 97.6161 30.5549C97.4936 31.0453 97.4267 31.6917 97.4267 32.494C97.4267 33.2964 97.4936 33.9205 97.6161 34.422C97.7387 34.9235 97.917 35.2912 98.1399 35.5253C98.3628 35.7593 98.6303 35.8819 98.9423 35.8819C99.3435 35.8819 99.6667 35.6813 99.9007 35.2912C100.135 34.9012 100.257 34.344 100.257 33.6307H101.773C101.773 34.3663 101.65 35.0015 101.394 35.5476C101.149 36.0936 100.803 36.506 100.369 36.7957C99.9341 37.0855 99.4327 37.2303 98.8643 37.2303L98.8754 37.2415Z" fill="#58595B"/>
<path d="M15.9524 54.893V53.0765L16.075 53.1879C15.9413 53.8009 15.6626 54.2801 15.2503 54.5921C14.8268 54.9153 14.3365 55.0713 13.757 55.0713C13.1775 55.0713 12.6537 54.8818 12.2302 54.5141C11.8067 54.1463 11.4836 53.6114 11.2718 52.9316C11.0489 52.2407 10.9375 51.416 10.9375 50.4576C10.9375 49.4992 11.0601 48.5965 11.2941 47.8721C11.5281 47.1478 11.8736 46.5905 12.3082 46.2005C12.7429 45.8105 13.2666 45.621 13.8796 45.621C14.4145 45.621 14.8937 45.7993 15.3283 46.1336C15.7518 46.4791 16.0081 46.9806 16.0973 47.627L15.8632 47.7161V42.0437H17.4903V54.8818H15.9524V54.893ZM14.2919 53.6783C14.8491 53.6783 15.2726 53.3997 15.5401 52.8536C15.8187 52.3075 15.9524 51.4606 15.9524 50.3239C15.9524 49.1871 15.8075 48.3625 15.5289 47.8164C15.2503 47.2815 14.8268 47.0029 14.2696 47.0029C13.7124 47.0029 13.3112 47.2815 13.0326 47.8276C12.754 48.3736 12.6091 49.2206 12.6091 50.3573C12.6091 51.494 12.754 52.3187 13.0326 52.8647C13.3224 53.4108 13.7347 53.6783 14.2808 53.6783H14.2919Z" fill="#58595B"/>
<path d="M22.4386 55.0711C21.7254 55.0711 21.1125 54.8706 20.611 54.4582C20.1095 54.0459 19.7194 53.4887 19.452 52.7754C19.1845 52.0622 19.0508 51.2375 19.0508 50.3126C19.0508 49.3876 19.1845 48.5741 19.452 47.872C19.7194 47.1699 20.1095 46.6238 20.611 46.2226C21.1125 45.8214 21.7254 45.6208 22.4386 45.6208C23.1519 45.6208 23.7425 45.8214 24.244 46.2226C24.7455 46.6238 25.1355 47.1699 25.403 47.872C25.6704 48.5741 25.8042 49.3876 25.8042 50.3126C25.8042 51.2375 25.6704 52.0622 25.4141 52.7754C25.1578 53.4887 24.7678 54.0459 24.2663 54.4582C23.7648 54.8706 23.1519 55.0711 22.4386 55.0711ZM22.4386 53.7227C22.8064 53.7227 23.1184 53.589 23.3636 53.3215C23.6088 53.054 23.7982 52.664 23.9319 52.1625C24.0657 51.661 24.1325 51.0369 24.1325 50.3014C24.1325 49.2204 23.9877 48.3958 23.6979 47.8274C23.4082 47.259 22.9847 46.9804 22.4386 46.9804C21.8926 46.9804 21.4579 47.259 21.1682 47.8274C20.8784 48.3958 20.7336 49.2204 20.7336 50.3014C20.7336 51.0369 20.8004 51.661 20.9342 52.1625C21.0679 52.664 21.2573 53.054 21.5137 53.3215C21.77 53.589 22.082 53.7227 22.4498 53.7227H22.4386Z" fill="#58595B"/>
<path d="M29.4781 55.0707C28.6423 55.0707 27.996 54.8144 27.5391 54.2907C27.0821 53.778 26.8258 53.0425 26.7812 52.1064H28.1854C28.2189 52.6636 28.3526 53.0871 28.5643 53.3657C28.7761 53.6443 29.0992 53.7892 29.5004 53.7892C29.8236 53.7892 30.0688 53.7 30.2582 53.5217C30.4477 53.3434 30.5369 53.0871 30.5369 52.7527C30.5369 52.4964 30.47 52.2401 30.3363 51.9949C30.2025 51.7498 29.9462 51.5046 29.5562 51.2594L28.5197 50.5462C28.0517 50.2342 27.6951 49.8775 27.4499 49.4652C27.2047 49.0529 27.071 48.5737 27.071 48.0165C27.071 47.3144 27.2939 46.746 27.7285 46.3002C28.1631 45.8545 28.7426 45.6316 29.4559 45.6316C30.1691 45.6316 30.7709 45.8656 31.1832 46.3225C31.5956 46.7794 31.8296 47.437 31.8742 48.3062H30.47C30.4477 47.8159 30.3474 47.4704 30.1802 47.2475C30.0131 47.0246 29.7679 46.9132 29.4447 46.9132C29.155 46.9132 28.9321 47.0023 28.7538 47.1806C28.5755 47.3589 28.4975 47.6041 28.4975 47.9273C28.4975 48.1725 28.5643 48.4176 28.6981 48.6405C28.8318 48.8634 29.077 49.0974 29.4224 49.3315L30.5146 50.067C30.938 50.3567 31.2947 50.7245 31.5621 51.1703C31.8296 51.6272 31.9633 52.1287 31.9633 52.6859C31.9633 53.4103 31.7404 53.9898 31.2947 54.4244C30.8489 54.859 30.236 55.0707 29.4447 55.0707H29.4781Z" fill="#58595B"/>
<path d="M36.2564 55.0707C35.5989 55.0707 35.0305 54.8813 34.5513 54.5024C34.0721 54.1235 33.6932 53.5774 33.4369 52.8753C33.1806 52.1732 33.0469 51.3374 33.0469 50.3679C33.0469 49.3983 33.1806 48.5291 33.4592 47.827C33.7378 47.1249 34.1167 46.5789 34.6294 46.1999C35.1308 45.821 35.7326 45.6316 36.4347 45.6316C37.0699 45.6316 37.5937 45.7988 38.0172 46.1442C38.4407 46.4897 38.775 46.9912 38.9979 47.6821C39.2208 48.3619 39.3322 49.22 39.3322 50.2453C39.3322 50.3345 39.3322 50.4125 39.3322 50.5016C39.3322 50.5908 39.3322 50.6688 39.3322 50.7468H34.0944V49.5321H38.3738L37.8723 50.1896C37.8723 49.0529 37.7497 48.217 37.5046 47.7156C37.2594 47.2029 36.8805 46.9466 36.3679 46.9466C35.8552 46.9466 35.4206 47.2364 35.142 47.8159C34.8634 48.3954 34.7185 49.2535 34.7185 50.3902C34.7185 51.5269 34.8522 52.3516 35.1308 52.9311C35.4095 53.5106 35.7995 53.8003 36.3233 53.8003C36.7468 53.8003 37.0811 53.6443 37.3263 53.3322C37.5603 53.0202 37.7052 52.5856 37.7497 52.0284H39.2431C39.1316 52.9422 38.8307 53.6889 38.3181 54.2461C37.8055 54.8144 37.1257 55.093 36.2676 55.093L36.2564 55.0707Z" fill="#58595B"/>
<path d="M10.7617 109.823V96.9851H12.4334V109.823H10.7617ZM11.6867 109.823V108.43H15.7543V109.823H11.6867Z" fill="#58595B"/>
<path d="M19.7667 110.002C19.0535 110.002 18.4406 109.801 17.9391 109.389C17.4376 108.977 17.0476 108.419 16.7801 107.706C16.5126 106.993 16.3789 106.168 16.3789 105.243C16.3789 104.318 16.5126 103.505 16.7801 102.803C17.0476 102.101 17.4376 101.554 17.9391 101.153C18.4406 100.752 19.0535 100.552 19.7667 100.552C20.48 100.552 21.0706 100.752 21.5721 101.153C22.0736 101.554 22.4637 102.101 22.7311 102.803C22.9986 103.505 23.1323 104.318 23.1323 105.243C23.1323 106.168 22.9986 106.993 22.7423 107.706C22.4859 108.419 22.0959 108.977 21.5944 109.389C21.0929 109.801 20.48 110.002 19.7667 110.002ZM19.7667 108.653C20.1345 108.653 20.4465 108.52 20.6917 108.252C20.9369 107.985 21.1263 107.595 21.2601 107.093C21.3938 106.592 21.4607 105.968 21.4607 105.232C21.4607 104.151 21.3158 103.326 21.026 102.758C20.7363 102.19 20.3128 101.911 19.7667 101.911C19.2207 101.911 18.7861 102.19 18.4963 102.758C18.2066 103.326 18.0617 104.151 18.0617 105.232C18.0617 105.968 18.1285 106.592 18.2623 107.093C18.396 107.595 18.5855 107.985 18.8418 108.252C19.0981 108.52 19.4101 108.653 19.7779 108.653H19.7667Z" fill="#58595B"/>
<path d="M26.1084 109.824L23.9688 100.73H25.5958L26.9888 107.84H26.7548L28.4153 100.73H29.7526L31.4242 107.84H31.2125L32.5832 100.73H34.1323L31.9926 109.824H30.5661L28.9279 102.836H29.1731L27.5349 109.824H26.1084Z" fill="#58595B"/>
<path d="M12.2872 127.833C11.6966 127.833 11.2174 127.632 10.8385 127.22C10.4707 126.808 10.2812 126.25 10.2812 125.548C10.2812 124.902 10.4484 124.356 10.7827 123.91C11.1171 123.464 11.6408 123.052 12.3652 122.684L14.5383 121.614V122.929L13.0784 123.676C12.6773 123.888 12.3764 124.133 12.1758 124.412C11.9752 124.69 11.886 125.013 11.886 125.381C11.886 125.749 11.9752 126.016 12.1535 126.217C12.3318 126.418 12.577 126.518 12.9001 126.518C13.2679 126.518 13.5688 126.373 13.814 126.072C14.0591 125.771 14.1817 125.392 14.1817 124.935L14.3823 126.206C14.2152 126.752 13.9477 127.164 13.5688 127.432C13.1899 127.699 12.7664 127.833 12.2761 127.833H12.2872ZM14.4826 127.655C14.4269 127.443 14.3823 127.209 14.36 126.952C14.3377 126.696 14.3266 126.429 14.3266 126.139H14.204V120.935C14.204 120.522 14.1149 120.21 13.9254 119.998C13.736 119.787 13.4908 119.686 13.1676 119.686C12.7664 119.686 12.4655 119.831 12.2649 120.11C12.0643 120.4 11.9752 120.767 11.9752 121.235H10.5153C10.5153 120.389 10.7605 119.709 11.2508 119.174C11.7411 118.65 12.4209 118.383 13.3013 118.383C14.1037 118.383 14.7278 118.617 15.1513 119.074C15.5748 119.53 15.7976 120.177 15.7976 121.013V126.15C15.7976 126.395 15.8088 126.652 15.8422 126.908C15.8757 127.164 15.9202 127.421 15.9759 127.666H14.4938L14.4826 127.655Z" fill="#58595B"/>
<path d="M17.7734 127.655V118.561H19.3225V120.277H19.4116V127.655H17.7734ZM22.1754 127.655V121.079C22.1754 120.623 22.0863 120.299 21.9079 120.088C21.7296 119.876 21.4622 119.776 21.1056 119.776C20.7489 119.776 20.4258 119.865 20.1694 120.043C19.9131 120.221 19.7237 120.455 19.6011 120.745C19.4785 121.035 19.4116 121.358 19.4116 121.715L19.1999 120.199C19.4339 119.642 19.7683 119.196 20.1917 118.873C20.6152 118.55 21.1167 118.383 21.7185 118.383C22.376 118.383 22.8775 118.583 23.2564 118.995C23.6242 119.408 23.8136 119.976 23.8136 120.701V127.655H22.1865H22.1754Z" fill="#58595B"/>
<path d="M24.9375 119.898V118.561H29.5066V119.898H24.9375ZM28.4814 127.833C27.7124 127.833 27.1218 127.644 26.7206 127.276C26.3194 126.897 26.1188 126.351 26.1188 125.604V116.923L27.757 116.187V125.571C27.757 125.894 27.8461 126.128 28.0133 126.273C28.1805 126.418 28.4591 126.496 28.8268 126.496C28.9829 126.496 29.1166 126.496 29.228 126.473C29.3395 126.451 29.4286 126.429 29.5066 126.395V127.677C29.384 127.722 29.2392 127.766 29.0497 127.788C28.8603 127.822 28.6708 127.833 28.4702 127.833H28.4814Z" fill="#58595B"/>
<path d="M30.7109 116.711V114.816H32.5609V116.711H30.7109ZM30.8224 127.654V118.561H32.4606V127.654H30.8224Z" fill="#58595B"/>
<path d="M36.0606 127.833C35.47 127.833 34.9908 127.632 34.6119 127.22C34.2441 126.808 34.0547 126.25 34.0547 125.548C34.0547 124.902 34.2219 124.356 34.5562 123.91C34.8905 123.464 35.4143 123.052 36.1387 122.684L38.3118 121.614V122.929L36.8519 123.676C36.4507 123.888 36.1498 124.133 35.9492 124.412C35.7486 124.69 35.6595 125.013 35.6595 125.381C35.6595 125.749 35.7486 126.016 35.9269 126.217C36.1052 126.418 36.3504 126.518 36.6736 126.518C37.0413 126.518 37.3422 126.373 37.5874 126.072C37.8326 125.771 37.9552 125.392 37.9552 124.935L38.1558 126.206C37.9886 126.752 37.7211 127.164 37.3422 127.432C36.9633 127.699 36.5398 127.833 36.0495 127.833H36.0606ZM38.2561 127.655C38.2003 127.443 38.1558 127.209 38.1335 126.952C38.1112 126.696 38.1 126.429 38.1 126.139H37.9775V120.935C37.9775 120.522 37.8883 120.21 37.6989 119.998C37.5094 119.787 37.2642 119.686 36.941 119.686C36.5399 119.686 36.239 119.831 36.0384 120.11C35.8378 120.4 35.7486 120.767 35.7486 121.235H34.2887C34.2887 120.389 34.5339 119.709 35.0242 119.174C35.5146 118.65 36.1944 118.383 37.0748 118.383C37.8772 118.383 38.5012 118.617 38.9247 119.074C39.3482 119.53 39.5711 120.177 39.5711 121.013V126.15C39.5711 126.395 39.5822 126.652 39.6157 126.908C39.6491 127.164 39.6937 127.421 39.7494 127.666H38.2672L38.2561 127.655Z" fill="#58595B"/>
<path d="M41.5273 127.655V118.561H43.0764V120.578H43.1655V127.655H41.5273ZM43.1655 122.004L42.8758 120.634C43.0987 119.865 43.3884 119.296 43.7339 118.929C44.0794 118.561 44.4917 118.383 44.9821 118.383C45.1158 118.383 45.2272 118.405 45.3387 118.438V120.043C45.3387 120.043 45.2495 120.021 45.1826 120.021C45.1158 120.021 45.0378 120.021 44.9598 120.021C44.3803 120.021 43.9345 120.199 43.6225 120.556C43.3104 120.912 43.1544 121.403 43.1544 122.016L43.1655 122.004Z" fill="#58595B"/>
<path d="M46.6719 127.654V118.561H48.2209V120.578H48.3101V127.654H46.6719ZM48.3101 122.004L48.0203 120.633C48.2432 119.865 48.533 119.296 48.8784 118.928C49.2239 118.561 49.6362 118.382 50.1266 118.382C50.2603 118.382 50.3718 118.405 50.4832 118.438V120.043C50.4832 120.043 50.394 120.021 50.3272 120.021C50.2603 120.021 50.1823 120.021 50.1043 120.021C49.5248 120.021 49.079 120.199 48.767 120.555C48.4549 120.912 48.2989 121.402 48.2989 122.015L48.3101 122.004Z" fill="#58595B"/>
<path d="M51.8086 127.654V114.816H53.4468V127.654H51.8086ZM56.2106 127.654V121.079C56.2106 120.622 56.1214 120.299 55.9431 120.087C55.7648 119.875 55.4973 119.775 55.1407 119.775C54.7841 119.775 54.4609 119.864 54.2046 120.043C53.9483 120.221 53.7588 120.455 53.6362 120.745C53.5137 121.034 53.4468 121.358 53.4468 121.714L53.2351 120.199C53.4691 119.641 53.8034 119.196 54.2269 118.872C54.6504 118.549 55.1519 118.382 55.7536 118.382C56.4112 118.382 56.9126 118.583 57.2915 118.995C57.6593 119.407 57.8488 119.976 57.8488 120.7V127.654H56.2217H56.2106Z" fill="#58595B"/>
<path d="M61.6689 127.699L58.8828 118.571H60.6102L62.6384 126.361L61.6577 127.699H61.6689ZM60.2424 131.309L61.6912 126.339L61.9029 125.893L63.7751 118.56H65.4022L61.836 131.309H60.2536H60.2424Z" fill="#58595B"/>
<path d="M65.9141 119.898V118.561H70.4832V119.898H65.9141ZM69.4579 127.833C68.689 127.833 68.0983 127.644 67.6971 127.276C67.2959 126.897 67.0953 126.351 67.0953 125.604V116.923L68.7335 116.187V125.571C68.7335 125.894 68.8227 126.128 68.9899 126.273C69.157 126.418 69.4356 126.496 69.8034 126.496C69.9594 126.496 70.0931 126.496 70.2046 126.473C70.316 126.451 70.4052 126.429 70.4832 126.395V127.677C70.3606 127.722 70.2157 127.766 70.0263 127.788C69.8368 127.822 69.6474 127.833 69.4468 127.833H69.4579Z" fill="#58595B"/>
<path d="M71.7969 127.654V114.816H73.4351V127.654H71.7969ZM76.1988 127.654V121.079C76.1988 120.622 76.1097 120.299 75.9314 120.087C75.7531 119.876 75.4856 119.775 75.129 119.775C74.7724 119.775 74.4492 119.864 74.1929 120.043C73.9366 120.221 73.7471 120.455 73.6245 120.745C73.5019 121.035 73.4351 121.358 73.4351 121.714L73.2233 120.199C73.4574 119.642 73.7917 119.196 74.2152 118.873C74.6386 118.549 75.1401 118.382 75.7419 118.382C76.3994 118.382 76.9009 118.583 77.2798 118.995C77.6476 119.408 77.837 119.976 77.837 120.7V127.654H76.21H76.1988Z" fill="#58595B"/>
<path d="M79.8008 127.655V118.561H81.3498V120.277H81.439V127.655H79.8008ZM84.0467 127.655V120.968C84.0467 120.567 83.9687 120.266 83.8016 120.065C83.6344 119.865 83.3892 119.776 83.0549 119.776C82.7206 119.776 82.4531 119.865 82.2079 120.032C81.9628 120.199 81.7733 120.433 81.6507 120.723C81.517 121.013 81.4501 121.347 81.4501 121.715L81.2384 120.199C81.4724 119.62 81.8067 119.174 82.2191 118.851C82.6314 118.539 83.1218 118.383 83.679 118.383C84.2808 118.383 84.7711 118.583 85.1277 118.995C85.4955 119.408 85.6738 119.976 85.6738 120.701V127.655H84.0467ZM88.2927 127.655V120.968C88.2927 120.567 88.2035 120.266 88.0475 120.065C87.8803 119.865 87.6352 119.776 87.3008 119.776C86.9665 119.776 86.6879 119.865 86.4427 120.021C86.2087 120.188 86.0193 120.422 85.8855 120.712C85.7518 121.001 85.6849 121.336 85.6849 121.715L85.3617 120.166C85.6181 119.575 85.9635 119.129 86.387 118.828C86.8105 118.527 87.3008 118.383 87.858 118.383C88.471 118.383 88.9725 118.583 89.3514 118.995C89.7303 119.408 89.9197 119.976 89.9197 120.701V127.655H88.2927Z" fill="#58595B"/>
<path d="M91.7812 116.711V114.816H93.6312V116.711H91.7812ZM91.8927 127.654V118.561H93.5309V127.654H91.8927Z" fill="#58595B"/>
<path d="M98.1762 127.833C97.5633 127.833 97.0172 127.644 96.5492 127.276C96.0811 126.897 95.7133 126.362 95.457 125.649C95.2007 124.936 95.0781 124.089 95.0781 123.086C95.0781 122.083 95.2119 121.236 95.4682 120.534C95.7245 119.832 96.1034 119.297 96.5826 118.929C97.0618 118.561 97.6302 118.372 98.2654 118.372C98.8337 118.372 99.3352 118.517 99.7587 118.795C100.182 119.074 100.505 119.486 100.739 120.021C100.973 120.556 101.085 121.214 101.085 121.983H99.5692C99.5692 121.225 99.4578 120.656 99.2349 120.289C99.012 119.921 98.7 119.731 98.2765 119.731C97.9533 119.731 97.6747 119.843 97.4518 120.066C97.2178 120.289 97.0395 120.656 96.9169 121.147C96.7943 121.637 96.7275 122.283 96.7275 123.086C96.7275 123.888 96.7943 124.512 96.9169 125.014C97.0395 125.515 97.2178 125.883 97.4407 126.117C97.6636 126.351 97.9311 126.474 98.2431 126.474C98.6443 126.474 98.9675 126.273 99.2015 125.883C99.4355 125.493 99.5581 124.936 99.5581 124.223H101.074C101.074 124.958 100.951 125.593 100.695 126.139C100.45 126.685 100.104 127.098 99.6695 127.387C99.2349 127.677 98.7334 127.822 98.1651 127.822L98.1762 127.833Z" fill="#58595B"/>
<path d="M15.2532 145.485V143.668L15.3758 143.78C15.242 144.393 14.9634 144.872 14.5511 145.184C14.1276 145.507 13.6373 145.663 13.0578 145.663C12.4783 145.663 11.9545 145.474 11.531 145.106C11.1075 144.738 10.7843 144.203 10.5726 143.523C10.3497 142.832 10.2383 142.008 10.2383 141.049C10.2383 140.091 10.3609 139.188 10.5949 138.464C10.8289 137.74 11.1744 137.182 11.609 136.792C12.0436 136.402 12.5674 136.213 13.1804 136.213C13.7153 136.213 14.1945 136.391 14.6291 136.725C15.0526 137.071 15.3089 137.572 15.3981 138.219L15.164 138.308V132.635H16.7911V145.474H15.2532V145.485ZM13.5927 144.281C14.1499 144.281 14.5734 144.003 14.8408 143.457C15.1195 142.91 15.2532 142.064 15.2532 140.927C15.2532 139.79 15.1083 138.965 14.8297 138.419C14.5511 137.884 14.1276 137.606 13.5704 137.606C13.0132 137.606 12.612 137.884 12.3334 138.43C12.0548 138.977 11.9099 139.824 11.9099 140.96C11.9099 142.097 12.0548 142.922 12.3334 143.468C12.6231 144.014 13.0355 144.281 13.5815 144.281H13.5927Z" fill="#58595B"/>
<path d="M21.7394 145.663C21.0262 145.663 20.4132 145.462 19.9118 145.05C19.4103 144.638 19.0202 144.08 18.7528 143.367C18.4853 142.654 18.3516 141.829 18.3516 140.904C18.3516 139.979 18.4853 139.166 18.7528 138.464C19.0202 137.762 19.4103 137.216 19.9118 136.814C20.4132 136.413 21.0262 136.213 21.7394 136.213C22.4526 136.213 23.0433 136.413 23.5448 136.814C24.0463 137.216 24.4363 137.762 24.7038 138.464C24.9712 139.166 25.105 139.979 25.105 140.904C25.105 141.829 24.9712 142.654 24.7149 143.367C24.4586 144.08 24.0685 144.638 23.5671 145.05C23.0656 145.462 22.4526 145.663 21.7394 145.663ZM21.7394 144.314C22.1072 144.314 22.4192 144.181 22.6644 143.913C22.9095 143.646 23.099 143.256 23.2327 142.754C23.3665 142.253 23.4333 141.629 23.4333 140.893C23.4333 139.812 23.2885 138.988 22.9987 138.419C22.709 137.851 22.2855 137.572 21.7394 137.572C21.1933 137.572 20.7587 137.851 20.469 138.419C20.1792 138.988 20.0343 139.812 20.0343 140.893C20.0343 141.629 20.1012 142.253 20.2349 142.754C20.3687 143.256 20.5581 143.646 20.8144 143.913C21.0708 144.181 21.3828 144.314 21.7506 144.314H21.7394Z" fill="#58595B"/>
<path d="M28.7789 145.663C27.9431 145.663 27.2968 145.406 26.8398 144.882C26.3829 144.37 26.1266 143.634 26.082 142.698H27.4862C27.5196 143.255 27.6534 143.679 27.8651 143.957C28.0768 144.236 28.4 144.381 28.8012 144.381C29.1244 144.381 29.3696 144.292 29.559 144.114C29.7485 143.935 29.8376 143.679 29.8376 143.345C29.8376 143.088 29.7708 142.832 29.637 142.587C29.5033 142.342 29.247 142.096 28.8569 141.851L27.8205 141.138C27.3525 140.826 26.9959 140.469 26.7507 140.057C26.5055 139.645 26.3718 139.165 26.3718 138.608C26.3718 137.906 26.5947 137.338 27.0293 136.892C27.4639 136.446 28.0434 136.223 28.7566 136.223C29.4699 136.223 30.0717 136.457 30.484 136.914C30.8963 137.371 31.1304 138.029 31.1749 138.898H29.7708C29.7485 138.408 29.6482 138.062 29.481 137.839C29.3139 137.616 29.0687 137.505 28.7455 137.505C28.4557 137.505 28.2329 137.594 28.0546 137.772C27.8763 137.951 27.7982 138.196 27.7982 138.519C27.7982 138.764 27.8651 139.009 27.9988 139.232C28.1326 139.455 28.3777 139.689 28.7232 139.923L29.8153 140.659C30.2388 140.949 30.5954 141.316 30.8629 141.762C31.1304 142.219 31.2641 142.72 31.2641 143.278C31.2641 144.002 31.0412 144.582 30.5954 145.016C30.1497 145.451 29.5367 145.663 28.7455 145.663H28.7789Z" fill="#58595B"/>
<path d="M35.5572 145.663C34.8997 145.663 34.3313 145.473 33.8521 145.094C33.3729 144.715 32.994 144.169 32.7377 143.467C32.4814 142.765 32.3477 141.929 32.3477 140.96C32.3477 139.99 32.4814 139.121 32.76 138.419C33.0386 137.717 33.4175 137.171 33.9301 136.792C34.4316 136.413 35.0334 136.223 35.7355 136.223C36.3707 136.223 36.8945 136.391 37.318 136.736C37.7415 137.082 38.0758 137.583 38.2987 138.274C38.5216 138.954 38.633 139.812 38.633 140.837C38.633 140.926 38.633 141.004 38.633 141.093C38.633 141.183 38.633 141.261 38.633 141.339H33.3952V140.124H37.6746L37.1731 140.781C37.1731 139.645 37.0505 138.809 36.8053 138.307C36.5602 137.795 36.1813 137.538 35.6686 137.538C35.156 137.538 34.7214 137.828 34.4428 138.408C34.1642 138.987 34.0193 139.845 34.0193 140.982C34.0193 142.119 34.153 142.943 34.4316 143.523C34.7102 144.102 35.1003 144.392 35.6241 144.392C36.0475 144.392 36.3819 144.236 36.627 143.924C36.8611 143.612 37.0059 143.177 37.0505 142.62H38.5438C38.4324 143.534 38.1315 144.281 37.6189 144.838C37.1062 145.406 36.4264 145.685 35.5683 145.685L35.5572 145.663Z" fill="#58595B"/>
<path d="M23.1328 212.383V200.347H25.9412L28.5489 210.645L27.9583 210.678V200.347H30.1314V212.383H27.323L24.7153 202.086L25.3059 202.052V212.383H23.1328Z" fill="#2C6B7A"/>
<path d="M35.1339 212.55C34.0195 212.55 33.1726 212.227 32.6042 211.57C32.0247 210.923 31.7461 210.032 31.7461 208.917V200.347H34.1198V209.475C34.1198 209.876 34.209 210.177 34.3984 210.377C34.5879 210.578 34.833 210.678 35.1451 210.678C35.4571 210.678 35.7134 210.578 35.8917 210.377C36.0701 210.177 36.1592 209.876 36.1592 209.475V200.347H38.5329V208.917C38.5329 210.032 38.2432 210.912 37.6748 211.57C37.0953 212.216 36.2595 212.55 35.1451 212.55H35.1339Z" fill="#2C6B7A"/>
<path d="M40.1406 212.383V200.347H42.5143V212.383H40.1406ZM41.3442 202.186V200.347H45.5567V202.186H41.3442ZM41.3442 207.079V205.273H45.3896V207.079H41.3442ZM41.3442 212.383V210.544H45.6904V212.383H41.3442Z" fill="#2C6B7A"/>
<path d="M47.1602 212.384V200.348H49.5339V212.384H47.1602ZM48.464 212.384V210.545H50.2025C50.6929 210.545 51.0941 210.4 51.395 210.11C51.6959 209.821 51.9299 209.364 52.0748 208.74C52.2196 208.116 52.2976 207.302 52.2976 206.299C52.2976 205.296 52.2196 204.527 52.0748 203.925C51.9299 203.324 51.707 202.878 51.395 202.599C51.0829 202.321 50.6929 202.176 50.2025 202.176H48.6646V200.337H50.2025C51.1275 200.337 51.9299 200.56 52.5985 201.017C53.2672 201.462 53.791 202.142 54.1476 203.034C54.5153 203.925 54.6937 205.017 54.6937 206.321C54.6937 207.625 54.5042 208.729 54.1364 209.631C53.7687 210.534 53.256 211.214 52.5874 211.682C51.9187 212.15 51.1275 212.373 50.2137 212.373H48.4529L48.464 212.384Z" fill="#2C6B7A"/>
<path d="M56.0312 212.383V200.347H58.405V212.383H56.0312ZM57.2348 202.186V200.347H61.4473V202.186H57.2348ZM57.2348 207.079V205.273H61.2802V207.079H57.2348ZM57.2348 212.383V210.544H61.5811V212.383H57.2348Z" fill="#2C6B7A"/>
<path d="M66.3846 207.781L64.6127 212.372H62.3281L65.5265 204.961L66.3958 207.769L66.3846 207.781ZM67.4545 212.383L65.4151 207.034L62.5733 200.347H65.0807L66.9418 205.24L69.9619 212.383H67.4545ZM65.9277 204.995L67.6662 200.347H69.9619L66.8081 207.803L65.9389 204.995H65.9277Z" fill="#2C6B7A"/>
<path d="M72.4705 212.383V202.186H70.2305V200.347H77.0842V202.186H74.8442V212.383H72.4705Z" fill="#2C6B7A"/>
<path d="M76.6836 212.383L79.0462 200.347H80.807L78.9124 212.383H76.6836ZM78.3218 207.948H82.8352V209.787H78.3218V207.948ZM82.0774 212.383L80.1829 200.347H82.0997L84.4623 212.383H82.0774Z" fill="#2C6B7A"/>
<path d="M22.8771 228.242V226.37C23.9023 225.523 24.7716 224.799 25.4625 224.197C26.1535 223.584 26.7107 223.049 27.1119 222.581C27.5242 222.113 27.814 221.69 27.9923 221.3C28.1706 220.91 28.2597 220.531 28.2597 220.141C28.2597 219.684 28.1371 219.327 27.892 219.071C27.6468 218.814 27.3125 218.692 26.8667 218.692C26.4209 218.692 26.0309 218.837 25.73 219.115C25.4291 219.394 25.2396 219.784 25.1728 220.274H22.7656C22.8771 219.216 23.3117 218.38 24.0584 217.767C24.805 217.154 25.7746 216.853 26.9559 216.853C28.1371 216.853 29.1067 217.165 29.7753 217.778C30.444 218.391 30.7895 219.26 30.7895 220.363C30.7895 220.887 30.7003 221.378 30.5331 221.857C30.366 222.336 30.0762 222.826 29.6862 223.339C29.2961 223.852 28.7501 224.409 28.0703 225.011C27.3905 225.612 26.5435 226.314 25.5182 227.095L24.9387 226.392H31.0123V228.231H22.8659L22.8771 228.242Z" fill="#2C6B7A"/>
<path d="M36.562 228.399C35.6259 228.399 34.7901 228.154 34.0546 227.652C33.319 227.162 32.7507 226.471 32.3272 225.591C31.9149 224.71 31.7031 223.707 31.7031 222.57C31.7031 221.434 31.9149 220.442 32.3272 219.584C32.7395 218.726 33.319 218.057 34.0546 217.567C34.7901 217.087 35.6259 216.842 36.562 216.842C37.4981 216.842 38.3451 217.087 39.0695 217.567C39.7938 218.046 40.3733 218.726 40.7857 219.584C41.198 220.442 41.4097 221.434 41.4097 222.57C41.4097 223.707 41.198 224.721 40.7857 225.602C40.3733 226.471 39.7938 227.162 39.0583 227.652C38.3228 228.143 37.487 228.399 36.5509 228.399H36.562ZM36.562 226.404C37.0969 226.404 37.5316 226.226 37.877 225.869C38.2225 225.512 38.4788 225.044 38.646 224.465C38.8131 223.885 38.8911 223.25 38.8911 222.559C38.8911 221.868 38.802 221.244 38.646 220.687C38.49 220.13 38.2225 219.673 37.877 219.35C37.5316 219.015 37.0969 218.848 36.562 218.848C36.0271 218.848 35.5925 219.015 35.247 219.361C34.9015 219.695 34.6452 220.152 34.478 220.709C34.3109 221.267 34.2329 221.891 34.2329 222.57C34.2329 223.25 34.3109 223.908 34.478 224.487C34.6452 225.067 34.9015 225.535 35.247 225.88C35.5925 226.226 36.0271 226.404 36.5509 226.404H36.562Z" fill="#2C6B7A"/>
<path d="M45.7891 228.243V220.286H48.0848V222.159H48.1293V228.243H45.7891ZM51.1383 228.243V223.184C51.1383 222.783 51.0268 222.482 50.8151 222.292C50.6034 222.103 50.3025 222.003 49.9124 222.003C49.5781 222.003 49.2772 222.081 48.9986 222.225C48.72 222.37 48.5083 222.593 48.3522 222.861C48.1962 223.139 48.1182 223.462 48.1182 223.841L47.9176 222.047C48.1739 221.468 48.5528 221 49.0543 220.654C49.5447 220.309 50.1465 220.13 50.8374 220.13C51.6732 220.13 52.3196 220.364 52.7765 220.832C53.2445 221.301 53.4674 221.891 53.4674 222.593V228.243H51.1271H51.1383ZM56.4875 228.243V223.184C56.4875 222.783 56.3761 222.482 56.1643 222.292C55.9526 222.103 55.6517 222.003 55.2617 222.003C54.9273 222.003 54.6264 222.081 54.3478 222.225C54.0692 222.37 53.8575 222.593 53.7015 222.861C53.5454 223.139 53.4674 223.462 53.4674 223.841L53.1108 222.047C53.3671 221.468 53.7572 221 54.2698 220.654C54.7824 220.309 55.4065 220.13 56.1309 220.13C56.989 220.13 57.6577 220.376 58.1257 220.855C58.5938 221.334 58.8167 221.969 58.8167 222.749V228.243H56.4764H56.4875Z" fill="#2C6B7A"/>
<path d="M64.2465 231.597C63.1432 231.597 62.2517 231.363 61.5496 230.895C60.8475 230.427 60.4463 229.792 60.3238 228.989H62.5415C62.6306 229.19 62.8089 229.335 63.0764 229.446C63.3438 229.558 63.7005 229.602 64.1351 229.602C64.8372 229.602 65.3609 229.468 65.6841 229.201C66.0073 228.933 66.1633 228.51 66.1633 227.942V226.214L66.2859 226.248C66.1856 226.827 65.8847 227.295 65.3832 227.63C64.8817 227.964 64.2688 228.142 63.5222 228.142C62.7755 228.142 62.196 227.975 61.6722 227.652C61.1484 227.329 60.7361 226.861 60.4463 226.27C60.1566 225.679 60.0117 224.977 60.0117 224.175C60.0117 223.373 60.1566 222.659 60.4686 222.058C60.7695 221.456 61.193 220.988 61.7391 220.653C62.2851 220.319 62.9204 220.152 63.6447 220.152C64.3691 220.152 65.0043 220.33 65.4835 220.687C65.9627 221.043 66.2302 221.523 66.3193 222.136H66.2079V220.308H68.5036V227.919C68.5036 229.067 68.1247 229.97 67.3669 230.627C66.6091 231.285 65.5727 231.619 64.2465 231.619V231.597ZM64.3357 226.326C64.8929 226.326 65.3387 226.136 65.673 225.757C66.0073 225.378 66.1856 224.832 66.1856 224.13C66.1856 223.428 66.0073 222.882 65.6618 222.503C65.3164 222.124 64.8595 221.935 64.2911 221.935C63.7227 221.935 63.3104 222.124 62.9538 222.514C62.6083 222.893 62.43 223.439 62.43 224.153C62.43 224.866 62.6083 225.401 62.9538 225.78C63.2993 226.159 63.7562 226.337 64.3134 226.337L64.3357 226.326Z" fill="#2C6B7A"/>
<path d="M3.81055 264.216V0.799561" stroke="#D1CECE" stroke-width="1.11442" stroke-miterlimit="10"/>
</g>
<defs>
<clipPath id="clip0_1083_3135">
<rect width="460" height="280.244" fill="white" transform="translate(0 0.799805)"/>
</clipPath>
</defs>
</svg>
