<svg width="36" height="48" viewBox="0 0 36 48" fill="none" xmlns="http://www.w3.org/2000/svg">
<g id="Layer_1" clip-path="url(#clip0_1171_21954)">
<path id="Vector" d="M8.06635 29.6854C4.86635 29.6854 2.25 27.0891 2.25 23.869C2.25 20.6489 4.84623 18.0527 8.06635 18.0527C11.2865 18.0527 13.8626 20.6489 13.8626 23.869C13.8626 27.0891 11.2664 29.6854 8.06635 29.6854Z" fill="#D2E390"/>
<path id="Vector_2" d="M8.06721 20.0855C10.1603 20.0855 11.871 21.7761 11.871 23.8893C11.871 26.0025 10.1804 27.6931 8.06721 27.6931C5.95401 27.6931 4.26344 26.0025 4.26344 23.8893C4.26344 21.7761 5.95401 20.0855 8.06721 20.0855ZM8.06721 16.0604C3.76029 16.0604 0.238281 19.5622 0.238281 23.8893C0.238281 28.2163 3.74017 31.7182 8.06721 31.7182C12.3943 31.7182 15.8961 28.2163 15.8961 23.8893C15.8961 19.5622 12.3943 16.0604 8.06721 16.0604Z" fill="#006171"/>
<path id="Vector_3" d="M14.9508 38.8021C13.6627 38.8021 12.5357 38.3795 11.7306 37.5543C10.8854 36.709 10.4023 35.582 10.4023 34.4147C10.4023 33.2474 10.8652 32.1405 11.7306 31.2751C15.6954 27.3103 15.6954 20.7292 11.7105 16.6235C9.9797 14.8927 9.9797 12.1354 11.7306 10.3644C12.5759 9.51909 13.703 9.03607 14.8703 9.03607C16.0376 9.03607 17.1445 9.49897 18.0099 10.3644C25.4766 17.831 25.4967 29.9266 18.1105 37.4336C17.4262 38.3191 16.3193 38.782 14.9508 38.782V38.8021Z" fill="#D2E390"/>
<path id="Vector_4" d="M14.8683 11.0489C15.4721 11.0489 16.096 11.2904 16.579 11.7935C23.2809 18.4954 23.2809 29.4439 16.579 36.1256C16.257 36.6086 15.5929 36.7696 14.9488 36.7696C14.3048 36.7696 13.6407 36.6086 13.1577 36.1256C12.1715 35.1395 12.1715 33.6703 13.1577 32.7042C17.8872 27.9747 17.8872 20.1256 13.1577 15.2149C12.1715 14.2288 12.1715 12.7596 13.1577 11.7935C13.6407 11.3105 14.2646 11.0489 14.8683 11.0489ZM14.8683 7.02373C13.1577 7.02373 11.5476 7.708 10.2998 8.93568C7.74382 11.4917 7.74382 15.4967 10.2998 18.0527C13.4797 21.3332 13.4998 26.6464 10.2998 29.8464C7.74382 32.4023 7.74382 36.4074 10.2998 38.9634C11.1451 39.8086 12.6143 40.7948 14.9488 40.7948C16.8809 40.7948 18.5514 40.0703 19.618 38.7621C23.5023 34.7772 25.6356 29.5244 25.6356 23.9294C25.6356 18.3344 23.4419 12.9206 19.4369 8.91555C18.2092 7.68788 16.579 7.0036 14.8683 7.0036V7.02373Z" fill="#006171"/>
<path id="Vector_5" d="M22.1344 45.9872C20.8463 45.9872 19.7193 45.5645 18.9142 44.7394C18.069 43.8941 17.5859 42.767 17.5859 41.5997C17.5859 40.4325 18.0488 39.3054 18.9142 38.4601C26.723 30.6513 26.723 17.4287 18.9142 9.61988C18.069 8.77459 17.5859 7.64755 17.5859 6.48025C17.5859 5.31296 18.0488 4.18591 18.9142 3.34063C19.7595 2.49535 20.8866 2.01233 22.0539 2.01233C23.2212 2.01233 24.3482 2.47522 25.1935 3.34063C36.6048 14.752 36.6048 33.328 25.1935 44.7394L24.8916 45.001C24.308 45.4035 23.4023 45.9872 22.1545 45.9872H22.1344Z" fill="#D2E390"/>
<path id="Vector_6" d="M22.0519 4.0251C22.6557 4.0251 23.2796 4.2666 23.7626 4.76975C34.389 15.3962 34.389 32.7043 23.7626 43.3308C23.2796 43.6528 22.7765 43.9748 22.1324 43.9748C21.4884 43.9748 20.8243 43.8138 20.3412 43.3308C19.3551 42.3446 19.3551 40.8754 20.3412 39.9094C28.9953 31.2553 28.9953 16.8653 20.3412 8.21126C19.3551 7.2251 19.3551 5.75591 20.3412 4.78988C20.8243 4.30686 21.4482 4.04522 22.0519 4.04522M22.0519 -6.10352e-05C20.3412 -6.10352e-05 18.7312 0.684216 17.4834 1.91189C14.9274 4.46786 14.9274 8.47289 17.4834 11.0289C20.9048 14.4503 22.7966 19.0792 22.7966 24.0301C22.7966 28.9811 20.9048 33.61 17.4834 37.0314C14.9274 39.5874 14.9274 43.5924 17.4834 46.1484C18.3287 46.9936 19.7979 47.9798 22.1324 47.9798C24.0041 47.9798 25.2922 47.1144 25.9966 46.6515C26.218 46.5106 26.4192 46.3295 26.6004 46.1484C32.4972 40.2515 35.7375 32.4025 35.7375 24.0301C35.7375 15.6578 32.5173 7.80874 26.6205 1.91189C25.3928 0.684216 23.7626 -6.10352e-05 22.0519 -6.10352e-05Z" fill="#006171"/>
<path id="Vector_7" d="M14.9508 38.8021C13.6627 38.8021 12.5357 38.3795 11.7306 37.5543C10.8854 36.709 10.4023 35.582 10.4023 34.4147C10.4023 33.2474 10.8652 32.1405 11.7306 31.2751C15.6954 27.3103 15.6954 20.7292 11.7105 16.6235C9.9797 14.8927 9.9797 12.1354 11.7306 10.3644C12.5759 9.51909 13.703 9.03607 14.8703 9.03607C16.0376 9.03607 17.1445 9.49897 18.0099 10.3644C25.4766 17.831 25.4967 29.9266 18.1105 37.4336C17.4262 38.3191 16.3193 38.782 14.9508 38.782V38.8021Z" fill="#D2E390"/>
<path id="Vector_8" d="M14.8683 11.0489C15.4721 11.0489 16.096 11.2904 16.579 11.7935C23.2809 18.4954 23.2809 29.4439 16.579 36.1256C16.257 36.6086 15.5929 36.7696 14.9488 36.7696C14.3048 36.7696 13.6407 36.6086 13.1577 36.1256C12.1715 35.1395 12.1715 33.6703 13.1577 32.7042C17.8872 27.9747 17.8872 20.1256 13.1577 15.2149C12.1715 14.2288 12.1715 12.7596 13.1577 11.7935C13.6407 11.3105 14.2646 11.0489 14.8683 11.0489ZM14.8683 7.02373C13.1577 7.02373 11.5476 7.708 10.2998 8.93568C7.74382 11.4917 7.74382 15.4967 10.2998 18.0527C13.4797 21.3332 13.4998 26.6464 10.2998 29.8464C7.74382 32.4023 7.74382 36.4074 10.2998 38.9634C11.1451 39.8086 12.6143 40.7948 14.9488 40.7948C16.8809 40.7948 18.5514 40.0703 19.618 38.7621C23.5023 34.7772 25.6356 29.5244 25.6356 23.9294C25.6356 18.3344 23.4419 12.9206 19.4369 8.91555C18.2092 7.68788 16.579 7.0036 14.8683 7.0036V7.02373Z" fill="#006171"/>
<path id="Vector_9" d="M22.1344 45.9872C20.8463 45.9872 19.7193 45.5645 18.9142 44.7394C18.069 43.8941 17.5859 42.767 17.5859 41.5997C17.5859 40.4325 18.0488 39.3054 18.9142 38.4601C26.723 30.6513 26.723 17.4287 18.9142 9.61988C18.069 8.77459 17.5859 7.64755 17.5859 6.48025C17.5859 5.31296 18.0488 4.18591 18.9142 3.34063C19.7595 2.49535 20.8866 2.01233 22.0539 2.01233C23.2212 2.01233 24.3482 2.47522 25.1935 3.34063C36.6048 14.752 36.6048 33.328 25.1935 44.7394L24.8916 45.001C24.308 45.4035 23.4023 45.9872 22.1545 45.9872H22.1344Z" fill="#D2E390"/>
<path id="Vector_10" d="M22.0519 4.0251C22.6557 4.0251 23.2796 4.2666 23.7626 4.76975C34.389 15.3962 34.389 32.7043 23.7626 43.3308C23.2796 43.6528 22.7765 43.9748 22.1324 43.9748C21.4884 43.9748 20.8243 43.8138 20.3412 43.3308C19.3551 42.3446 19.3551 40.8754 20.3412 39.9094C28.9953 31.2553 28.9953 16.8653 20.3412 8.21126C19.3551 7.2251 19.3551 5.75591 20.3412 4.78988C20.8243 4.30686 21.4482 4.04522 22.0519 4.04522M22.0519 -6.10352e-05C20.3412 -6.10352e-05 18.7312 0.684216 17.4834 1.91189C14.9274 4.46786 14.9274 8.47289 17.4834 11.0289C20.9048 14.4503 22.7966 19.0792 22.7966 24.0301C22.7966 28.9811 20.9048 33.61 17.4834 37.0314C14.9274 39.5874 14.9274 43.5924 17.4834 46.1484C18.3287 46.9936 19.7979 47.9798 22.1324 47.9798C24.0041 47.9798 25.2922 47.1144 25.9966 46.6515C26.218 46.5106 26.4192 46.3295 26.6004 46.1484C32.4972 40.2515 35.7375 32.4025 35.7375 24.0301C35.7375 15.6578 32.5173 7.80874 26.6205 1.91189C25.3928 0.684216 23.7626 -6.10352e-05 22.0519 -6.10352e-05Z" fill="#006171"/>
</g>
<defs>
<clipPath id="clip0_1171_21954">
<rect width="35.522" height="48" fill="white" transform="translate(0.238281)"/>
</clipPath>
</defs>
</svg>
