<svg width="48" height="48" viewBox="0 0 48 48" fill="none" xmlns="http://www.w3.org/2000/svg">
<g clip-path="url(#clip0_1171_21942)">
<path d="M7.64974 35.0275C7.0832 34.9885 6.55573 34.6954 6.22361 34.2266C3.64486 30.7101 2.29688 26.5684 2.29688 22.251C2.29687 11.0568 11.4007 1.95306 22.6143 1.95306C26.9318 1.95306 31.0734 3.32059 34.5899 5.8798C35.0588 6.21192 35.3323 6.73939 35.3909 7.30593C35.4495 7.87248 35.2346 8.43902 34.8243 8.82974L30.7804 12.8737C30.4092 13.2449 29.9013 13.4402 29.3933 13.4402C29.0417 13.4402 28.6705 13.3426 28.3579 13.1472C26.6388 12.0532 24.6461 11.4866 22.6339 11.4866C16.6949 11.4866 11.8695 16.312 11.8695 22.251C11.8695 24.2827 12.4361 26.2559 13.5301 27.975C14.0185 28.7565 13.9013 29.7528 13.2566 30.3975L9.21263 34.4415C8.84144 34.8126 8.35304 35.008 7.82557 35.008H7.66928L7.64974 35.0275Z" fill="#D2E390"/>
<path d="M22.6148 3.90714C26.6588 3.90714 30.3902 5.23559 33.4378 7.4627L29.3938 11.5067C27.4207 10.2759 25.1154 9.53352 22.6148 9.53352C15.5818 9.53352 9.89686 15.238 9.89686 22.2515C9.89686 24.7521 10.6197 27.0573 11.87 29.0305L7.82605 33.0744C5.59894 30.0463 4.27049 26.2954 4.27049 22.2515C4.25095 12.1318 12.4756 3.90714 22.6148 3.90714ZM22.6148 -6.10352e-05C10.3267 -6.10352e-05 0.34375 9.98284 0.34375 22.271C0.34375 27.0183 1.82849 31.5506 4.64167 35.3992C5.3059 36.3174 6.36084 36.9035 7.49393 36.9816H7.78697C8.82238 36.9816 9.81872 36.5909 10.5416 35.8485L14.5855 31.8046C15.8749 30.5152 16.1093 28.503 15.1325 26.9596C14.2339 25.5531 13.765 23.9316 13.765 22.271C13.765 17.4065 17.7113 13.4603 22.5757 13.4603C24.2363 13.4603 25.8578 13.9291 27.2644 14.8278C27.9091 15.238 28.6319 15.4334 29.3547 15.4334C30.3706 15.4334 31.367 15.0427 32.1093 14.2808L36.1533 10.2368C36.9543 9.43584 37.3645 8.30275 37.2864 7.16966C37.2082 6.03657 36.6221 4.98162 35.7039 4.3174C31.8554 1.50421 27.323 -6.10352e-05 22.5757 -6.10352e-05H22.6148Z" fill="#006171"/>
<path d="M25.3876 46.0463C21.0702 46.0463 16.9285 44.6788 13.4121 42.1196C12.9432 41.7875 12.6697 41.26 12.6111 40.6935C12.5525 40.1269 12.7674 39.5604 13.1776 39.1697L17.2216 35.1257C17.5928 34.7545 18.1007 34.5592 18.6086 34.5592C18.9603 34.5592 19.3315 34.6568 19.644 34.8522C21.3828 35.9462 23.3559 36.5128 25.3876 36.5128C31.3266 36.5128 36.152 31.6874 36.152 25.7484C36.152 23.7167 35.5854 21.7435 34.4914 20.0048C34.003 19.2234 34.1202 18.2271 34.7649 17.5824L38.8089 13.5384C39.1801 13.1672 39.6685 12.9719 40.1959 12.9719H40.3522C40.9188 13.0305 41.4462 13.304 41.7784 13.7728C44.3571 17.2893 45.7051 21.431 45.7051 25.7484C45.7051 36.9426 36.6013 46.0659 25.3876 46.0659V46.0463Z" fill="#D2E390"/>
<path d="M40.1963 14.9255C42.4234 17.9535 43.7519 21.7045 43.7519 25.7484C43.7519 35.8876 35.5272 44.1123 25.388 44.1123C21.3441 44.1123 17.6127 42.7838 14.5651 40.5567L18.609 36.5128C20.5822 37.7435 22.8874 38.4859 25.388 38.4859C32.421 38.4859 38.106 32.7814 38.106 25.7679C38.106 23.2673 37.3831 20.9621 36.1328 18.9889L40.1768 14.945M40.1963 11.0182C39.1609 11.0182 38.1646 11.4285 37.4417 12.1709L33.3978 16.2148C32.1084 17.5042 31.874 19.5164 32.8508 21.0598C33.7494 22.4664 34.2183 24.0878 34.2183 25.7484C34.2183 30.6129 30.272 34.5592 25.4075 34.5592C23.747 34.5592 22.1255 34.0903 20.7189 33.1916C20.0742 32.7814 19.3514 32.586 18.6286 32.586C17.6127 32.586 16.6163 32.9767 15.874 33.7386L11.83 37.7826C11.029 38.5836 10.6188 39.7167 10.6969 40.8498C10.7751 41.9828 11.3612 43.0378 12.2793 43.702C16.1279 46.5152 20.6603 48.0195 25.4075 48.0195C37.6762 48.0195 47.6786 38.0366 47.6786 25.7484C47.6786 21.0012 46.1939 16.4688 43.3807 12.6202C42.7165 11.702 41.6615 11.1159 40.5284 11.0378H40.2354L40.1963 11.0182Z" fill="#006171"/>
</g>
<defs>
<clipPath id="clip0_1171_21942">
<rect width="47.3162" height="48" fill="white" transform="translate(0.34375)"/>
</clipPath>
</defs>
</svg>
