<svg width="50" height="33" viewBox="0 0 50 33" fill="none" xmlns="http://www.w3.org/2000/svg">
<g clip-path="url(#clip0_111_2287)">
<path d="M43.8647 2.26349H6.13402C3.86267 2.26349 2.02734 4.09882 2.02734 6.37016V26.2546C2.02734 28.5259 3.86267 30.3612 6.13402 30.3612H43.8647C46.136 30.3612 47.9714 28.5259 47.9714 26.2546V6.37016C47.9714 4.09882 46.136 2.26349 43.8647 2.26349Z" fill="#D2E390"/>
<path d="M43.8631 1.25122H6.13238C3.30432 1.25122 1.01172 3.54382 1.01172 6.37189V26.2563C1.01172 29.0844 3.30432 31.3769 6.13238 31.3769H43.8631C46.6911 31.3769 48.9837 29.0844 48.9837 26.2563V6.37189C48.9837 3.54382 46.6911 1.25122 43.8631 1.25122Z" fill="#D2E390"/>
<path d="M43.8614 2.26462C46.1328 2.26462 47.9681 4.09995 47.9681 6.37129V26.2557C47.9681 28.527 46.1328 30.3624 43.8614 30.3624H6.13075C3.85941 30.3624 2.02408 28.527 2.02408 26.2557V6.37129C2.02408 4.09995 3.85941 2.26462 6.13075 2.26462H43.8614ZM43.8614 0.236633H6.13075C2.74402 0.236633 -0.00390625 2.98455 -0.00390625 6.37129V26.2557C-0.00390625 29.6424 2.74402 32.3904 6.13075 32.3904H43.8614C47.2482 32.3904 49.9961 29.6424 49.9961 26.2557V6.37129C49.9961 2.98455 47.2482 0.236633 43.8614 0.236633Z" fill="#006171"/>
<path d="M25.0139 13.4377C23.7565 13.4377 22.5803 12.8902 21.7894 11.937C20.6638 10.5783 20.5219 8.58072 21.4548 7.08001C22.2051 5.86322 23.574 5.10272 25.0139 5.10272C25.2877 5.10272 25.5614 5.13314 25.8251 5.18384C27.7618 5.5793 29.1713 7.29295 29.1713 9.27023C29.1713 11.0143 28.0761 12.586 26.4538 13.1842C25.9975 13.3566 25.5107 13.4377 25.024 13.4377H25.0139Z" fill="#D2E390"/>
<path d="M25.0155 6.11704C25.2183 6.11704 25.4211 6.13732 25.6239 6.17788C27.084 6.47193 28.1588 7.77998 28.1588 9.27055C28.1588 10.5786 27.3274 11.7853 26.1004 12.2314C25.7455 12.3632 25.3805 12.4241 25.0155 12.4241C24.0927 12.4241 23.1801 12.0185 22.5717 11.2884C21.7098 10.2541 21.6084 8.75342 22.3182 7.60761C22.8962 6.67473 23.9406 6.11704 25.0155 6.11704ZM25.0155 4.08905C23.2207 4.08905 21.5273 5.03206 20.5944 6.54291C19.4182 8.43908 19.5906 10.8625 21.0102 12.5863C21.9938 13.7727 23.4539 14.4521 25.0155 14.4521C25.6239 14.4521 26.2221 14.3507 26.8001 14.1377C28.8281 13.3874 30.1868 11.4405 30.1868 9.27055C30.1868 6.80655 28.4326 4.67717 26.0294 4.19045C25.705 4.11947 25.3602 4.08905 25.0256 4.08905H25.0155Z" fill="#006171"/>
<path d="M26.7802 8.82449H25.4417V7.48602H24.5494V8.82449H23.2109V9.71681H24.5494V11.0553H25.4417V9.71681H26.7802V8.82449Z" fill="#056272"/>
<path d="M47.04 3.76434L26.101 17.9805C25.4521 18.5281 24.509 18.5281 23.8601 17.9805L2.94141 3.78462" stroke="#006171" stroke-width="2.02799" stroke-linecap="round" stroke-linejoin="round"/>
<path d="M2.94141 28.8403L19.8345 15.2224" stroke="#006171" stroke-width="2.02799" stroke-linecap="round" stroke-linejoin="round"/>
<path d="M47.0416 28.8403L30.1484 15.2224" stroke="#006171" stroke-width="2.02799" stroke-linecap="round" stroke-linejoin="round"/>
</g>
<defs>
<clipPath id="clip0_111_2287">
<rect width="50" height="32.1537" fill="white" transform="translate(0 0.23645)"/>
</clipPath>
</defs>
</svg>
