<svg width="24" height="12" viewBox="0 0 24 12" fill="none" xmlns="http://www.w3.org/2000/svg">
<path id="Union" fill-rule="evenodd" clip-rule="evenodd" d="M18.5454 1.27271C18.2614 1.55673 18.0312 1.78699 18.0312 1.78699L21.5169 5.27273H0C0 5.27273 2.29233e-05 5.59834 2.28881e-05 6C2.2853e-05 6.40166 2.28881e-05 6.72727 2.28881e-05 6.72727H21.5169L18.0312 10.213C18.0312 10.213 18.2614 10.4433 18.5454 10.7273C18.8295 11.0113 19.0597 11.2415 19.0597 11.2415L23.787 6.51426C24.071 6.23024 24.071 5.76976 23.787 5.48574L19.0597 0.758476C19.0597 0.758476 18.8295 0.988691 18.5454 1.27271Z" fill="white"/>
</svg>
