<svg width="104" height="104" viewBox="0 0 104 104" fill="none" xmlns="http://www.w3.org/2000/svg">
<mask id="mask0_466_23769" style="mask-type:alpha" maskUnits="userSpaceOnUse" x="0" y="0" width="104" height="104">
<rect y="0.529297" width="103.059" height="103.059" fill="#D9D9D9"/>
</mask>
<g mask="url(#mask0_466_23769)">
<path d="M51.9791 89.847C46.8137 89.847 41.9566 88.8669 37.4078 86.9065C32.859 84.9461 28.9022 82.2856 25.5373 78.9251C22.1725 75.5644 19.5087 71.6126 17.5458 67.0695C15.583 62.5265 14.6016 57.6723 14.6016 52.5069C14.6016 47.3415 15.5817 42.4844 17.5421 37.9357C19.5025 33.3868 22.163 29.43 25.5235 26.0652C28.8842 22.7004 32.836 20.0365 37.3791 18.0737C41.9221 16.1108 46.7763 15.1294 51.9417 15.1294C57.1071 15.1294 61.9642 16.1096 66.5129 18.0699C71.0618 20.0303 75.0186 22.6908 78.3834 26.0514C81.7483 29.412 84.4121 33.3639 86.3749 37.9069C88.3378 42.4499 89.3192 47.3041 89.3192 52.4695C89.3192 57.6349 88.339 62.492 86.3787 67.0408C84.4183 71.5896 81.7578 75.5464 78.3972 78.9113C75.0366 82.2761 71.0847 84.9399 66.5417 86.9028C61.9987 88.8656 57.1445 89.847 51.9791 89.847Z" fill="white" fill-opacity="0.8"/>
<path d="M66.1308 52.4885L44.0161 66.659V38.3179L66.1308 52.4885Z" fill="#A7C7D2"/>
</g>
</svg>
