<svg width="50" height="78" viewBox="0 0 50 78" fill="none" xmlns="http://www.w3.org/2000/svg">
<g clip-path="url(#clip0_7157_1586)">
<path d="M38.6904 10.0151V17.2134L39.6963 17.3208C44.6894 17.8524 48.6141 21.9604 48.8623 27.0337L48.875 27.5278V71.2583C48.8701 74.0611 46.5999 76.3305 43.7969 76.3345H6.2041C3.48874 76.3318 1.27149 74.2002 1.13184 71.5181L1.125 71.2563V27.5278C1.13369 22.2267 5.15215 17.8662 10.3096 17.3188L11.3154 17.2124V10.0151H38.6904Z" fill="#D2E390" stroke="#006171" stroke-width="2.25"/>
<path d="M7.46289 1.46484H42.5449C42.5887 1.46484 42.625 1.50109 42.625 1.54492V10.542C42.625 10.5858 42.5887 10.6221 42.5449 10.6221H7.46289C7.41908 10.6221 7.38283 10.5858 7.38281 10.542V1.54492C7.38281 1.5011 7.41907 1.46484 7.46289 1.46484Z" fill="#D2E390" stroke="#006171" stroke-width="2.25"/>
<path d="M2.20864 67.0196H47.8016L47.8033 67.0212M2.20703 26.5742H47.8033" stroke="#006171" stroke-width="2.25" stroke-miterlimit="10"/>
</g>
<defs>
<clipPath id="clip0_7157_1586">
<rect width="50" height="77.12" fill="white" transform="translate(0 0.340332)"/>
</clipPath>
</defs>
</svg>
