<svg width="14" height="11" viewBox="0 0 14 11" fill="none" xmlns="http://www.w3.org/2000/svg">
<path fill-rule="evenodd" clip-rule="evenodd" d="M9.22731 1.36359C8.97877 1.6121 8.77733 1.81359 8.77733 1.81359L11.8274 4.86362H0C0 4.86362 2.00579e-05 5.14853 2.00272e-05 5.49998C1.99964e-05 5.85143 2.00272e-05 6.13634 2.00272e-05 6.13634H11.8274L8.77733 9.18637C8.77733 9.18637 8.97877 9.38786 9.22731 9.63638C9.47584 9.88489 9.67728 10.0863 9.67728 10.0863L13.8137 5.94996C14.0622 5.70144 14.0622 5.29852 13.8137 5.05L9.67728 0.913635C9.67728 0.913635 9.47584 1.11507 9.22731 1.36359Z" fill="#D1EA8D"/>
</svg>
