<svg width="191" height="55" viewBox="0 0 191 55" fill="none" xmlns="http://www.w3.org/2000/svg">
<g id="atom/logo/ko" clip-path="url(#clip0_197_3921)">
<path id="Vector" d="M0.0259864 32.0453C0.0259864 29.1335 1.16939 26.8608 3.2483 25.2747L3.6381 26.0796C2.74441 26.8393 2.04053 27.7652 1.57422 28.7945C1.10792 29.8239 0.890087 30.9325 0.93551 32.0453C0.93551 34.5784 1.87102 36.4722 3.6381 38.011L3.2483 38.8159C2.18263 37.984 1.33871 36.942 0.780435 35.769C0.222161 34.596 -0.0358335 33.3226 0.0259864 32.0453ZM8.39361 32.4951V32.4714C8.39361 30.5776 7.32816 29.3229 6.21075 29.3229C5.04136 29.3229 4.07986 30.5065 4.07986 32.4714V32.4951C4.07986 34.4363 5.06735 35.6674 6.21075 35.6674C7.32816 35.6674 8.39361 34.389 8.39361 32.4951ZM3.17034 32.5188V32.4951C3.17034 29.82 4.59959 28.2339 6.05483 28.2339C7.17225 28.2339 7.89987 29.0625 8.36762 29.9857V25.038H9.27714V36.5906H8.36762V34.9335C7.87388 35.9041 7.17225 36.7563 6.05483 36.7563C4.59959 36.7563 3.17034 35.2176 3.17034 32.5188ZM14.9942 32.0453C14.8902 30.5539 14.2665 29.2518 13.0712 29.2518C12.0317 29.2518 11.2261 30.4355 11.1222 32.0453H14.9942ZM10.2127 32.5188V32.4951C10.2127 30.1278 11.434 28.2339 13.0971 28.2339C14.8902 28.2339 15.9037 30.1751 15.9037 32.5661V32.9686H11.1222C11.2521 34.7441 12.1616 35.7384 13.2531 35.7384C14.0846 35.7384 14.6563 35.2886 15.1501 34.5784L15.7218 35.2649C15.1241 36.1882 14.3705 36.8037 13.2531 36.8037C11.5639 36.78 10.2127 35.0518 10.2127 32.5188ZM18.8401 31.5955L20.6332 28.3996H21.6467L19.3599 32.4004L21.7246 36.5906H20.6852L18.8142 33.229L16.9431 36.5906H15.9297L18.2944 32.4241L16.0336 28.3996H17.0471L18.8401 31.5955ZM22.946 34.4127V29.4649H22.1144V28.3996H22.946V25.9376H23.8555V28.3996H25.7525V29.4649H23.8555V34.2469C23.8555 35.2412 24.2713 35.62 24.869 35.62C25.1808 35.62 25.4407 35.549 25.7525 35.3359V36.3776C25.4439 36.606 25.0587 36.7313 24.6611 36.7327C23.6736 36.7327 22.946 36.0935 22.946 34.4127ZM26.4801 28.3996H27.3897V30.5302C27.8314 29.1571 28.715 28.1865 29.8584 28.2576V29.5833H29.7804C28.4551 29.5833 27.3897 30.8616 27.3897 33.3474V36.6143H26.4801V28.3996ZM35.2635 32.5425V32.5188C35.2635 30.7669 34.302 29.3229 33.0287 29.3229C31.7294 29.3229 30.8199 30.7669 30.8199 32.4951V32.5188C30.8199 34.2706 31.7814 35.691 33.0547 35.691C34.354 35.691 35.2635 34.2706 35.2635 32.5425ZM29.8844 32.5425V32.5188C29.8844 30.1988 31.2097 28.2339 33.0287 28.2339C34.8218 28.2339 36.1731 30.1751 36.1731 32.4714V32.4951C36.1731 34.8151 34.8218 36.78 33.0287 36.78C31.2097 36.78 29.8844 34.8388 29.8844 32.5425ZM37.1086 28.3996H38.0181V29.7727C38.4079 28.9678 38.9536 28.2102 39.9671 28.2102C40.9546 28.2102 41.5782 28.9204 41.8901 29.8437C42.3318 28.9441 42.9555 28.2102 44.021 28.2102C45.3982 28.2102 46.2558 29.4886 46.2558 31.5008V36.5669H45.3463V31.7849C45.3463 30.1988 44.7746 29.3229 43.7871 29.3229C42.8776 29.3229 42.124 30.2461 42.124 31.8559V36.5669H41.2144V31.7612C41.2144 30.2225 40.6167 29.3229 39.6552 29.3229C38.6937 29.3229 37.9661 30.3882 37.9661 31.9033V36.5669H37.0566V28.3996M51.9468 32.0453C51.8429 30.5539 51.2192 29.2518 50.0238 29.2518C48.9844 29.2518 48.1788 30.4355 48.0748 32.0453H51.9468ZM47.1653 32.5188V32.4951C47.1653 30.1278 48.3867 28.2339 50.0498 28.2339C51.8429 28.2339 52.8563 30.1751 52.8563 32.5661V32.9686H48.0748C48.2048 34.7441 49.1143 35.7384 50.2057 35.7384C51.0373 35.7384 51.609 35.2886 52.1027 34.5784L52.6744 35.2649C52.0767 36.1882 51.3231 36.8037 50.2057 36.8037C48.5166 36.78 47.1653 35.0518 47.1653 32.5188ZM53.9218 34.4127V29.4649H53.0902V28.3996H53.9218V25.9376H54.8313V28.3996H56.7543V29.4649H54.8313V34.2469C54.8313 35.2412 55.2471 35.62 55.8448 35.62C56.1566 35.62 56.4165 35.549 56.7283 35.3359V36.3776C56.4197 36.606 56.0345 36.7313 55.6369 36.7327C54.6494 36.7327 53.9218 36.0935 53.9218 34.4127ZM57.4559 25.038H58.3654V29.8437C58.7552 28.9678 59.3789 28.2339 60.4184 28.2339C61.8736 28.2339 62.7312 29.5596 62.7312 31.5008V36.5906H61.8216V31.8086C61.8216 30.2935 61.224 29.3465 60.1585 29.3465C59.1191 29.3465 58.3654 30.3645 58.3654 31.9033V36.5906H57.4559V25.038ZM68.9419 32.5425V32.5188C68.9419 30.7669 67.9804 29.3229 66.7071 29.3229C65.4078 29.3229 64.4982 30.7669 64.4982 32.4951V32.5188C64.4982 34.2706 65.4597 35.691 66.7331 35.691C68.0324 35.691 68.9419 34.2706 68.9419 32.5425ZM63.5887 32.5425V32.5188C63.5887 30.1988 64.914 28.2339 66.7331 28.2339C68.5261 28.2339 69.8774 30.1751 69.8774 32.4714V32.4951C69.8774 34.8151 68.5261 36.78 66.7331 36.78C64.888 36.78 63.5887 34.8388 63.5887 32.5425ZM70.7869 28.3996H71.6965V30.5302C72.1382 29.1571 73.0218 28.1865 74.1652 28.2576V29.5833H74.0872C72.7619 29.5833 71.6965 30.8616 71.6965 33.3474V36.6143H70.7869V28.3996ZM79.9342 32.5188V32.4951C79.9342 30.5539 78.9467 29.3229 77.8033 29.3229C76.6859 29.3229 75.6204 30.6012 75.6204 32.4714V32.4951C75.6204 34.389 76.6859 35.6674 77.8033 35.6674C78.9727 35.6674 79.9342 34.5074 79.9342 32.5188ZM74.7629 28.3996H75.6724V30.0567C76.1661 29.0861 76.8678 28.2339 77.9852 28.2339C79.4404 28.2339 80.8697 29.7963 80.8697 32.4714V32.4951C80.8697 35.1702 79.4404 36.7563 77.9852 36.7563C76.8678 36.7563 76.1401 35.9278 75.6724 35.0045V39.1H74.7629V28.3996ZM81.8052 25.038H82.7147V29.8437C83.1045 28.9678 83.7282 28.2339 84.7676 28.2339C86.2229 28.2339 87.0804 29.5596 87.0804 31.5008V36.5906H86.1709V31.8086C86.1709 30.2935 85.5732 29.3465 84.5078 29.3465C83.4683 29.3465 82.7147 30.3645 82.7147 31.9033V36.5906H81.8052V25.038ZM92.3037 33.5841V32.8029C91.8619 32.6371 91.2642 32.4478 90.5366 32.4478C89.4192 32.4478 88.7695 33.1106 88.7695 34.1523V34.1759C88.7695 35.1939 89.4712 35.8094 90.2767 35.8094C91.3942 35.8094 92.3037 34.8861 92.3037 33.5841ZM87.86 34.2233V34.1996C87.86 32.4714 88.8995 31.5482 90.4327 31.5482C91.2123 31.5482 91.758 31.6902 92.2777 31.9033V31.6192C92.2777 30.1514 91.6021 29.3939 90.4846 29.3939C89.783 29.3939 89.2113 29.6543 88.6656 29.9857L88.4057 28.9914C89.0814 28.589 89.731 28.3049 90.5886 28.3049C91.4461 28.3049 92.0958 28.6127 92.5376 29.2045C92.9533 29.749 93.1612 30.5539 93.1612 31.5955V36.5906H92.3037V35.3596C91.8879 36.0935 91.1863 36.78 90.1208 36.78C89.0034 36.7563 87.86 35.9041 87.86 34.2233ZM94.4086 28.3996H95.3181V29.82C95.7079 28.9441 96.3316 28.2102 97.371 28.2102C98.8263 28.2102 99.6838 29.5359 99.6838 31.4771V36.5669H98.7743V31.7849C98.7743 30.2698 98.1766 29.3229 97.1112 29.3229C96.0717 29.3229 95.3181 30.3408 95.3181 31.8796V36.5669H94.4086V28.3996ZM104.231 25.5114H105.141V30.4355H109.845V25.5114H110.754V36.5906H109.845V31.5955H105.141V36.5906H104.231V25.5114ZM116.003 31.5482H113.431V35.4543H116.159C117.407 35.4543 118.16 34.7204 118.16 33.4657V33.442C118.186 32.2584 117.433 31.5482 116.003 31.5482ZM117.718 28.4233C117.718 27.3343 117.069 26.6241 115.925 26.6241H113.457V30.4355H115.873C116.991 30.4355 117.744 29.749 117.744 28.4469V28.4233H117.718ZM112.521 25.5114H116.003C116.939 25.5114 117.666 25.8665 118.134 26.482C118.472 26.9555 118.654 27.5474 118.654 28.2576V28.2812C118.654 29.7253 118.004 30.4592 117.355 30.838C118.316 31.2404 119.096 31.998 119.096 33.5131V33.5367C119.096 35.4306 117.926 36.5669 116.133 36.5669H112.521V25.5114ZM120.213 28.3996H121.123V30.5302C121.564 29.1571 122.448 28.1865 123.591 28.2576V29.5833H123.513C122.188 29.5833 121.123 30.8616 121.123 33.3474V36.6143H120.213V28.3996ZM131.413 33.5841V32.8029C130.971 32.6371 130.374 32.4478 129.646 32.4478C128.529 32.4478 127.879 33.1106 127.879 34.1523V34.1759C127.879 35.1939 128.581 35.8094 129.386 35.8094C130.53 35.8094 131.413 34.8861 131.413 33.5841ZM126.996 34.2233V34.1996C126.996 32.4714 128.035 31.5482 129.568 31.5482C130.348 31.5482 130.893 31.6902 131.413 31.9033V31.6192C131.413 30.1514 130.738 29.3939 129.62 29.3939C128.919 29.3939 128.347 29.6543 127.801 29.9857L127.541 28.9914C128.217 28.589 128.867 28.3049 129.724 28.3049C130.582 28.3049 131.231 28.6127 131.673 29.2045C132.089 29.749 132.297 30.5539 132.297 31.5955V36.5906H131.439V35.3596C131.023 36.0935 130.322 36.78 129.256 36.78C128.113 36.7563 126.996 35.9041 126.996 34.2233ZM133.518 28.3996H134.428V29.82C134.817 28.9441 135.441 28.2102 136.481 28.2102C137.936 28.2102 138.793 29.5359 138.793 31.4771V36.5669H137.884V31.7849C137.884 30.2698 137.286 29.3229 136.221 29.3229C135.181 29.3229 134.428 30.3408 134.428 31.8796V36.5669H133.518V28.3996ZM144.9 32.4951V32.4714C144.9 30.5776 143.835 29.3229 142.717 29.3229C141.548 29.3229 140.586 30.5065 140.586 32.4714V32.4951C140.586 34.4363 141.574 35.6674 142.717 35.6674C143.861 35.6674 144.9 34.389 144.9 32.4951ZM139.703 32.5188V32.4951C139.703 29.82 141.132 28.2339 142.587 28.2339C143.705 28.2339 144.432 29.0625 144.9 29.9857V25.038H145.81V36.5906H144.9V34.9335C144.406 35.9041 143.705 36.7563 142.587 36.7563C141.132 36.7563 139.703 35.2176 139.703 32.5188ZM5.22327 48.3327V48.309C5.22327 46.4151 4.15782 45.1604 3.04041 45.1604C1.87102 45.1604 0.909524 46.3441 0.909524 48.309V48.3327C0.909524 50.2739 1.89701 51.5049 3.04041 51.5049C4.15782 51.5049 5.22327 50.2265 5.22327 48.3327ZM5.17129 50.771C4.67755 51.7416 3.97592 52.5939 2.8585 52.5939C1.42925 52.5939 0 51.0551 0 48.3563V48.3327C0 45.6576 1.42925 44.0714 2.88449 44.0714C4.00191 44.0714 4.72952 44.9 5.19728 45.8233V44.2608H6.1068V54.9612H5.19728V50.771M7.82191 49.3269V44.2371H8.73143V49.0192C8.73143 50.5343 9.32912 51.4812 10.3946 51.4812C11.408 51.4812 12.1876 50.4633 12.1876 48.9245V44.2371H13.0712V52.4282H12.1876V51.0078C11.7978 51.8837 11.1742 52.5939 10.1347 52.5939C8.67946 52.5939 7.82191 51.2682 7.82191 49.3269ZM14.9162 52.4282H15.8257V44.2371H14.9162V52.4282ZM14.8642 42.438H15.8777V41.0886H14.8642V42.438ZM17.6448 44.2371H18.5543V45.6576C18.9441 44.7816 19.5678 44.0478 20.6072 44.0478C22.0625 44.0478 22.92 45.3735 22.92 47.3147V52.4045H22.0105V47.6225C22.0105 46.1074 21.4128 45.1604 20.3473 45.1604C19.3079 45.1604 18.5543 46.1784 18.5543 47.7171V52.4045H17.6448V44.2371ZM24.6611 52.4282H25.5706V44.2371H24.6611V52.4282ZM24.6091 42.438H25.6226V41.0886H24.6091V42.438ZM32.2491 48.3327V48.309C32.2491 46.4151 31.1837 45.1604 30.0663 45.1604C28.8969 45.1604 27.9354 46.3441 27.9354 48.309V48.3327C27.9354 50.2739 28.9229 51.5049 30.0663 51.5049C31.2097 51.5049 32.2491 50.2265 32.2491 48.3327ZM27.0518 48.3563V48.3327C27.0518 45.6576 28.4811 44.0714 29.9363 44.0714C31.0537 44.0714 31.7814 44.9 32.2491 45.8233V40.8755H33.1586V52.4282H32.2231V50.771C31.7294 51.7416 31.0278 52.5939 29.9103 52.5939C28.4811 52.5939 27.0518 51.0551 27.0518 48.3563ZM34.9517 52.4282H35.8612V44.2371H34.9517V52.4282ZM34.8997 42.438H35.9132V41.0886H34.8997V42.438ZM37.6803 44.2371H38.5898V45.6576C38.9796 44.7816 39.6033 44.0478 40.6427 44.0478C42.098 44.0478 42.9555 45.3735 42.9555 47.3147V52.4045H42.046V47.6225C42.046 46.1074 41.4483 45.1604 40.3829 45.1604C39.3434 45.1604 38.5898 46.1784 38.5898 47.7171V52.4045H37.6803V44.2371ZM49.1143 47.8829C49.0103 46.3914 48.3867 45.0894 47.1913 45.0894C46.1518 45.0894 45.3463 46.2731 45.2423 47.8829H49.1143ZM44.3328 48.3563V48.3327C44.3328 45.9653 45.5542 44.0714 47.2173 44.0714C49.0103 44.0714 50.0238 46.0127 50.0238 48.4037V48.8061H45.2423C45.3722 50.5816 46.2818 51.5759 47.3732 51.5759C48.2048 51.5759 48.7765 51.1261 49.2702 50.4159L49.8419 51.1025C49.2442 52.0257 48.4906 52.6412 47.3732 52.6412C45.6841 52.6176 44.3328 50.8894 44.3328 48.3563ZM54.4675 51.3865L54.9093 50.5106C55.5589 51.1735 56.2865 51.5522 56.9882 51.5522C57.7158 51.5522 58.2355 51.0551 58.2355 50.2502V50.2265C58.2355 49.398 57.5339 49.0902 56.7283 48.7825C55.7928 48.4273 54.7274 47.9776 54.7274 46.4625V46.4388C54.7274 45.0184 55.5849 44.0951 56.7803 44.0951C57.5079 44.0951 58.3395 44.4502 58.9371 44.9947L58.5214 45.918C58.0543 45.4595 57.4132 45.1802 56.7283 45.1367C56.0267 45.1367 55.5589 45.6339 55.5589 46.3204V46.3441C55.5589 47.1253 56.3125 47.4331 57.1181 47.7645C58.0536 48.1433 59.0411 48.6404 59.0411 50.1082V50.1318C59.0411 51.6943 58.1056 52.5939 56.9102 52.5939C56.1046 52.5939 55.1431 52.1204 54.4675 51.3865ZM60.3924 49.3269V44.2371H61.3019V49.0192C61.3019 50.5343 61.8996 51.4812 62.965 51.4812C63.9785 51.4812 64.7581 50.4633 64.7581 48.9245V44.2371H65.6416V52.4282H64.7581V51.0078C64.3423 51.8837 63.7446 52.6176 62.7052 52.6176C61.2499 52.5939 60.3924 51.2682 60.3924 49.3269ZM67.4867 52.4282H68.3962V40.8755H67.4867V52.4282ZM70.5011 45.3261H69.6695V44.2608H70.5011V43.5506C70.5011 42.6274 70.683 41.8935 71.0208 41.4437C71.1626 41.2476 71.3554 41.0866 71.5822 40.9751C71.8089 40.8635 72.0625 40.8049 72.3201 40.8045C72.7359 40.8045 73.0218 40.8755 73.3076 41.0176V42.0829C72.9698 41.9645 72.7359 41.8698 72.4241 41.8698C71.7225 41.8698 71.3846 42.438 71.3846 43.6216V44.2845H73.3076V45.3261H71.4106V52.4282H70.5011V45.3261ZM78.245 49.4216V48.6404C77.8033 48.4747 77.2056 48.2853 76.478 48.2853C75.3605 48.2853 74.7109 48.9482 74.7109 49.9898V50.0135C74.7109 51.0314 75.4125 51.6469 76.2181 51.6469C77.3355 51.6469 78.245 50.7237 78.245 49.4216ZM73.8014 50.0608V50.0371C73.8014 48.309 74.8408 47.3857 76.374 47.3857C77.1536 47.3857 77.6993 47.5278 78.2191 47.7408V47.4567C78.2191 45.989 77.5434 45.2314 76.426 45.2314C75.7244 45.2314 75.1527 45.4918 74.6069 45.8233L74.3471 44.829C75.0227 44.4265 75.6724 44.1425 76.5299 44.1425C77.3875 44.1425 78.0371 44.4502 78.4789 45.042C78.8947 45.5865 79.1026 46.3914 79.1026 47.4331V52.4282H78.2191V51.1971C77.8033 51.931 77.1016 52.6176 76.0362 52.6176C74.9188 52.5939 73.8014 51.7416 73.8014 50.0608ZM80.9736 50.2502V45.3025H80.142V44.2371H80.9736V41.7751H81.8831V44.2371H83.8061V45.3025H81.8831V50.0845C81.8831 51.0788 82.2989 51.4576 82.8966 51.4576C83.2084 51.4576 83.4683 51.3865 83.7801 51.1735V52.2151C83.4715 52.4435 83.0864 52.5689 82.6887 52.5702C81.7272 52.5702 80.9736 51.931 80.9736 50.2502ZM89.2633 47.8829C89.1593 46.3914 88.5357 45.0894 87.3403 45.0894C86.3008 45.0894 85.4952 46.2731 85.3913 47.8829H89.2633ZM84.4818 48.3563V48.3327C84.4818 45.9653 85.7031 44.0714 87.3663 44.0714C89.1593 44.0714 90.1728 46.0127 90.1728 48.4037V48.8061H85.3913C85.5212 50.5816 86.4308 51.5759 87.5222 51.5759C88.3537 51.5759 88.9255 51.1261 89.4192 50.4159L89.9909 51.1025C89.3932 52.0257 88.6396 52.6412 87.5222 52.6412C85.8331 52.6176 84.4818 50.8894 84.4818 48.3563ZM90.2508 53.8486C91.1444 53.0889 91.8483 52.163 92.3146 51.1336C92.7809 50.1043 92.9988 48.9956 92.9533 47.8829C92.9533 45.3498 92.0178 43.4559 90.2508 41.9171L90.6405 41.1122C92.7195 42.6984 93.8629 44.971 93.8629 47.8829C93.8629 50.7947 92.7195 53.0674 90.6405 54.6535L90.2508 53.8486ZM98.7223 48.38V48.3327C98.7223 46.0127 100.048 44.0478 101.815 44.0478C102.958 44.0478 103.66 44.6869 104.231 45.5155L103.634 46.3678C103.166 45.6812 102.62 45.1367 101.815 45.1367C100.593 45.1367 99.6578 46.5571 99.6578 48.309V48.3327C99.6578 50.1082 100.619 51.5049 101.867 51.5049C102.646 51.5049 103.218 50.9841 103.712 50.2739L104.283 51.0078C103.686 51.931 102.958 52.5939 101.815 52.5939C100.048 52.6176 98.7223 50.6763 98.7223 48.38ZM109.611 49.4216V48.6404C109.169 48.4747 108.571 48.2853 107.844 48.2853C106.726 48.2853 106.076 48.9482 106.076 49.9898V50.0135C106.076 51.0314 106.778 51.6469 107.584 51.6469C108.701 51.6469 109.611 50.7237 109.611 49.4216ZM105.193 50.0608V50.0371C105.193 48.309 106.232 47.3857 107.766 47.3857C108.545 47.3857 109.091 47.5278 109.611 47.7408V47.4567C109.611 45.989 108.935 45.2314 107.818 45.2314C107.116 45.2314 106.544 45.4918 105.999 45.8233L105.739 44.829C106.414 44.4265 107.064 44.1425 107.922 44.1425C108.779 44.1425 109.429 44.4502 109.87 45.042C110.286 45.5865 110.494 46.3914 110.494 47.4331V52.4282H109.637V51.1971C109.221 51.931 108.519 52.6176 107.454 52.6176C106.31 52.5939 105.193 51.7416 105.193 50.0608ZM117.381 48.3563V48.3327C117.381 46.3914 116.393 45.1604 115.25 45.1604C114.132 45.1604 113.067 46.4388 113.067 48.309V48.3327C113.067 50.2265 114.132 51.5049 115.25 51.5049C116.419 51.5049 117.381 50.3449 117.381 48.3563ZM112.209 44.2371H113.119V45.8943C113.613 44.9237 114.314 44.0714 115.432 44.0714C116.887 44.0714 118.316 45.6339 118.316 48.309V48.3327C118.316 51.0078 116.887 52.5939 115.432 52.5939C114.314 52.5939 113.587 51.7653 113.119 50.842V54.9612H112.209V44.2371ZM119.174 51.3865L119.615 50.5106C120.265 51.1735 120.993 51.5522 121.694 51.5522C122.422 51.5522 122.942 51.0551 122.942 50.2502V50.2265C122.942 49.398 122.24 49.0902 121.434 48.7825C120.499 48.4273 119.433 47.9776 119.433 46.4625V46.4388C119.433 45.0184 120.291 44.0951 121.486 44.0951C122.214 44.0951 123.046 44.4502 123.643 44.9947L123.228 45.918C122.76 45.4595 122.119 45.1802 121.434 45.1367C120.733 45.1367 120.265 45.6339 120.265 46.3204V46.3441C120.265 47.1253 121.019 47.4331 121.824 47.7645C122.76 48.1433 123.747 48.6404 123.747 50.1082V50.1318C123.747 51.6943 122.812 52.5939 121.616 52.5939C120.811 52.5939 119.849 52.1204 119.174 51.3865ZM125.099 49.3269V44.2371H126.008V49.0192C126.008 50.5343 126.606 51.4812 127.671 51.4812C128.685 51.4812 129.464 50.4633 129.464 48.9245V44.2371H130.348V52.4282H129.464V51.0078C129.048 51.8837 128.451 52.6176 127.411 52.6176C125.956 52.5939 125.099 51.2682 125.099 49.3269ZM132.193 52.4282H133.102V40.8755H132.193V52.4282ZM139.365 47.8829C139.261 46.3914 138.637 45.0894 137.442 45.0894C136.403 45.0894 135.597 46.2731 135.493 47.8829H139.365ZM134.584 48.3563V48.3327C134.584 45.9653 135.805 44.0714 137.468 44.0714C139.261 44.0714 140.275 46.0127 140.275 48.4037V48.8061H135.493C135.623 50.5816 136.533 51.5759 137.624 51.5759C138.456 51.5759 139.027 51.1261 139.521 50.4159L140.093 51.1025C139.495 52.0257 138.741 52.6412 137.624 52.6412C135.935 52.6176 134.584 50.8894 134.584 48.3563ZM141.132 51.3865L141.574 50.5106C142.224 51.1735 142.951 51.5522 143.653 51.5522C144.38 51.5522 144.9 51.0551 144.9 50.2502V50.2265C144.9 49.398 144.199 49.0902 143.393 48.7825C142.457 48.4273 141.392 47.9776 141.392 46.4625V46.4388C141.392 45.0184 142.25 44.0951 143.445 44.0951C144.173 44.0951 145.004 44.4502 145.602 44.9947L145.186 45.918C144.719 45.4595 144.078 45.1802 143.393 45.1367C142.691 45.1367 142.224 45.6339 142.224 46.3204V46.3441C142.224 47.1253 142.977 47.4331 143.783 47.7645C144.718 48.1433 145.706 48.6404 145.706 50.1082V50.1318C145.706 51.6943 144.77 52.5939 143.575 52.5939C142.743 52.5939 141.808 52.1204 141.132 51.3865Z" fill="#006171"/>
<path id="Vector_2" d="M159.426 34.4837L162.467 31.2167C163.74 29.82 164.208 29.0388 164.208 28.0208C164.208 26.8371 163.428 26.0796 162.519 26.0796C161.557 26.0796 160.934 26.6951 160.258 27.8314L159.556 27.2159C160.31 25.8428 161.116 25.0379 162.571 25.0379C164.078 25.0379 165.169 26.269 165.169 27.9261V27.9498C165.169 29.4412 164.52 30.3645 163.039 31.9033L160.804 34.3179H165.247V35.3596H159.375V34.4837M172.264 30.2935V30.2698C172.264 28.0445 171.25 26.0559 169.691 26.0559C168.132 26.0559 167.144 27.9971 167.144 30.2461V30.2698C167.144 32.4951 168.158 34.4837 169.717 34.4837C171.276 34.4837 172.264 32.5188 172.264 30.2935ZM166.157 30.2935V30.2698C166.157 27.4053 167.56 24.9906 169.717 24.9906C171.874 24.9906 173.251 27.3816 173.251 30.2224V30.2461C173.251 33.1106 171.848 35.5253 169.691 35.5253C167.534 35.5253 166.157 33.1579 166.157 30.2935ZM177.669 29.5359H178.397V30.5065C178.708 29.9384 179.15 29.3939 179.956 29.3939C180.735 29.3939 181.229 29.891 181.489 30.5539C181.827 29.9147 182.346 29.3939 183.178 29.3939C184.295 29.3939 184.971 30.2935 184.971 31.7375V35.3596H184.243V31.9506C184.243 30.8143 183.776 30.1988 182.996 30.1988C182.269 30.1988 181.671 30.8616 181.671 31.9979V35.3596H180.943V31.9269C180.943 30.8379 180.475 30.1988 179.696 30.1988C178.942 30.1988 178.371 30.9563 178.371 32.0453V35.3833H177.643V29.5359M190.064 32.1637C190.064 30.9563 189.207 30.1751 188.297 30.1751C187.388 30.1751 186.634 30.9326 186.634 32.14V32.1637C186.634 33.3473 187.414 34.1522 188.297 34.1522C189.207 34.1522 190.064 33.3473 190.064 32.1637ZM186.14 36.3775L186.478 35.691C187.024 36.1645 187.648 36.4249 188.323 36.4249C189.389 36.4249 190.064 35.7147 190.064 34.3416V33.6551C189.649 34.3416 189.051 34.8861 188.167 34.8861C187.024 34.8861 185.907 33.8445 185.907 32.1637V32.14C185.907 30.4355 187.024 29.3939 188.167 29.3939C189.077 29.3939 189.649 29.9384 190.038 30.5775V29.5359H190.766V34.3653C190.766 35.2649 190.532 35.9514 190.142 36.4249C189.932 36.6799 189.656 36.8843 189.339 37.0205C189.022 37.1566 188.673 37.2203 188.323 37.2061C187.518 37.1824 186.764 36.922 186.14 36.3775ZM161.298 43.3612L159.712 43.953L159.478 43.0298L161.531 42.1775H162.233V52.4518H161.298V43.3612ZM170.809 47.362V47.3384C170.809 45.1131 169.795 43.1245 168.236 43.1245C166.677 43.1245 165.689 45.0657 165.689 47.3147V47.3384C165.689 49.5637 166.703 51.5522 168.262 51.5522C169.821 51.5522 170.809 49.5873 170.809 47.362ZM164.702 47.362V47.3384C164.702 44.4739 166.105 42.0592 168.262 42.0592C170.419 42.0592 171.796 44.4502 171.796 47.291V47.3147C171.796 50.1792 170.393 52.5939 168.236 52.5939C166.079 52.5939 164.702 50.2028 164.702 47.362ZM177.695 46.6045H178.423V47.5751C178.734 47.0069 179.176 46.4624 179.982 46.4624C180.761 46.4624 181.255 46.9596 181.515 47.6224C181.853 46.9833 182.372 46.4624 183.204 46.4624C184.321 46.4624 184.997 47.362 184.997 48.8061V52.4282H184.269V49.0192C184.269 47.8828 183.802 47.2673 183.022 47.2673C182.295 47.2673 181.697 47.9302 181.697 49.0665V52.4282H180.969V48.9955C180.969 47.9065 180.501 47.2673 179.722 47.2673C178.968 47.2673 178.397 48.0249 178.397 49.1139V52.4518H177.669V46.6045M190.09 49.2322C190.09 48.0249 189.233 47.2437 188.323 47.2437C187.414 47.2437 186.66 48.0012 186.66 49.2086V49.2322C186.66 50.4159 187.44 51.2208 188.323 51.2208C189.233 51.2208 190.09 50.4159 190.09 49.2322ZM186.166 53.4461L186.504 52.7596C187.05 53.233 187.674 53.4935 188.349 53.4935C189.415 53.4935 190.09 52.7833 190.09 51.4102V50.7237C189.675 51.4102 189.077 51.9547 188.193 51.9547C187.05 51.9547 185.933 50.913 185.933 49.2322V49.2086C185.933 47.5041 187.05 46.4624 188.193 46.4624C189.103 46.4624 189.675 47.0069 190.064 47.6461V46.6045H190.792V51.4102C190.792 52.3098 190.558 52.9963 190.168 53.4698C189.958 53.7248 189.682 53.9292 189.365 54.0654C189.048 54.2015 188.699 54.2652 188.349 54.251C187.544 54.251 186.79 53.9906 186.166 53.4461ZM159.452 39.9996H190.766V39.2894H159.452V39.9996Z" fill="#006171"/>
<path id="Vector_3" d="M0 0.322849H5.71701L14.8382 9.22407V0.322849H20.919V17.1547H15.5659L6.08082 7.92203V17.1547H0V0.322849ZM26.4022 9.76856V0.322849H32.6129V9.67387C32.6129 12.1122 34.2241 13.2486 36.6928 13.2486C39.1875 13.2486 40.7986 12.1359 40.7986 9.79224V0.322849H47.0094V9.6502C47.0094 15.0477 42.9295 17.4624 36.6148 17.4624C30.3521 17.4624 26.4022 15.0241 26.4022 9.76856ZM52.4146 0.322849H70.2412V4.25265H58.4954V6.83305H69.1238V10.5024H58.4954V13.1775H70.3971V17.131H52.4146V0.322849ZM81.6233 4.41836V12.9882H84.118C87.808 12.9882 90.2507 11.4494 90.2507 8.72693V8.67958C90.2507 5.98081 87.808 4.39469 84.118 4.39469H81.6233V4.41836ZM75.4645 0.322849H84.04C91.9139 0.322849 96.5135 3.77918 96.5135 8.63224V8.67958C96.5135 13.5326 91.8619 17.131 83.9101 17.131H75.4645V0.322849ZM101.113 0.322849H118.94V4.25265H107.194V6.83305H117.822V10.5024H107.194V13.1775H119.096V17.131H101.113V0.322849ZM144.354 0.322849L137.078 8.51387L144.666 17.131H137.598L133.362 12.0412L129.1 17.131H122.188L129.776 8.58489L122.5 0.322849H129.568L133.466 5.05754L137.442 0.322849H144.354ZM154.073 4.39469H147.447V0.322849H166.859V4.41836H160.206V17.1547H154.073V4.39469ZM180.813 10.4788L178.345 5.7204L175.85 10.4788H180.813ZM175.434 0.204482H181.359L190.792 17.1547H184.218L182.632 14.1245H174.057L172.472 17.1547H166.053L175.434 0.204482ZM188.297 2.50081C188.635 2.50081 188.843 2.33509 188.843 2.09836C188.843 1.83795 188.661 1.69591 188.297 1.69591H187.648V2.47713H188.297V2.50081ZM187.128 1.29346H188.323C188.895 1.29346 189.337 1.55387 189.337 2.05101C189.337 2.45346 189.077 2.6902 188.713 2.78489L189.415 3.70816H188.791L188.167 2.87958H187.622V3.70816H187.102V1.29346H187.128ZM190.454 2.54816C190.454 1.36448 189.467 0.417543 188.141 0.417543C187.526 0.423776 186.938 0.651 186.505 1.04989C186.072 1.44879 185.829 1.98716 185.829 2.54816V2.57183C185.829 3.73183 186.816 4.67877 188.141 4.67877C189.467 4.67877 190.454 3.70816 190.454 2.54816ZM185.543 2.57183C185.543 1.26979 186.686 0.157135 188.141 0.157135C188.831 0.157135 189.492 0.406551 189.979 0.850515C190.466 1.29448 190.74 1.89662 190.74 2.52448V2.54816C190.744 2.86103 190.679 3.17141 190.55 3.46137C190.421 3.75133 190.23 4.01511 189.988 4.23745C189.747 4.45979 189.459 4.63629 189.142 4.75673C188.825 4.87718 188.485 4.93919 188.141 4.93918C187.452 4.93918 186.791 4.68976 186.304 4.2458C185.817 3.80183 185.543 3.19969 185.543 2.57183Z" fill="#006171"/>
</g>
<defs>
<clipPath id="clip0_197_3921">
<rect width="191" height="55" fill="white"/>
</clipPath>
</defs>
</svg>
