<svg width="30" height="30" viewBox="0 0 30 30" fill="none" xmlns="http://www.w3.org/2000/svg">
<rect x="1.25" y="1.25" width="27.5" height="27.5" rx="13.75" fill="#D1EA8D"/>
<rect x="1.25" y="1.25" width="27.5" height="27.5" rx="13.75" stroke="#006171" stroke-width="2.5"/>
<mask id="path-2-inside-1_619_28989" fill="white">
<path d="M19.6571 20.345V23H10.0721V20.975L15.2696 14.855C16.2371 13.73 16.7096 12.785 16.7096 11.7725C16.7096 10.5125 15.7871 9.8825 14.7746 9.8825C13.7171 9.8825 12.9296 10.535 12.8396 11.7725H10.0496C10.0496 9.095 12.2546 7.2725 14.9321 7.2725C17.7221 7.2725 19.8371 9.2075 19.8371 11.7725C19.8371 13.82 18.4871 15.4175 17.4971 16.5875L14.3021 20.345H19.6571Z"/>
</mask>
<path d="M19.6571 20.345H22.1571V17.845H19.6571V20.345ZM19.6571 23V25.5H22.1571V23H19.6571ZM10.0721 23H7.57206V25.5H10.0721V23ZM10.0721 20.975L8.16652 19.3567L7.57206 20.0567V20.975H10.0721ZM15.2696 14.855L13.3741 13.2249L13.369 13.2308L13.364 13.2367L15.2696 14.855ZM12.8396 11.7725V14.2725H15.1643L15.333 11.9538L12.8396 11.7725ZM10.0496 11.7725H7.54956V14.2725H10.0496V11.7725ZM17.4971 16.5875L19.4016 18.207L19.4055 18.2024L17.4971 16.5875ZM14.3021 20.345L12.3975 18.7255L8.89473 22.845H14.3021V20.345ZM17.1571 20.345V23H22.1571V20.345H17.1571ZM19.6571 20.5H10.0721V25.5H19.6571V20.5ZM12.5721 23V20.975H7.57206V23H12.5721ZM11.9776 22.5933L17.1751 16.4733L13.364 13.2367L8.16652 19.3567L11.9776 22.5933ZM17.165 16.4851C18.2941 15.1722 19.2096 13.6591 19.2096 11.7725H14.2096C14.2096 11.9109 14.18 12.2878 13.3741 13.2249L17.165 16.4851ZM19.2096 11.7725C19.2096 10.4822 18.7121 9.30613 17.7753 8.47997C16.8845 7.69442 15.7787 7.3825 14.7746 7.3825V12.3825C14.7711 12.3825 14.7419 12.3822 14.6906 12.3646C14.6379 12.3465 14.5561 12.3075 14.4682 12.23C14.3766 12.1492 14.3022 12.0469 14.2555 11.9391C14.2095 11.8329 14.2096 11.7663 14.2096 11.7725H19.2096ZM14.7746 7.3825C13.7258 7.3825 12.618 7.71442 11.7379 8.5363C10.8539 9.36185 10.4278 10.4681 10.3461 11.5912L15.333 11.9538C15.3375 11.8911 15.3461 11.9012 15.3212 11.9581C15.2946 12.0186 15.2413 12.1058 15.1506 12.1906C14.9511 12.3768 14.7658 12.3825 14.7746 12.3825V7.3825ZM12.8396 9.2725H10.0496V14.2725H12.8396V9.2725ZM12.5496 11.7725C12.5496 10.7365 13.3591 9.7725 14.9321 9.7725V4.7725C11.15 4.7725 7.54956 7.45345 7.54956 11.7725H12.5496ZM14.9321 9.7725C16.5506 9.7725 17.3371 10.7885 17.3371 11.7725H22.3371C22.3371 7.62647 18.8936 4.7725 14.9321 4.7725V9.7725ZM17.3371 11.7725C17.3371 12.7659 16.6783 13.6848 15.5886 14.9726L19.4055 18.2024C20.2959 17.1502 22.3371 14.8741 22.3371 11.7725H17.3371ZM15.5925 14.968L12.3975 18.7255L16.2066 21.9645L19.4016 18.207L15.5925 14.968ZM14.3021 22.845H19.6571V17.845H14.3021V22.845Z" fill="#006171" mask="url(#path-2-inside-1_619_28989)"/>
</svg>
