<svg width="30" height="30" viewBox="0 0 30 30" fill="none" xmlns="http://www.w3.org/2000/svg">
<rect x="1.25" y="1.25" width="27.5" height="27.5" rx="13.75" fill="#D1EA8D"/>
<rect x="1.25" y="1.25" width="27.5" height="27.5" rx="13.75" stroke="#006171" stroke-width="2.5"/>
<mask id="path-2-inside-1_619_29059" fill="white">
<path d="M13.2896 16.3175V13.6625H14.4371C15.7196 13.6625 16.5971 12.9875 16.5971 11.6825C16.5971 10.6475 15.8096 9.8825 14.6621 9.8825C13.5596 9.8825 12.8621 10.58 12.7271 11.5475H9.93706C10.0496 9.005 12.1421 7.2725 14.8196 7.2725C17.6546 7.2725 19.7246 9.23 19.7246 11.5475C19.7246 13.3025 18.6446 14.3825 17.6096 14.945C18.9371 15.5975 19.9496 16.8125 19.9496 18.6575C19.9496 21.1775 18.1946 23.2025 14.9996 23.2025C11.7146 23.2025 9.84706 21.3575 9.73456 18.8375H12.5021C12.6596 19.8275 13.4021 20.5475 14.7971 20.5475C16.0571 20.5475 16.8221 19.6475 16.8221 18.5C16.8221 17.1275 16.0346 16.3175 14.4371 16.3175H13.2896Z"/>
</mask>
<path d="M13.2896 16.3175H10.7896V18.8175H13.2896V16.3175ZM13.2896 13.6625V11.1625H10.7896V13.6625H13.2896ZM12.7271 11.5475V14.0475H14.9024L15.2031 11.893L12.7271 11.5475ZM9.93706 11.5475L7.4395 11.437L7.324 14.0475H9.93706V11.5475ZM17.6096 14.945L16.4158 12.7484L12.169 15.0565L16.5068 17.1886L17.6096 14.945ZM9.73456 18.8375V16.3375H7.12046L7.23705 18.949L9.73456 18.8375ZM12.5021 18.8375L14.971 18.4447L14.6358 16.3375H12.5021V18.8375ZM15.7896 16.3175V13.6625H10.7896V16.3175H15.7896ZM13.2896 16.1625H14.4371V11.1625H13.2896V16.1625ZM14.4371 16.1625C15.4907 16.1625 16.6813 15.885 17.6433 15.0442C18.6544 14.1603 19.0971 12.9301 19.0971 11.6825H14.0971C14.0971 11.7284 14.0898 11.6833 14.1305 11.5851C14.1738 11.4805 14.2498 11.3695 14.3527 11.2796C14.5553 11.1025 14.6659 11.1625 14.4371 11.1625V16.1625ZM19.0971 11.6825C19.0971 9.12852 17.0478 7.3825 14.6621 7.3825V12.3825C14.6728 12.3825 14.5204 12.3788 14.3455 12.214C14.1635 12.0425 14.0971 11.8246 14.0971 11.6825H19.0971ZM14.6621 7.3825C13.5623 7.3825 12.4979 7.74137 11.662 8.49158C10.8377 9.2313 10.389 10.2131 10.251 11.202L15.2031 11.893C15.2001 11.9144 15.1677 12.0637 15.0015 12.2128C14.9229 12.2834 14.8383 12.3306 14.7641 12.3575C14.6914 12.3838 14.6515 12.3825 14.6621 12.3825V7.3825ZM12.7271 9.0475H9.93706V14.0475H12.7271V9.0475ZM12.4346 11.658C12.4776 10.6862 13.2322 9.7725 14.8196 9.7725V4.7725C11.052 4.7725 7.6215 7.32383 7.4395 11.437L12.4346 11.658ZM14.8196 9.7725C16.5459 9.7725 17.2246 10.8679 17.2246 11.5475H22.2246C22.2246 7.59212 18.7632 4.7725 14.8196 4.7725V9.7725ZM17.2246 11.5475C17.2246 11.8766 17.1336 12.0823 17.0202 12.2413C16.8875 12.4273 16.6781 12.6059 16.4158 12.7484L18.8033 17.1416C20.34 16.3064 22.2246 14.5187 22.2246 11.5475H17.2246ZM16.5068 17.1886C16.8487 17.3567 17.0735 17.5591 17.2104 17.7604C17.336 17.9449 17.4496 18.2161 17.4496 18.6575H22.4496C22.4496 15.7058 20.748 13.702 18.7124 12.7014L16.5068 17.1886ZM17.4496 18.6575C17.4496 19.3288 17.2249 19.7935 16.923 20.0893C16.627 20.3794 16.0557 20.7025 14.9996 20.7025V25.7025C17.1385 25.7025 19.0421 25.0131 20.4224 23.6607C21.7967 22.314 22.4496 20.5062 22.4496 18.6575H17.4496ZM14.9996 20.7025C13.8213 20.7025 13.1604 20.3768 12.819 20.0795C12.4941 19.7966 12.2609 19.3726 12.2321 18.726L7.23705 18.949C7.32068 20.8224 8.07751 22.5809 9.53575 23.8505C10.9774 25.1057 12.8928 25.7025 14.9996 25.7025V20.7025ZM9.73456 21.3375H12.5021V16.3375H9.73456V21.3375ZM10.0331 19.2303C10.1954 20.2503 10.6917 21.2703 11.6238 22.0159C12.5444 22.7524 13.671 23.0475 14.7971 23.0475V18.0475C14.5281 18.0475 14.586 17.9826 14.7472 18.1116C14.8214 18.1709 14.8815 18.2448 14.9221 18.3187C14.9608 18.3892 14.9699 18.4375 14.971 18.4447L10.0331 19.2303ZM14.7971 23.0475C16.0531 23.0475 17.2365 22.5824 18.0977 21.6727C18.9407 20.782 19.3221 19.6286 19.3221 18.5H14.3221C14.3221 18.5189 14.3209 18.3892 14.4665 18.2355C14.5363 18.1617 14.6178 18.1082 14.6946 18.0766C14.7703 18.0456 14.8119 18.0475 14.7971 18.0475V23.0475ZM19.3221 18.5C19.3221 17.3388 18.9779 16.0507 17.944 15.0755C16.9329 14.1217 15.631 13.8175 14.4371 13.8175V18.8175C14.6309 18.8175 14.7097 18.8427 14.7082 18.8422C14.6986 18.839 14.614 18.8077 14.5132 18.7127C14.41 18.6154 14.3524 18.5101 14.3274 18.4419C14.3061 18.3841 14.3221 18.3916 14.3221 18.5H19.3221ZM14.4371 13.8175H13.2896V18.8175H14.4371V13.8175Z" fill="#006171" mask="url(#path-2-inside-1_619_29059)"/>
</svg>
