<svg width="30" height="30" viewBox="0 0 30 30" fill="none" xmlns="http://www.w3.org/2000/svg">
<rect x="1.25" y="1.25" width="27.5" height="27.5" rx="13.75" fill="#D1EA8D"/>
<rect x="1.25" y="1.25" width="27.5" height="27.5" rx="13.75" stroke="#006171" stroke-width="2.5"/>
<mask id="path-2-inside-1_619_28978" fill="white">
<path d="M17.1146 7.475V23H13.9646V10.76L11.7371 12.2225V9.185L14.2796 7.475H17.1146Z"/>
</mask>
<path d="M17.1146 7.475H19.6146V4.975H17.1146V7.475ZM17.1146 23V25.5H19.6146V23H17.1146ZM13.9646 23H11.4646V25.5H13.9646V23ZM13.9646 10.76H16.4646V6.12789L12.5925 8.67018L13.9646 10.76ZM11.7371 12.2225H9.23706V16.8546L13.1092 14.3123L11.7371 12.2225ZM11.7371 9.185L10.3418 7.11054L9.23706 7.85358V9.185H11.7371ZM14.2796 7.475V4.975H13.5171L12.8843 5.40054L14.2796 7.475ZM14.6146 7.475V23H19.6146V7.475H14.6146ZM17.1146 20.5H13.9646V25.5H17.1146V20.5ZM16.4646 23V10.76H11.4646V23H16.4646ZM12.5925 8.67018L10.365 10.1327L13.1092 14.3123L15.3367 12.8498L12.5925 8.67018ZM14.2371 12.2225V9.185H9.23706V12.2225H14.2371ZM13.1323 11.2595L15.6748 9.54946L12.8843 5.40054L10.3418 7.11054L13.1323 11.2595ZM14.2796 9.975H17.1146V4.975H14.2796V9.975Z" fill="#006171" mask="url(#path-2-inside-1_619_28978)"/>
</svg>
