<svg width="50" height="60" viewBox="0 0 50 60" fill="none" xmlns="http://www.w3.org/2000/svg">
<g id="Layer_1">
<g id="Group">
<path id="Vector" d="M8.60029 58.5635C4.42264 58.5635 1.01562 55.2477 1.01562 51.1816V11.9603C1.01562 7.89423 4.4125 4.57847 8.60029 4.57847H14.4206C15.8301 2.60118 18.1521 1.39453 20.6364 1.39453H29.377C31.8613 1.39453 34.1833 2.60118 35.5928 4.57847H41.4131C45.5908 4.57847 48.9978 7.89423 48.9978 11.9603V51.1714C48.9978 55.2376 45.5908 58.5533 41.4131 58.5533H8.60029V58.5635Z" fill="#D2E390"/>
<path id="Vector_2" d="M29.3754 2.41801C31.7481 2.41801 33.8876 3.66522 35.0436 5.60195H41.4115C45.0314 5.60195 47.9822 8.46141 47.9822 11.9698V51.1809C47.9822 54.6893 45.0314 57.5488 41.4115 57.5488H8.59866C4.97871 57.5488 2.02799 54.6893 2.02799 51.1809V11.9597C2.02799 8.45127 4.97871 5.59181 8.59866 5.59181H14.9564C16.1123 3.66522 18.2519 2.40787 20.6246 2.40787H29.3754M29.3754 0.390023H20.6246C17.9984 0.390023 15.5242 1.58653 13.912 3.57396H8.59866C3.85317 3.57396 0 7.33588 0 11.9597V51.1708C0 55.7946 3.85317 59.5667 8.59866 59.5667H41.4013C46.1468 59.5667 50 55.8047 50 51.1708V11.9597C50 7.33588 46.1468 3.56382 41.4013 3.56382H36.088C34.4758 1.57639 32.0016 0.379883 29.3754 0.379883V0.390023Z" fill="#006171"/>
</g>
<path id="Vector_3" d="M18.3221 24.0056C17.9773 23.9955 17.6427 24.1375 17.3994 24.391L12.8263 29.4001L10.7374 27.7574C10.2304 27.3518 9.48008 27.4329 9.07449 27.9399C8.66889 28.4469 8.75001 29.177 9.25701 29.5826L12.2179 31.9148C12.7046 32.3001 13.4144 32.2494 13.8403 31.783L19.1637 25.9525C19.5997 25.4759 19.5592 24.7357 19.0725 24.3098C18.8697 24.1273 18.5959 24.0259 18.3221 24.0158" fill="#006171"/>
<path id="Vector_4" d="M18.3221 24.0056C17.9773 23.9955 17.6427 24.1375 17.3994 24.391L12.8263 29.4001L10.7374 27.7574C10.2304 27.3518 9.48008 27.4329 9.07449 27.9399C8.66889 28.4469 8.75001 29.177 9.25701 29.5826L12.2179 31.9148C12.7046 32.3001 13.4144 32.2494 13.8403 31.783L19.1637 25.9525C19.5997 25.4759 19.5592 24.7357 19.0725 24.3098C18.8697 24.1273 18.5959 24.0259 18.3221 24.0158V24.0056Z" stroke="#006171" stroke-width="0.770635" stroke-linecap="round" stroke-linejoin="round"/>
<path id="Vector_5" d="M18.3221 34.5818C17.9773 34.5717 17.6427 34.7136 17.3994 34.9671L12.8263 39.9763L10.7374 38.3336C10.2304 37.928 9.48008 38.0091 9.07449 38.5161C8.66889 39.0231 8.75001 39.7532 9.25701 40.1588L12.2179 42.491C12.7046 42.8763 13.4144 42.8256 13.8403 42.3591L19.1637 36.5287C19.5997 36.0521 19.5592 35.3119 19.0725 34.886C18.8697 34.7035 18.5959 34.5919 18.3221 34.5818Z" fill="#006171"/>
<path id="Vector_6" d="M18.3221 34.5818C17.9773 34.5717 17.6427 34.7136 17.3994 34.9671L12.8263 39.9763L10.7374 38.3336C10.2304 37.928 9.48008 38.0091 9.07449 38.5161C8.66889 39.0231 8.75001 39.7532 9.25701 40.1588L12.2179 42.491C12.7046 42.8763 13.4144 42.8256 13.8403 42.3591L19.1637 36.5287C19.5997 36.0521 19.5592 35.3119 19.0725 34.886C18.8697 34.7035 18.5959 34.5919 18.3221 34.5818Z" stroke="#006171" stroke-width="0.770635" stroke-linecap="round" stroke-linejoin="round"/>
<path id="Vector_7" d="M24.0321 27.0676C23.2615 27.0676 22.6328 27.818 22.6328 28.7306C22.6328 29.6432 23.2615 30.3935 24.0321 30.3935H39.7896C40.5602 30.3935 41.1889 29.6432 41.1889 28.7306C41.1889 27.818 40.5602 27.0676 39.7896 27.0676H24.0321Z" fill="#006171"/>
<path id="Vector_8" d="M24.0321 27.0676C23.2615 27.0676 22.6328 27.818 22.6328 28.7306C22.6328 29.6432 23.2615 30.3935 24.0321 30.3935H39.7896C40.5602 30.3935 41.1889 29.6432 41.1889 28.7306C41.1889 27.818 40.5602 27.0676 39.7896 27.0676H24.0321Z" stroke="#006171" stroke-width="0.770635" stroke-linecap="round" stroke-linejoin="round"/>
<path id="Vector_9" d="M24.0321 37.6438C23.2615 37.6438 22.6328 38.3942 22.6328 39.3067C22.6328 40.2193 23.2615 40.9697 24.0321 40.9697H39.7896C40.5602 40.9697 41.1889 40.2193 41.1889 39.3067C41.1889 38.3942 40.5602 37.6438 39.7896 37.6438H24.0321Z" fill="#006171"/>
<path id="Vector_10" d="M24.0321 37.6438C23.2615 37.6438 22.6328 38.3942 22.6328 39.3067C22.6328 40.2193 23.2615 40.9697 24.0321 40.9697H39.7896C40.5602 40.9697 41.1889 40.2193 41.1889 39.3067C41.1889 38.3942 40.5602 37.6438 39.7896 37.6438H24.0321Z" stroke="#006171" stroke-width="0.770635" stroke-linecap="round" stroke-linejoin="round"/>
<path id="Vector_11" d="M24.0321 48.2198C23.2615 48.2198 22.6328 48.9702 22.6328 49.8828C22.6328 50.7954 23.2615 51.5457 24.0321 51.5457H39.7896C40.5602 51.5457 41.1889 50.7954 41.1889 49.8828C41.1889 48.9702 40.5602 48.2198 39.7896 48.2198H24.0321Z" fill="#006171"/>
<path id="Vector_12" d="M24.0321 48.2198C23.2615 48.2198 22.6328 48.9702 22.6328 49.8828C22.6328 50.7954 23.2615 51.5457 24.0321 51.5457H39.7896C40.5602 51.5457 41.1889 50.7954 41.1889 49.8828C41.1889 48.9702 40.5602 48.2198 39.7896 48.2198H24.0321Z" stroke="#006171" stroke-width="0.770635" stroke-linecap="round" stroke-linejoin="round"/>
<path id="Vector_13" d="M18.3221 45.158C17.9773 45.1478 17.6427 45.2898 17.3994 45.5433L12.8263 50.5524L10.7374 48.9098C10.2304 48.5042 9.48008 48.5853 9.07449 49.0923C8.66889 49.5993 8.75001 50.3293 9.25701 50.7349L12.2179 53.0671C12.7046 53.4524 13.4144 53.4017 13.8403 52.9353L19.1637 47.1048C19.5997 46.6283 19.5592 45.8881 19.0725 45.4622C18.8697 45.2797 18.5959 45.1783 18.3221 45.1681" fill="#006171"/>
<path id="Vector_14" d="M18.3221 45.158C17.9773 45.1478 17.6427 45.2898 17.3994 45.5433L12.8263 50.5524L10.7374 48.9098C10.2304 48.5042 9.48008 48.5853 9.07449 49.0923C8.66889 49.5993 8.75001 50.3293 9.25701 50.7349L12.2179 53.0671C12.7046 53.4524 13.4144 53.4017 13.8403 52.9353L19.1637 47.1048C19.5997 46.6283 19.5592 45.8881 19.0725 45.4622C18.8697 45.2797 18.5959 45.1783 18.3221 45.1681V45.158Z" stroke="#006171" stroke-width="0.770635" stroke-linecap="round" stroke-linejoin="round"/>
<g id="Group_2">
<path id="Vector_15" d="M25.0139 17.7403C23.7565 17.7403 22.5803 17.1927 21.7894 16.2396C20.6638 14.8808 20.5219 12.8833 21.4548 11.3826C22.2051 10.1658 23.574 9.40527 25.0139 9.40527C25.2877 9.40527 25.5614 9.43569 25.8251 9.48639C27.7618 9.87171 29.1713 11.5955 29.1713 13.5728C29.1713 15.3169 28.0761 16.8885 26.4436 17.4868C25.9873 17.6592 25.5006 17.7403 25.0139 17.7403Z" fill="#D2E390"/>
<path id="Vector_16" d="M25.0155 10.4196C25.2183 10.4196 25.4211 10.4399 25.6239 10.4804C27.084 10.7745 28.1588 12.0825 28.1588 13.5731C28.1588 14.8812 27.3274 16.0878 26.1004 16.534C25.7455 16.6658 25.3805 16.7266 25.0155 16.7266C24.0927 16.7266 23.1801 16.321 22.5717 15.591C21.7098 14.5567 21.6084 13.056 22.3182 11.9102C22.8962 10.9773 23.9406 10.4196 25.0155 10.4196ZM25.0155 8.3916C23.2207 8.3916 21.5273 9.33462 20.5944 10.8455C19.4182 12.7416 19.5906 15.1651 21.0102 16.8889C21.9938 18.0752 23.4539 18.7546 25.0155 18.7546C25.6239 18.7546 26.2221 18.6532 26.8001 18.4403C28.8281 17.6899 30.1868 15.7431 30.1868 13.5731C30.1868 11.1091 28.4326 8.97972 26.0294 8.493C25.705 8.42202 25.3602 8.3916 25.0256 8.3916H25.0155Z" fill="#006171"/>
</g>
<path id="Vector_17" d="M26.7802 13.1367H25.4417V11.7982H24.5494V13.1367H23.2109V14.029H24.5494V15.3675H25.4417V14.029H26.7802V13.1367Z" fill="#056272"/>
</g>
</svg>
