<svg width="100" height="62" viewBox="0 0 100 62" fill="none" xmlns="http://www.w3.org/2000/svg">
<g clip-path="url(#clip0_1585_10593)">
<mask id="mask0_1585_10593" style="mask-type:luminance" maskUnits="userSpaceOnUse" x="0" y="0" width="100" height="62">
<path d="M100 0.0556641H0V61.5979H100V0.0556641Z" fill="white"/>
</mask>
<g mask="url(#mask0_1585_10593)">
<mask id="mask1_1585_10593" style="mask-type:luminance" maskUnits="userSpaceOnUse" x="0" y="0" width="100" height="62">
<path d="M100 0.0537109H0V61.596H100V0.0537109Z" fill="white"/>
</mask>
<g mask="url(#mask1_1585_10593)">
<path d="M9.34436 1.20522H90.6564C95.1812 1.20522 98.8493 4.87329 98.8493 9.39807V52.2524C98.8493 56.7772 95.1812 60.4453 90.6564 60.4453H9.34436C4.81957 60.4453 1.15151 56.7772 1.15151 52.2524V9.39807C1.15151 4.87329 4.81957 1.20522 9.34436 1.20522Z" stroke="white" stroke-width="1.31865"/>
<path d="M90.6564 0.545898H9.34436C4.45544 0.545898 0.492188 4.50915 0.492188 9.39807V52.2524C0.492188 57.1413 4.45544 61.1046 9.34436 61.1046H90.6564C95.5454 61.1046 99.5086 57.1413 99.5086 52.2524V9.39807C99.5086 4.50915 95.5454 0.545898 90.6564 0.545898Z" stroke="#006171" stroke-width="0.659326"/>
<path d="M28.3174 18.5445C28.3174 22.6165 25.711 26.3737 21.8947 27.7802C18.0194 29.2064 13.5442 28.0163 10.9082 24.8393C8.23285 21.6132 7.90827 16.9216 10.1115 13.361C12.2458 9.90867 16.4359 8.08906 20.4193 8.89559C24.9635 9.81032 28.3174 13.902 28.3174 18.5445Z" stroke="#A7C7D2" stroke-width="1.31865" stroke-linecap="round" stroke-linejoin="round"/>
</g>
<path d="M24.0383 17.1616H19.8679V12.9912H17.0844V17.1616H12.9141V19.9451H17.0844V24.1154H19.8679V19.9451H24.0383V17.1616Z" fill="white"/>
<path d="M85.5516 50.0321H24.8945H85.5516ZM85.5516 44.0225H24.8945H85.5516Z" fill="white"/>
<path d="M85.5516 50.0321H24.8945M85.5516 44.0225H24.8945" stroke="white" stroke-width="1.31865" stroke-miterlimit="10"/>
<path d="M28.1496 35.9775H25.1104V39.1938H28.1496V35.9775Z" fill="#A7C7D2"/>
<path d="M32.7629 35.9775H29.7236V39.1938H32.7629V35.9775Z" fill="#A7C7D2"/>
<path d="M37.3762 35.9775H34.3369V39.1938H37.3762V35.9775Z" fill="#A7C7D2"/>
<path d="M41.9982 35.9775H38.959V39.1938H41.9982V35.9775Z" fill="#A7C7D2"/>
<path d="M49.8185 35.9775H46.7793V39.1938H49.8185V35.9775Z" fill="#A7C7D2"/>
<path d="M54.4308 35.9775H51.3916V39.1938H54.4308V35.9775Z" fill="#A7C7D2"/>
<path d="M59.0441 35.9775H56.0049V39.1938H59.0441V35.9775Z" fill="#A7C7D2"/>
<path d="M63.6574 35.9775H60.6182V39.1938H63.6574V35.9775Z" fill="#A7C7D2"/>
<path d="M71.4767 35.9775H68.4375V39.1938H71.4767V35.9775Z" fill="#A7C7D2"/>
<path d="M76.0891 35.9775H73.0498V39.1938H76.0891V35.9775Z" fill="#A7C7D2"/>
<path d="M80.7023 35.9775H77.6631V39.1938H80.7023V35.9775Z" fill="#A7C7D2"/>
<path d="M85.3254 35.9775H82.2861V39.1938H85.3254V35.9775Z" fill="#A7C7D2"/>
</g>
</g>
<defs>
<clipPath id="clip0_1585_10593">
<rect width="100" height="61.5423" fill="white" transform="translate(0 0.0585938)"/>
</clipPath>
</defs>
</svg>
