<svg width="50" height="33" viewBox="0 0 50 33" fill="none" xmlns="http://www.w3.org/2000/svg">
<g clip-path="url(#clip0_111_2258)">
<path d="M43.867 1.2525H6.13629C3.30822 1.2525 1.01562 3.5451 1.01562 6.37317V26.2576C1.01562 29.0856 3.30822 31.3782 6.13629 31.3782H43.867C46.695 31.3782 48.9876 29.0856 48.9876 26.2576V6.37317C48.9876 3.5451 46.695 1.2525 43.867 1.2525Z" fill="#D2E390"/>
<path d="M43.8653 2.26694C46.1367 2.26694 47.972 4.10227 47.972 6.37361V26.258C47.972 28.5294 46.1367 30.3647 43.8653 30.3647H6.13466C3.86331 30.3647 2.02799 28.5294 2.02799 26.258V6.37361C2.02799 4.10227 3.86331 2.26694 6.13466 2.26694H43.8653ZM43.8653 0.238953H6.13466C2.74792 0.238953 0 2.98687 0 6.37361V26.258C0 29.6448 2.74792 32.3927 6.13466 32.3927H43.8653C47.2521 32.3927 50 29.6448 50 26.258V6.37361C50 2.98687 47.2521 0.238953 43.8653 0.238953Z" fill="#006171"/>
<path d="M40.712 26.1243H14.1758" stroke="#006171" stroke-width="2.02799" stroke-linecap="round" stroke-linejoin="round"/>
<path d="M14.8665 18.5082H13.457V19.9988H14.8665V18.5082Z" fill="#006171"/>
<path d="M17.0032 18.5082H15.5938V19.9988H17.0032V18.5082Z" fill="#006171"/>
<path d="M19.1438 18.5082H17.7344V19.9988H19.1438V18.5082Z" fill="#006171"/>
<path d="M21.2923 18.5082H19.8828V19.9988H21.2923V18.5082Z" fill="#006171"/>
<path d="M24.9251 18.5082H23.5156V19.9988H24.9251V18.5082Z" fill="#006171"/>
<path d="M27.0657 18.5082H25.6562V19.9988H27.0657V18.5082Z" fill="#006171"/>
<path d="M29.2024 18.5082H27.793V19.9988H29.2024V18.5082Z" fill="#006171"/>
<path d="M31.343 18.5082H29.9336V19.9988H31.343V18.5082Z" fill="#006171"/>
<path d="M34.972 18.5082H33.5625V19.9988H34.972V18.5082Z" fill="#006171"/>
<path d="M37.1126 18.5082H35.7031V19.9988H37.1126V18.5082Z" fill="#006171"/>
<path d="M39.2532 18.5082H37.8438V19.9988H39.2532V18.5082Z" fill="#006171"/>
<path d="M41.4016 18.5082H39.9922V19.9988H41.4016V18.5082Z" fill="#006171"/>
<path d="M40.6924 22.5141H14.1562" stroke="#006171" stroke-width="2.02799" stroke-linecap="round" stroke-linejoin="round"/>
<path d="M9.592 14.0582C8.33465 14.0582 7.15842 13.5107 6.36751 12.5575C5.24197 11.1988 5.10002 9.2012 6.03289 7.70049C6.78324 6.4837 8.15213 5.72321 9.592 5.72321C9.86578 5.72321 10.1396 5.75363 10.4032 5.80432C12.3399 6.18964 13.7494 7.91343 13.7494 9.89072C13.7494 11.6348 12.6543 13.2065 11.0217 13.8047C10.5654 13.9771 10.0787 14.0582 9.592 14.0582Z" fill="#D2E390"/>
<path d="M9.58186 6.73764C9.78466 6.73764 9.98746 6.75792 10.1903 6.79848C11.6504 7.09254 12.7252 8.40059 12.7252 9.89116C12.7252 11.1992 11.8938 12.4059 10.6668 12.852C10.3119 12.9838 9.9469 13.0447 9.58186 13.0447C8.65913 13.0447 7.74653 12.6391 7.13814 11.909C6.27624 10.8747 6.17484 9.37402 6.88464 8.22821C7.46261 7.29534 8.50703 6.73764 9.58186 6.73764ZM9.58186 4.70966C7.78709 4.70966 6.09372 5.65267 5.16085 7.16352C3.98462 9.05969 4.157 11.4831 5.57659 13.2069C6.56016 14.3933 8.02031 15.0727 9.58186 15.0727C10.1903 15.0727 10.7885 14.9713 11.3665 14.7583C13.3945 14.008 14.7532 12.0611 14.7532 9.89116C14.7532 7.42716 12.999 5.29777 10.5959 4.81106C10.2714 4.74008 9.92662 4.70966 9.592 4.70966H9.58186Z" fill="#006171"/>
<path d="M11.3583 9.44339H10.0198V8.10492H9.12753V9.44339H7.78906V10.3357H9.12753V11.6742H10.0198V10.3357H11.3583V9.44339Z" fill="#056272"/>
</g>
<defs>
<clipPath id="clip0_111_2258">
<rect width="50" height="32.1537" fill="white" transform="translate(0 0.23645)"/>
</clipPath>
</defs>
</svg>
