<svg width="34" height="48" viewBox="0 0 34 48" fill="none" xmlns="http://www.w3.org/2000/svg">
<g id="Group 2">
<path id="Vector" d="M11.5239 45.8348C11.2422 45.8348 10.9604 45.7699 10.6787 45.6616C9.76842 45.2719 9.24828 44.3409 9.37832 43.3666L11.3505 29.4234H4.65371C3.83015 29.4234 3.07161 28.9471 2.70318 28.211C2.33475 27.4749 2.44311 26.5872 2.94158 25.9376L20.8214 3.00936C21.2332 2.46809 21.8834 2.16498 22.5335 2.16498C22.8153 2.16498 23.1187 2.22993 23.3788 2.33819C24.289 2.7279 24.8091 3.68054 24.6791 4.63318L22.5986 18.7279H29.317C30.1406 18.7279 30.8991 19.2042 31.2676 19.9404C31.636 20.6765 31.5276 21.5642 31.0292 22.2137L13.236 44.9688C12.8242 45.51 12.1741 45.7915 11.5239 45.7915V45.8348Z" fill="#D2E390"/>
<path id="Vector_2" d="M22.5154 4.33018L20.0689 20.8931H29.2921L11.5168 43.6698L13.855 27.2585H4.67508L22.5154 4.33018ZM22.5154 0C21.2163 0 19.9389 0.584574 19.0946 1.66712L1.25424 24.5954C0.236644 25.8945 0.063437 27.6698 0.777916 29.1637C1.51405 30.6576 3.00796 31.5886 4.67508 31.5886H8.87535L7.25153 43.0636C6.97007 45.0122 8.03096 46.8958 9.84964 47.6536C10.3909 47.8918 10.9755 48 11.5384 48C12.8375 48 14.1149 47.4154 14.9592 46.3329L32.7346 23.5778C33.7522 22.2788 33.9471 20.5034 33.2109 19.0095C32.4748 17.5156 30.9809 16.5846 29.3138 16.5846H25.1135L26.8239 4.9797C27.1054 3.03112 26.0445 1.1475 24.2475 0.368065C23.7062 0.129905 23.1216 0.0216509 22.5371 0.0216509L22.5154 0Z" fill="#006171"/>
</g>
</svg>
