<svg width="40" height="48" viewBox="0 0 40 48" fill="none" xmlns="http://www.w3.org/2000/svg">
<g clip-path="url(#clip0_1171_21909)">
<path d="M7.7821 45.9296C4.92676 45.9296 2.60938 43.6125 2.60938 40.7574V24.7443C2.60938 22.2616 4.3681 20.1927 6.70617 19.6962V19.1169C6.70617 17.9377 7.40967 16.9032 8.48559 16.4481L8.71319 16.3653C8.44421 16.2619 8.19592 16.117 7.96832 15.9309C7.14068 15.2688 6.72687 14.2137 6.89239 13.1792C7.96832 6.74501 13.4721 2.06934 19.9897 2.06934C27.3143 2.06934 33.294 8.02772 33.294 15.3723V19.7169C35.6321 20.2134 37.3908 22.2823 37.3908 24.765V40.7781C37.3908 43.6332 35.0734 45.9503 32.2181 45.9503H7.7821V45.9296ZM22.3692 19.5928V15.3723C22.3692 14.0689 21.2933 12.993 19.9897 12.993C18.9552 12.993 18.0241 13.6758 17.7137 14.6688C17.4861 15.4136 16.9482 16.0343 16.2654 16.386L16.0792 16.4688C17.0309 16.986 17.6103 17.9584 17.6103 19.0342V19.5928H22.3692Z" fill="#D2E390"/>
<path d="M19.9821 4.13696C26.1654 4.13696 31.2113 9.16218 31.2113 15.3662V21.6528H32.2039C33.8997 21.6528 35.3059 23.0384 35.3059 24.7548V40.7611C35.3059 42.4568 33.9204 43.8631 32.2039 43.8631H7.78094C6.08519 43.8631 4.67895 42.4775 4.67895 40.7611V24.7548C4.67895 23.0591 6.06451 21.6528 7.78094 21.6528H8.77357V19.1299C8.77357 18.799 8.98037 18.4888 9.29057 18.3647L12.1237 17.3514L14.9775 18.2407C15.3084 18.3647 15.5566 18.6749 15.5566 19.0265V21.6528H24.449V15.3662C24.449 12.9259 22.4637 10.92 20.0028 10.92C18.0382 10.92 16.3424 12.1814 15.7634 14.0426C15.7013 14.2494 15.5359 14.4356 15.3498 14.539L14.9775 14.6217L14.7087 14.5803L12.5166 13.6497L10.1178 14.4149L9.78689 14.4769L9.26989 14.2908C9.02173 14.1047 8.91833 13.7945 8.95969 13.505C9.86961 8.06614 14.5019 4.11628 20.0234 4.11628M19.9821 0.000976562C12.4546 0.000976562 6.08519 5.39843 4.84439 12.8432C4.63759 14.0426 4.90643 15.2628 5.52683 16.2761C5.13391 16.8551 4.84439 17.4962 4.72031 18.1993C2.2594 19.3574 0.542969 21.8596 0.542969 24.7548V40.7611C0.542969 44.7523 3.78972 47.9991 7.78094 47.9991H32.2246C36.2158 47.9991 39.4626 44.7523 39.4626 40.7611V24.7548C39.4626 21.901 37.7875 19.4194 35.3679 18.2407V15.3662C35.3679 6.88739 28.4815 0.000976563 20.0028 0.000976563L19.9821 0.000976562ZM19.0515 16.5863C19.3203 16.1933 19.5478 15.7384 19.6926 15.2834L19.9821 15.056L20.2923 15.3662V17.5169H19.4444C19.341 17.186 19.2169 16.8965 19.0515 16.5863Z" fill="#006171"/>
<path d="M14.1365 29.8963L22.9301 38.689C23.737 39.4959 25.0406 39.4959 25.8475 38.689C26.6545 37.8822 26.6545 36.5788 25.8475 35.7719L17.0539 26.9792C16.2469 26.1723 14.9434 26.1723 14.1365 26.9792C13.3295 27.786 13.3295 29.0894 14.1365 29.8963Z" fill="#006171"/>
<path d="M17.0734 38.689L25.867 29.8963C26.674 29.0894 26.674 27.786 25.867 26.9792C25.0601 26.1723 23.7566 26.1723 22.9496 26.9792L14.156 35.7719C13.349 36.5788 13.349 37.8822 14.156 38.689C14.9629 39.4959 16.2665 39.4959 17.0734 38.689Z" fill="#006171"/>
<path d="M21.8547 14.3799H17.9648V18.7866H21.8547V14.3799Z" fill="#006171"/>
</g>
<defs>
<clipPath id="clip0_1171_21909">
<rect width="38.9196" height="47.9981" fill="white" transform="translate(0.542969 0.000976562)"/>
</clipPath>
</defs>
</svg>
