<svg width="49" height="48" viewBox="0 0 49 48" fill="none" xmlns="http://www.w3.org/2000/svg">
<g clip-path="url(#clip0_1171_21933)">
<path d="M24.996 45.8992C12.9149 45.8992 3.08594 36.0913 3.08594 24.0313C3.08594 11.9713 12.9149 2.14232 24.996 2.14232C29.1001 2.14232 33.0359 3.25782 36.4877 5.40462L39.1606 2.73164C39.5605 2.33175 40.1078 2.12128 40.655 2.12128C40.9286 2.12128 41.2022 2.16337 41.4548 2.28965C42.2335 2.60536 42.7597 3.3841 42.7597 4.22599V16.3491C42.7597 17.5067 41.8126 18.4538 40.655 18.4538H28.5108C27.6689 18.4538 26.8902 17.9487 26.5745 17.1489C26.2377 16.3702 26.4272 15.4651 27.0375 14.8548L28.8265 13.0658C27.6058 12.6448 26.3219 12.4344 24.996 12.4344C23.4174 12.4344 21.902 12.7501 20.4708 13.3394C19.0817 13.9287 17.8399 14.7706 16.7665 15.8229C15.6931 16.8963 14.8513 18.1381 14.283 19.5062C13.6726 20.9374 13.378 22.4528 13.378 24.0103C13.378 25.5677 13.6937 27.1042 14.283 28.5143C14.8723 29.9034 15.7142 31.1452 16.7665 32.1976C17.8399 33.271 19.0817 34.1129 20.4708 34.6811C21.902 35.2915 23.4174 35.5862 24.996 35.5862C26.5745 35.5862 28.0899 35.2704 29.5211 34.6811C30.9102 34.0918 32.152 33.2499 33.2254 32.1976C34.2988 31.1242 35.1407 29.8824 35.7089 28.5143C36.3193 27.0831 36.6139 25.5677 36.6139 24.0103C36.6139 23.1052 36.5087 22.2002 36.2982 21.3373C36.1509 20.7059 36.2982 20.0534 36.6981 19.5483C37.098 19.0431 37.7084 18.7485 38.3398 18.7485H44.5277C45.559 18.7485 46.4429 19.5062 46.6113 20.5164C46.8007 21.674 46.8849 22.8527 46.8849 24.0103C46.8849 36.0702 37.0559 45.8992 24.9749 45.8992H24.996Z" fill="#D2E390"/>
<path d="M40.6408 4.20336V16.3212H28.5019L32.3729 12.4502C31.7207 12.0294 31.0475 11.6718 30.3112 11.3773C28.6281 10.662 26.8189 10.3043 24.9675 10.3043C23.1162 10.3043 21.307 10.662 19.6239 11.3773C17.983 12.0715 16.5314 13.0603 15.2691 14.3226C14.0068 15.5848 13.018 17.0575 12.3238 18.6774C11.6085 20.3604 11.2509 22.1487 11.2509 24.021C11.2509 25.8934 11.6085 27.6606 12.3238 29.3436C13.018 30.9846 14.0068 32.4362 15.2691 33.6985C16.5314 34.9607 18.004 35.9495 19.6239 36.6438C21.307 37.359 23.1162 37.7167 24.9675 37.7167C26.8189 37.7167 28.6071 37.359 30.3112 36.6438C31.9521 35.9495 33.4037 34.9607 34.666 33.6985C35.9283 32.4362 36.9171 30.9635 37.6113 29.3436C38.3266 27.6606 38.6842 25.8724 38.6842 24.021C38.6842 22.9481 38.558 21.8962 38.3266 20.8654H44.5117C44.68 21.8962 44.7642 22.9481 44.7642 24.021C44.7642 34.9397 35.9072 43.7966 24.9675 43.7966C14.0279 43.7966 5.19195 34.9186 5.19195 24.021C5.19195 13.1234 14.0489 4.24544 24.9886 4.24544C29.3855 4.24544 33.4458 5.67601 36.7277 8.11641L40.6408 4.20336ZM40.6408 -0.00421143C39.5468 -0.00421143 38.4739 0.416546 37.6744 1.21598L36.1386 2.75175C32.7095 0.96353 28.9016 0.0378643 24.9886 0.0378643C11.7558 0.0378643 0.984375 10.7882 0.984375 24.021C0.984375 37.2539 11.7558 48.0042 24.9886 48.0042C38.2214 48.0042 48.9928 37.2539 48.9928 24.021C48.9928 22.7377 48.8876 21.4544 48.6772 20.1921C48.3617 18.2567 46.7628 16.805 44.8483 16.6788V16.3422V4.2244C44.8483 2.52033 43.8175 0.984568 42.2607 0.332394C41.7347 0.122016 41.1877 0.0168264 40.6408 0.0168264V-0.00421143ZM24.9886 33.5091C23.7053 33.5091 22.443 33.2567 21.2859 32.7728C20.1499 32.2889 19.1401 31.6157 18.2565 30.7321C17.3939 29.8696 16.6997 28.8387 16.2158 27.7237C15.7319 26.5666 15.4795 25.3254 15.4795 24.0421C15.4795 22.7588 15.7319 21.5175 16.2158 20.3394C16.6997 19.2034 17.3729 18.1935 18.2565 17.331C19.1401 16.4474 20.1499 15.7742 21.2859 15.2903C22.3588 14.8275 23.5159 14.575 24.7151 14.554C24.2102 15.6059 24.1681 16.8471 24.6309 17.9621C25.2831 19.54 26.8189 20.5708 28.5229 20.5708H34.1611C34.119 20.9916 34.1611 21.4334 34.2663 21.8541C34.4346 22.5694 34.5187 23.3057 34.5187 24.0631C34.5187 25.3464 34.2663 26.5877 33.7824 27.7447C33.2985 28.8808 32.6253 29.8906 31.7417 30.7742C30.8581 31.6578 29.8483 32.331 28.7123 32.8149C27.5552 33.2987 26.314 33.5512 25.0096 33.5512L24.9886 33.5091Z" fill="#006171"/>
</g>
<defs>
<clipPath id="clip0_1171_21933">
<rect width="48.0084" height="48.0084" fill="white" transform="translate(0.984375 -0.00421143)"/>
</clipPath>
</defs>
</svg>
