<svg width="50" height="50" viewBox="0 0 50 50" fill="none" xmlns="http://www.w3.org/2000/svg">
<g clip-path="url(#clip0_111_2167)">
<path fill-rule="evenodd" clip-rule="evenodd" d="M44.7647 48.9858C43.6595 48.9858 42.615 48.56 41.8241 47.7893L30.2849 36.2399C27.2328 38.1665 23.7345 39.1805 20.1044 39.1805C17.6607 39.1805 15.2778 38.7242 13.0064 37.8116C7.03402 35.4186 2.69413 30.227 1.40636 23.9301C0.108449 17.6332 2.05532 11.1538 6.60814 6.60093C10.2078 3.00125 15.004 1.01382 20.1044 1.01382C21.3922 1.01382 22.6799 1.14564 23.9373 1.39914C30.2342 2.68691 35.4258 7.0268 37.8188 12.9992C40.1003 18.708 39.5122 25.0962 36.2472 30.2675L47.7864 41.8068C49.3987 43.4697 49.3784 46.1264 47.756 47.7488C46.9549 48.5498 45.9004 48.9858 44.7647 48.9858Z" fill="#D2E390"/>
<path d="M20.1047 2.02716C21.3113 2.02716 22.5281 2.14884 23.7348 2.3922C29.6869 3.60899 34.625 7.73594 36.8862 13.3737C39.1475 19.0115 38.4174 25.4098 34.9495 30.3987L47.0667 42.5159C48.2937 43.7733 48.2734 45.781 47.0363 47.0282C46.4076 47.6569 45.5863 47.9712 44.765 47.9712C43.9436 47.9712 43.1527 47.667 42.524 47.0687L30.4068 34.9515C27.3344 37.0809 23.7348 38.176 20.1047 38.176C17.8333 38.176 15.5518 37.7501 13.392 36.8781C7.75422 34.6169 3.62727 29.6788 2.41048 23.7266C1.19369 17.7745 3.03915 11.6094 7.33849 7.32021C10.7658 3.89291 15.3693 2.02716 20.1148 2.02716M20.1047 -0.000823975C14.7406 -0.000823975 9.69095 2.088 5.88848 5.89048C1.09229 10.6765 -0.955978 17.5007 0.412913 24.1322C1.77166 30.7637 6.34477 36.2393 12.6315 38.754C15.0144 39.7071 17.5291 40.1939 20.1047 40.1939C23.6536 40.1939 27.0809 39.2711 30.1229 37.5169L41.0943 48.4883C42.0982 49.4618 43.3961 49.989 44.765 49.989C46.1339 49.989 47.4825 49.4415 48.466 48.4579C50.4738 46.4502 50.5042 43.1446 48.5167 41.1065L37.5251 30.1148C40.5873 24.8014 41.0639 18.3829 38.7621 12.6234C36.2373 6.33663 30.7719 1.77366 24.1404 0.404773C22.812 0.130995 21.4533 -0.000823975 20.1047 -0.000823975Z" fill="#006171"/>
<path fill-rule="evenodd" clip-rule="evenodd" d="M20.1164 35.1752C11.8118 35.1752 5.05859 28.422 5.05859 20.1174C5.05859 11.8128 11.8118 5.05957 20.1164 5.05957C28.421 5.05957 35.1742 11.8128 35.1742 20.1174C35.1742 28.422 28.421 35.1752 20.1164 35.1752Z" fill="#D2E390"/>
<path d="M20.1148 6.08267C27.8718 6.08267 34.1586 12.3694 34.1586 20.1265C34.1586 27.8835 27.8718 34.1703 20.1148 34.1703C12.3577 34.1703 6.07095 27.8835 6.07095 20.1265C6.07095 12.3694 12.3577 6.08267 20.1148 6.08267ZM20.1148 4.05469C11.2525 4.05469 4.04297 11.2642 4.04297 20.1265C4.04297 28.9888 11.2525 36.1983 20.1148 36.1983C28.9771 36.1983 36.1866 28.9888 36.1866 20.1265C36.1866 11.2642 28.9771 4.05469 20.1148 4.05469Z" fill="#006171"/>
<path fill-rule="evenodd" clip-rule="evenodd" d="M17.998 25.9694C17.6025 25.9694 17.2172 25.7971 16.9536 25.4929L12.8672 20.6967C12.3805 20.1187 12.4413 19.2771 13.0092 18.7701L14.7836 17.2085C15.0371 16.9855 15.3616 16.8739 15.6861 16.8739C15.7165 16.8739 15.7774 16.8739 15.8078 16.8739C16.1525 16.8942 16.4871 17.0666 16.7305 17.3505L18.4137 19.3176L23.9299 14.5823C24.1834 14.3694 24.4977 14.2578 24.8222 14.2578C25.2278 14.2578 25.6029 14.4302 25.8666 14.7445L27.3774 16.519C27.8641 17.0869 27.7932 17.9589 27.2355 18.4456L18.8903 25.6348C18.6368 25.8478 18.3225 25.9694 17.998 25.9694Z" fill="#D2E390"/>
<path d="M24.8212 15.2819C24.9226 15.2819 25.024 15.3225 25.095 15.4137L26.6059 17.1882C26.7377 17.3403 26.7174 17.5634 26.5653 17.6952L18.2303 24.8844C18.1593 24.9452 18.0782 24.9757 17.9971 24.9757C17.8957 24.9757 17.7943 24.9351 17.7233 24.854L13.647 20.0679C13.5152 19.9158 13.5355 19.6928 13.6876 19.5609L15.4621 18.0095C15.5229 17.9588 15.6142 17.9183 15.6953 17.9183C15.6953 17.9183 15.7156 17.9183 15.7257 17.9183C15.8271 17.9183 15.9082 17.969 15.9691 18.04L18.3114 20.7777L24.5982 15.3833C24.6691 15.3225 24.7502 15.3022 24.8314 15.3022M24.8212 13.2539C24.2635 13.2539 23.716 13.4567 23.28 13.8116L18.5142 17.898L17.5002 16.7015C17.0743 16.2148 16.4761 15.9106 15.8474 15.87C15.8068 15.87 15.7257 15.87 15.6852 15.87C15.1275 15.87 14.5799 16.0728 14.1439 16.4378L12.339 18.0197C12.339 18.0197 12.2477 18.1109 12.197 18.1515C11.3554 19.0235 11.2946 20.4228 12.0855 21.3659L16.1617 26.162C16.6282 26.6995 17.2873 27.0037 17.9768 27.0037C18.5446 27.0037 19.0922 26.8009 19.5282 26.4358L27.8734 19.2365C28.8569 18.3746 28.9786 16.8739 28.137 15.8801L26.6768 14.1564C26.6768 14.1564 26.6464 14.1158 26.6363 14.1057C26.18 13.5682 25.5209 13.264 24.8111 13.264L24.8212 13.2539Z" fill="#006171"/>
</g>
<defs>
<clipPath id="clip0_111_2167">
<rect width="50" height="50" fill="white"/>
</clipPath>
</defs>
</svg>
