<svg width="100" height="155" viewBox="0 0 100 155" fill="none" xmlns="http://www.w3.org/2000/svg">
<g clip-path="url(#clip0_1585_867)">
<path d="M95.6011 133.358H4.41511C3.13945 133.358 2.10478 132.327 2.10156 131.051V54.7781C2.10156 53.5024 3.13623 52.4678 4.4119 52.4678H95.6043C96.88 52.4678 97.9147 53.5024 97.9147 54.7781V131.051C97.9147 132.327 96.88 133.362 95.6043 133.362L95.6011 133.358Z" stroke="#A7C7D2" stroke-width="2.41" stroke-miterlimit="10"/>
<path d="M78.8278 31.7234V32.4458L79.5461 32.5223C90.5815 33.6971 99.1781 43.0289 99.1967 54.3718V141.834C99.1876 148.239 94.0003 153.426 87.5957 153.435H12.4072C6.00303 153.429 0.812641 148.24 0.803333 141.835V54.3712C0.82226 43.0224 9.42481 33.6908 20.4665 32.5191L21.1851 32.4428V31.7202V20.4265C21.242 19.5483 21.9943 18.8763 22.8758 18.9208C23.6923 18.9636 24.3465 19.612 24.3983 20.4261V31.5917V32.395H25.2016H74.8112H75.6146V31.5917V20.4031C75.6146 19.5165 76.3345 18.7965 77.2212 18.7965C78.1078 18.7965 78.8278 19.5165 78.8278 20.4031V31.7234ZM87.6096 150.222H87.6109C92.2405 150.215 95.9892 146.466 95.9963 141.837V141.836L95.9963 54.3705L95.9963 54.369C95.9761 44.0168 87.5877 35.6284 77.2356 35.6083H77.234L22.7917 35.6083L22.7899 35.6083C12.438 35.6318 4.05277 44.0168 4.03263 54.369V54.3705L4.03263 141.836L4.03263 141.836C4.03618 146.466 7.78858 150.219 12.4186 150.222H12.4193H87.6096Z" fill="#006171" stroke="#F6F9E9" stroke-width="1.60667"/>
<path d="M82.6773 18.7966H83.4806V17.9933V4.81892V4.01559H82.6773H17.3355H16.5322V4.81892V17.9933V18.7966H17.3355H17.3387H82.6773ZM85.0904 22.0099H14.9256C14.039 22.0099 13.319 21.2899 13.319 20.4033V2.40897C13.319 1.52235 14.039 0.802356 14.9256 0.802356H85.0904C85.977 0.802356 86.697 1.52235 86.697 2.40897V20.4033C86.697 21.2899 85.977 22.0099 85.0904 22.0099Z" fill="#006171" stroke="#F6F9E9" stroke-width="1.60667"/>
</g>
<defs>
<clipPath id="clip0_1585_867">
<rect width="100" height="154.24" fill="white"/>
</clipPath>
</defs>
</svg>
