<svg width="100" height="155" viewBox="0 0 100 155" fill="none" xmlns="http://www.w3.org/2000/svg">
<g clip-path="url(#clip0_1585_10626)">
<path d="M95.6011 133.417H4.41511C3.13945 133.417 2.10478 132.386 2.10156 131.11V54.8369C2.10156 53.5613 3.13623 52.5266 4.4119 52.5266H95.6043C96.88 52.5266 97.9147 53.5613 97.9147 54.8369V131.11C97.9147 132.386 96.88 133.421 95.6043 133.421L95.6011 133.417Z" stroke="#A7C7D2" stroke-width="2.41" stroke-miterlimit="10"/>
<path d="M79.0286 31.7842V32.326L79.5673 32.3833C90.7037 33.5689 99.3787 42.9858 99.3975 54.4323V141.896C99.3883 148.411 94.1113 153.688 87.5959 153.697H12.407C5.89202 153.691 0.611897 148.411 0.6025 141.896V54.4318C0.621524 42.9793 9.30264 33.5626 20.4453 32.3802L20.9842 32.323V31.781V20.481C21.0449 19.49 21.8925 18.7308 22.886 18.781C23.8068 18.8291 24.544 19.5618 24.5991 20.4807V31.6525V32.255H25.2016H74.8112H75.4137V31.6525V20.4639C75.4137 19.4664 76.2236 18.6565 77.2212 18.6565C78.2187 18.6565 79.0286 19.4664 79.0286 20.4639V31.7842ZM95.7955 141.897V141.896V54.4313V54.4302C95.7755 44.1886 87.4767 35.8898 77.2352 35.8699H77.234L22.7917 35.8699L22.7903 35.8699C12.549 35.8931 4.25339 44.1886 4.23346 54.4302V54.4313L4.23346 141.896L4.23346 141.897C4.23693 146.416 7.89953 150.079 12.4188 150.082H12.4193H87.6096H87.6106C92.1295 150.075 95.7885 146.416 95.7955 141.897Z" fill="white" stroke="#006171" stroke-width="1.205"/>
<path d="M82.6773 18.6546H83.2798V18.0521V4.87776V4.27526H82.6773H17.3355H16.733V4.87776V18.0521V18.6546H17.3355H17.3387H82.6773ZM85.0904 22.2695H14.9256C13.928 22.2695 13.1181 21.4596 13.1181 20.4621V2.46781C13.1181 1.47027 13.928 0.660361 14.9256 0.660361H85.0904C86.088 0.660361 86.8979 1.47027 86.8979 2.46781V20.4621C86.8979 21.4596 86.088 22.2695 85.0904 22.2695Z" fill="white" stroke="#006171" stroke-width="1.205"/>
</g>
<defs>
<clipPath id="clip0_1585_10626">
<rect width="100" height="154.24" fill="white" transform="translate(0 0.0585938)"/>
</clipPath>
</defs>
</svg>
