<svg width="40" height="40" viewBox="0 0 40 40" fill="none" xmlns="http://www.w3.org/2000/svg">
<g id="General / Minus_Circle / 24px / Contour">
<g id="Union">
<path d="M14.1673 18.3335C13.2468 18.3335 12.5007 19.0797 12.5007 20.0002C12.5007 20.9206 13.2468 21.6668 14.1673 21.6668H25.834C26.7545 21.6668 27.5007 20.9206 27.5007 20.0002C27.5007 19.0797 26.7545 18.3335 25.834 18.3335H14.1673Z" fill="#006171"/>
<path fill-rule="evenodd" clip-rule="evenodd" d="M36.6673 20.0002C36.6673 29.2049 29.2054 36.6668 20.0007 36.6668C10.7959 36.6668 3.33398 29.2049 3.33398 20.0002C3.33398 10.7954 10.7959 3.3335 20.0007 3.3335C29.2054 3.3335 36.6673 10.7954 36.6673 20.0002ZM33.334 20.0002C33.334 27.364 27.3644 33.3335 20.0007 33.3335C12.6369 33.3335 6.66732 27.364 6.66732 20.0002C6.66732 12.6364 12.6369 6.66683 20.0007 6.66683C27.3644 6.66683 33.334 12.6364 33.334 20.0002Z" fill="#464A54"/>
</g>
</g>
</svg>
